{
.appVersion = "939";
copyright = "Copyright (c) 2013 by Juan Pablo del Peral (huertatipografica.com.ar)";
customParameters = (
{
name = panose;
value = (
0,
0,
0,
0,
0,
0,
0,
0,
0,
0
);
},
{
name = openTypeOS2VendorID;
value = Huer;
}
);
date = "2016-12-15 00:06:09 +0000";
designer = "Juan Pablo del Peral";
designerURL = "http://www.huertatipografica.com.ar";
disablesAutomaticAlignment = 1;
familyName = "Alegreya Sans Panos";
fontMaster = (
{
alignmentZones = (
"{700, 12}",
"{647, 12}",
"{586, 12}",
"{513, 12}",
"{472, 12}",
"{0, -12}",
"{-83, -12}",
"{-185, -12}"
);
ascender = 700;
capHeight = 647;
customParameters = (
{
name = typoDescender;
value = -250;
},
{
name = typoLineGap;
value = 0;
},
{
name = hheaLineGap;
value = 9;
},
{
name = hheaAscender;
value = 750;
},
{
name = typoAscender;
value = 750;
},
{
name = hheaDescender;
value = -250;
},
{
name = winDescent;
value = 0;
},
{
name = winAscent;
value = 0;
}
);
descender = -185;
horizontalStems = (
128,
153,
162
);
id = UUID0;
italicAngle = 7;
verticalStems = (
184,
194,
210
);
xHeight = 472;
}
);
glyphs = (
{
glyphname = A;
lastChange = "2016-12-19 13:36:04 +0000";
layers = (
{
anchors = (
{
name = bottom;
position = "{285, 0}";
},
{
name = ogonek;
position = "{588, 0}";
},
{
name = top;
position = "{365, 647}";
}
);
layerId = UUID0;
paths = (
{
closed = 1;
nodes = (
"491 647 LINE",
"249 647 LINE",
"-27 0 LINE",
"169 0 LINE",
"203 119 LINE",
"338 468 LINE",
"350 468 LINE",
"381 107 LINE",
"385 0 LINE",
"588 0 LINE"
);
},
{
closed = 1;
nodes = (
"415 257 LINE",
"312 255 LINE",
"190 258 LINE",
"172 107 LINE",
"282 112 LINE",
"397 110 LINE"
);
}
);
width = 627;
}
);
leftKerningGroup = A;
rightKerningGroup = A;
unicode = 0041;
},
{
glyphname = Aringacute;
lastChange = "2016-12-19 13:36:04 +0000";
layers = (
{
anchors = (
{
name = _top;
position = "{376, 526}";
},
{
name = top;
position = "{411, 810}";
}
);
layerId = UUID0;
paths = (
{
closed = 1;
nodes = (
"501 647 LINE",
"300 647 LINE",
"4 0 LINE",
"200 0 LINE",
"233 115 LINE",
"366 450 LINE",
"378 450 LINE",
"411 103 LINE",
"416 0 LINE",
"619 0 LINE"
);
},
{
closed = 1;
nodes = (
"444 248 LINE",
"341 246 LINE",
"219 248 LINE",
"202 103 LINE",
"312 108 LINE",
"427 106 LINE"
);
},
{
closed = 1;
nodes = (
"311 288 LINE"
);
},
{
closed = 1;
nodes = (
"406 810 LINE",
"331 810 OFFCURVE",
"292 772 OFFCURVE",
"292 699 CURVE SMOOTH",
"292 628 OFFCURVE",
"328 592 OFFCURVE",
"398 592 CURVE SMOOTH",
"473 592 OFFCURVE",
"512 633 OFFCURVE",
"512 706 CURVE SMOOTH",
"512 775 OFFCURVE",
"477 810 OFFCURVE",
"406 810 CURVE SMOOTH"
);
},
{
closed = 1;
nodes = (
"401 732 LINE",
"427 732 OFFCURVE",
"437 723 OFFCURVE",
"437 699 CURVE SMOOTH",
"437 676 OFFCURVE",
"428 668 OFFCURVE",
"403 668 CURVE SMOOTH",
"377 668 OFFCURVE",
"367 677 OFFCURVE",
"367 702 CURVE SMOOTH",
"367 724 OFFCURVE",
"376 732 OFFCURVE",
"401 732 CURVE SMOOTH"
);
},
{
closed = 1;
nodes = (
"527 1008 LINE",
"452 975 OFFCURVE",
"376 945 OFFCURVE",
"289 913 CURVE",
"309 831 LINE",
"325 825 LINE",
"404 835 OFFCURVE",
"481 848 OFFCURVE",
"570 864 CURVE",
"578 880 LINE",
"544 1002 LINE"
);
}
);
width = 658;
}
);
leftKerningGroup = A;
rightKerningGroup = A;
unicode = 01FA;
},
{
glyphname = AE;
lastChange = "2016-12-19 13:36:04 +0000";
layers = (
{
anchors = (
{
name = top;
position = "{555, 647}";
}
);
layerId = UUID0;
paths = (
{
closed = 1;
nodes = (
"825 647 LINE",
"306 647 LINE",
"-49 0 LINE",
"147 0 LINE",
"195 119 LINE",
"373 468 LINE",
"385 468 LINE",
"370 107 LINE",
"362 0 LINE",
"798 0 LINE",
"828 146 LINE",
"818 160 LINE",
"653 154 LINE",
"562 154 LINE",
"580 493 LINE",
"655 493 LINE",
"804 487 LINE",
"834 633 LINE"
);
},
{
closed = 1;
nodes = (
"749 433 LINE",
"536 368 LINE",
"163 258 LINE",
"97 92 LINE",
"539 222 LINE",
"763 284 LINE",
"762 422 LINE"
);
}
);
width = 839;
}
);
leftKerningGroup = A;
rightKerningGroup = AE;
unicode = 00C6;
},
{
glyphname = B;
lastChange = "2016-12-19 13:36:04 +0000";
layers = (
{
layerId = UUID0;
paths = (
{
closed = 1;
nodes = (
"112 647 LINE",
"205 511 LINE",
"258 514 OFFCURVE",
"280 515 OFFCURVE",
"305 515 CURVE SMOOTH",
"388 515 OFFCURVE",
"409 502 OFFCURVE",
"409 460 CURVE SMOOTH",
"409 419 OFFCURVE",
"388 393 OFFCURVE",
"344 380 CURVE",
"149 389 LINE",
"133 252 LINE",
"349 256 LINE",
"382 244 OFFCURVE",
"399 231 OFFCURVE",
"399 200 CURVE SMOOTH",
"399 153 OFFCURVE",
"361 125 OFFCURVE",
"300 125 CURVE",
"271 125 OFFCURVE",
"207 131 OFFCURVE",
"169 139 CURVE",
"33 0 LINE",
"102 -3 OFFCURVE",
"193 -7 OFFCURVE",
"252 -7 CURVE SMOOTH",
"500 -7 OFFCURVE",
"602 64 OFFCURVE",
"602 196 CURVE SMOOTH",
"602 265 OFFCURVE",
"574 302 OFFCURVE",
"498 333 CURVE",
"578 368 OFFCURVE",
"616 431 OFFCURVE",
"616 497 CURVE SMOOTH",
"616 599 OFFCURVE",
"525 648 OFFCURVE",
"391 648 CURVE SMOOTH"
);
},
{
closed = 1;
nodes = (
"308 647 LINE",
"112 647 LINE",
"66 190 LINE",
"33 0 LINE",
"226 0 LINE",
"244 210 LINE"
);
}
);
width = 631;
}
);
leftKerningGroup = B;
rightKerningGroup = B;
unicode = 0042;
},
{
glyphname = C;
lastChange = "2016-12-19 13:36:04 +0000";
layers = (
{
anchors = (
{
name = bottom;
position = "{327, 0}";
},
{
name = top;
position = "{344, 647}";
}
);
layerId = UUID0;
paths = (
{
closed = 1;
nodes = (
"396 658 LINE",
"156 658 OFFCURVE",
"25 509 OFFCURVE",
"25 263 CURVE SMOOTH",
"25 87 OFFCURVE",
"129 -11 OFFCURVE",
"323 -11 CURVE SMOOTH",
"367 -11 OFFCURVE",
"405 -7 OFFCURVE",
"454 8 CURVE",
"489 166 LINE",
"475 176 LINE",
"437 163 OFFCURVE",
"385 155 OFFCURVE",
"349 155 CURVE SMOOTH",
"275 155 OFFCURVE",
"240 199 OFFCURVE",
"240 295 CURVE SMOOTH",
"240 432 OFFCURVE",
"276 495 OFFCURVE",
"378 495 CURVE SMOOTH",
"416 495 OFFCURVE",
"464 483 OFFCURVE",
"497 464 CURVE",
"511 472 LINE",
"564 631 LINE",
"518 648 OFFCURVE",
"456 658 OFFCURVE",
"396 658 CURVE SMOOTH"
);
}
);
width = 516;
}
);
leftKerningGroup = C;
rightKerningGroup = C;
unicode = 0043;
},
{
glyphname = D;
lastChange = "2016-12-19 13:36:04 +0000";
layers = (
{
anchors = (
{
name = bottom;
position = "{305, 0}";
},
{
name = center;
position = "{327, 324}";
},
{
name = top;
position = "{352, 647}";
}
);
layerId = UUID0;
paths = (
{
closed = 1;
nodes = (
"111 647 LINE",
"272 489 LINE",
"307 493 OFFCURVE",
"343 495 OFFCURVE",
"367 495 CURVE SMOOTH",
"427 495 OFFCURVE",
"453 461 OFFCURVE",
"453 368 CURVE SMOOTH",
"453 199 OFFCURVE",
"405 140 OFFCURVE",
"331 140 CURVE SMOOTH",
"305 140 OFFCURVE",
"255 146 OFFCURVE",
"223 152 CURVE",
"32 0 LINE",
"109 -5 OFFCURVE",
"220 -9 OFFCURVE",
"285 -9 CURVE SMOOTH",
"534 -9 OFFCURVE",
"666 145 OFFCURVE",
"666 397 CURVE SMOOTH",
"666 560 OFFCURVE",
"565 651 OFFCURVE",
"394 651 CURVE"
);
},
{
closed = 1;
nodes = (
"315 647 LINE",
"111 647 LINE",
"65 190 LINE",
"32 0 LINE",
"233 0 LINE",
"250 210 LINE"
);
}
);
width = 668;
}
);
leftKerningGroup = B;
rightKerningGroup = D;
unicode = 0044;
},
{
glyphname = E;
lastChange = "2016-12-19 13:36:04 +0000";
layers = (
{
anchors = (
{
name = bottom;
position = "{298, 0}";
},
{
name = ogonek;
position = "{458, 10}";
},
{
name = top;
position = "{337, 647}";
},
{
name = topleft;
position = "{70, 647}";
}
);
layerId = UUID0;
paths = (
{
closed = 1;
nodes = (
"315 647 LINE",
"111 647 LINE",
"64 190 LINE",
"31 0 LINE",
"232 0 LINE",
"250 210 LINE"
);
},
{
closed = 1;
nodes = (
"508 160 LINE",
"341 154 LINE",
"184 154 LINE",
"166 11 LINE",
"165 0 LINE",
"487 0 LINE",
"517 146 LINE"
);
},
{
closed = 1;
nodes = (
"482 405 LINE",
"377 402 LINE",
"224 402 LINE",
"207 259 LINE",
"206 248 LINE",
"346 248 LINE",
"461 245 LINE",
"491 391 LINE"
);
},
{
closed = 1;
nodes = (
"575 647 LINE",
"245 647 LINE",
"227 504 LINE",
"226 493 LINE",
"395 493 LINE",
"553 487 LINE",
"584 633 LINE"
);
}
);
width = 541;
}
);
leftKerningGroup = B;
rightKerningGroup = AE;
unicode = 0045;
},
{
glyphname = F;
lastChange = "2016-12-19 13:36:04 +0000";
layers = (
{
layerId = UUID0;
paths = (
{
closed = 1;
nodes = (
"315 647 LINE",
"111 647 LINE",
"64 190 LINE",
"31 0 LINE",
"232 0 LINE",
"250 210 LINE"
);
},
{
closed = 1;
nodes = (
"459 380 LINE",
"342 377 LINE",
"221 377 LINE",
"203 223 LINE",
"310 223 LINE",
"438 220 LINE",
"468 366 LINE"
);
},
{
closed = 1;
nodes = (
"543 647 LINE",
"245 647 LINE",
"227 504 LINE",
"226 493 LINE",
"362 493 LINE",
"521 487 LINE",
"552 633 LINE"
);
}
);
width = 481;
}
);
leftKerningGroup = B;
rightKerningGroup = F;
unicode = 0046;
},
{
glyphname = G;
lastChange = "2016-12-19 13:36:04 +0000";
layers = (
{
anchors = (
{
name = bottom;
position = "{326, 0}";
},
{
name = top;
position = "{376, 647}";
}
);
layerId = UUID0;
paths = (
{
closed = 1;
nodes = (
"426 658 LINE",
"165 658 OFFCURVE",
"24 514 OFFCURVE",
"24 258 CURVE SMOOTH",
"24 88 OFFCURVE",
"127 -12 OFFCURVE",
"316 -12 CURVE SMOOTH",
"389 -12 OFFCURVE",
"460 2 OFFCURVE",
"542 32 CURVE",
"564 209 LINE",
"578 297 LINE",
"393 284 LINE",
"383 175 LINE",
"379 143 LINE",
"368 141 OFFCURVE",
"359 139 OFFCURVE",
"343 139 CURVE SMOOTH",
"265 139 OFFCURVE",
"234 167 OFFCURVE",
"234 260 CURVE SMOOTH",
"234 463 OFFCURVE",
"291 498 OFFCURVE",
"379 498 CURVE SMOOTH",
"439 498 OFFCURVE",
"481 482 OFFCURVE",
"539 451 CURVE",
"555 451 LINE",
"620 628 LINE",
"572 647 OFFCURVE",
"496 658 OFFCURVE",
"426 658 CURVE SMOOTH"
);
}
);
width = 599;
}
);
leftKerningGroup = C;
rightKerningGroup = G;
unicode = 0047;
},
{
glyphname = H;
lastChange = "2016-12-19 13:36:04 +0000";
layers = (
{
anchors = (
{
name = bottom;
position = "{327, 0}";
},
{
name = center;
position = "{374, 324}";
},
{
name = top;
position = "{406, 647}";
},
{
name = topleft;
position = "{70, 647}";
}
);
layerId = UUID0;
paths = (
{
closed = 1;
nodes = (
"701 647 LINE",
"497 647 LINE",
"451 190 LINE",
"417 0 LINE",
"618 0 LINE",
"636 210 LINE"
);
},
{
closed = 1;
nodes = (
"315 647 LINE",
"111 647 LINE",
"65 190 LINE",
"31 0 LINE",
"232 0 LINE",
"250 210 LINE"
);
},
{
closed = 1;
nodes = (
"489 402 LINE",
"379 400 LINE",
"254 403 LINE",
"234 238 LINE",
"348 242 LINE",
"469 240 LINE"
);
}
);
width = 712;
}
);
leftKerningGroup = B;
rightKerningGroup = H;
unicode = 0048;
},
{
glyphname = Hbar;
lastChange = "2016-12-19 13:36:04 +0000";
layers = (
{
anchors = (
{
name = bottom;
position = "{344, 0}";
},
{
name = center;
position = "{391, 324}";
},
{
name = top;
position = "{423, 647}";
},
{
name = topleft;
position = "{87, 647}";
}
);
layerId = UUID0;
paths = (
{
closed = 1;
nodes = (
"761 573 LINE",
"51 573 LINE",
"45 482 LINE",
"53 472 LINE",
"764 472 LINE",
"769 563 LINE"
);
},
{
closed = 1;
nodes = (
"718 647 LINE",
"514 647 LINE",
"468 190 LINE",
"434 0 LINE",
"635 0 LINE",
"653 210 LINE"
);
},
{
closed = 1;
nodes = (
"332 647 LINE",
"128 647 LINE",
"82 190 LINE",
"48 0 LINE",
"249 0 LINE",
"267 210 LINE"
);
},
{
closed = 1;
nodes = (
"506 402 LINE",
"396 400 LINE",
"271 403 LINE",
"251 238 LINE",
"365 242 LINE",
"486 240 LINE"
);
}
);
width = 746;
}
);
leftKerningGroup = B;
rightKerningGroup = H;
unicode = 0126;
},
{
glyphname = I;
lastChange = "2016-12-19 13:36:04 +0000";
layers = (
{
anchors = (
{
name = bottom;
position = "{135, 0}";
},
{
name = ogonek;
position = "{232, 0}";
},
{
name = top;
position = "{211, 647}";
},
{
name = topleft;
position = "{70, 647}";
}
);
layerId = UUID0;
paths = (
{
closed = 1;
nodes = (
"315 647 LINE",
"111 647 LINE",
"65 190 LINE",
"31 0 LINE",
"232 0 LINE",
"250 210 LINE"
);
}
);
width = 328;
}
);
leftKerningGroup = B;
rightKerningGroup = H;
unicode = 0049;
},
{
glyphname = J;
lastChange = "2016-12-19 13:36:04 +0000";
layers = (
{
anchors = (
{
name = top;
position = "{210, 647}";
}
);
layerId = UUID0;
paths = (
{
closed = 1;
nodes = (
"349 647 LINE",
"145 647 LINE",
"98 193 LINE",
"90 130 LINE",
"83 72 OFFCURVE",
"56 40 OFFCURVE",
"-15 7 CURVE",
"-17 -9 LINE",
"23 -112 LINE",
"198 -62 OFFCURVE",
"258 1 OFFCURVE",
"275 124 CURVE",
"283 213 LINE"
);
},
{
closed = 1;
nodes = (
"167 647 LINE",
"63 647 LINE",
"39 516 LINE",
"48 503 LINE",
"151 507 LINE"
);
}
);
width = 363;
}
);
leftKerningGroup = J;
rightKerningGroup = H;
unicode = 004A;
},
{
glyphname = K;
lastChange = "2016-12-19 13:36:04 +0000";
layers = (
{
anchors = (
{
name = bottom;
position = "{314, 0}";
},
{
name = top;
position = "{314, 647}";
}
);
layerId = UUID0;
paths = (
{
closed = 1;
nodes = (
"678 647 LINE",
"466 647 LINE",
"423 577 LINE",
"251 344 LINE",
"249 332 LINE",
"294 218 OFFCURVE",
"343 109 OFFCURVE",
"393 0 CURVE",
"414 -12 LINE",
"482 -6 OFFCURVE",
"549 5 OFFCURVE",
"618 20 CURVE",
"623 42 LINE",
"561 136 OFFCURVE",
"503 231 OFFCURVE",
"450 330 CURVE"
);
},
{
closed = 1;
nodes = (
"315 647 LINE",
"111 647 LINE",
"65 190 LINE",
"31 0 LINE",
"232 0 LINE",
"250 210 LINE"
);
}
);
width = 631;
}
);
leftKerningGroup = B;
rightKerningGroup = K;
unicode = 004B;
},
{
glyphname = L;
lastChange = "2016-12-19 13:36:04 +0000";
layers = (
{
anchors = (
{
name = bottom;
position = "{211, 0}";
},
{
name = center;
position = "{237, 324}";
},
{
name = top;
position = "{201, 647}";
},
{
name = topright;
position = "{445, 328}";
}
);
layerId = UUID0;
paths = (
{
closed = 1;
nodes = (
"309 647 LINE",
"105 647 LINE",
"59 190 LINE",
"26 0 LINE",
"227 0 LINE",
"245 210 LINE"
);
},
{
closed = 1;
nodes = (
"432 164 LINE",
"170 164 LINE",
"151 11 LINE",
"150 0 LINE",
"411 0 LINE",
"441 150 LINE"
);
}
);
width = 452;
}
);
leftKerningGroup = B;
rightKerningGroup = L;
unicode = 004C;
},
{
glyphname = Lslash;
lastChange = "2016-12-19 13:36:04 +0000";
layers = (
{
anchors = (
{
name = bottom;
position = "{219, 0}";
},
{
name = center;
position = "{245, 324}";
},
{
name = top;
position = "{209, 647}";
},
{
name = topright;
position = "{453, 328}";
}
);
layerId = UUID0;
paths = (
{
closed = 1;
nodes = (
"359 480 LINE",
"-18 301 LINE",
"3 186 LINE",
"18 177 LINE",
"396 357 LINE",
"374 471 LINE"
);
},
{
closed = 1;
nodes = (
"317 647 LINE",
"113 647 LINE",
"67 190 LINE",
"34 0 LINE",
"235 0 LINE",
"253 210 LINE"
);
},
{
closed = 1;
nodes = (
"440 164 LINE",
"178 164 LINE",
"159 11 LINE",
"158 0 LINE",
"419 0 LINE",
"449 150 LINE"
);
}
);
width = 460;
}
);
leftKerningGroup = B;
rightKerningGroup = L;
unicode = 0141;
},
{
glyphname = M;
lastChange = "2016-12-19 13:36:04 +0000";
layers = (
{
anchors = (
{
name = bottom;
position = "{375, 0}";
},
{
name = top;
position = "{454, 647}";
}
);
layerId = UUID0;
paths = (
{
closed = 1;
nodes = (
"774 647 LINE",
"546 647 LINE",
"510 548 LINE",
"419 320 LINE",
"407 320 LINE",
"379 555 LINE",
"371 647 LINE",
"139 647 LINE",
"-3 0 LINE",
"165 0 LINE",
"200 215 LINE",
"232 359 LINE",
"244 359 LINE",
"294 61 LINE",
"445 61 LINE",
"587 359 LINE",
"599 359 LINE",
"590 196 LINE",
"570 0 LINE",
"747 0 LINE"
);
}
);
width = 807;
}
);
leftKerningGroup = M;
rightKerningGroup = M;
unicode = 004D;
},
{
glyphname = N;
lastChange = "2016-12-19 13:36:04 +0000";
layers = (
{
anchors = (
{
name = bottom;
position = "{327, 0}";
},
{
name = top;
position = "{406, 647}";
}
);
layerId = UUID0;
paths = (
{
closed = 1;
nodes = (
"702 651 LINE",
"517 640 LINE",
"481 301 LINE",
"469 301 LINE",
"329 647 LINE",
"111 647 LINE",
"65 190 LINE",
"32 0 LINE",
"214 0 LINE",
"235 234 LINE",
"250 346 LINE",
"262 346 LINE",
"401 0 LINE",
"619 0 LINE",
"637 211 LINE"
);
}
);
width = 711;
}
);
leftKerningGroup = B;
rightKerningGroup = H;
unicode = 004E;
},
{
glyphname = Eng;
lastChange = "2016-12-19 13:36:04 +0000";
layers = (
{
layerId = UUID0;
paths = (
{
closed = 1;
nodes = (
"702 651 LINE",
"517 640 LINE",
"484 321 LINE",
"472 321 LINE",
"330 647 LINE",
"112 647 LINE",
"66 190 LINE",
"32 0 LINE",
"214 0 LINE",
"235 234 LINE",
"250 346 LINE",
"262 346 LINE",
"419 0 LINE",
"402 -25 OFFCURVE",
"375 -44 OFFCURVE",
"332 -63 CURVE",
"331 -79 LINE",
"370 -182 LINE",
"547 -132 OFFCURVE",
"609 -69 OFFCURVE",
"624 54 CURVE",
"637 211 LINE"
);
}
);
width = 716;
}
);
leftKerningGroup = B;
rightKerningGroup = H;
unicode = 014A;
},
{
glyphname = O;
lastChange = "2016-12-19 13:36:04 +0000";
layers = (
{
anchors = (
{
name = bottom;
position = "{300, 0}";
},
{
name = center;
position = "{340, 324}";
},
{
name = ogonek;
position = "{428, 10}";
},
{
name = top;
position = "{379, 647}";
},
{
name = topleft;
position = "{70, 647}";
},
{
name = topright;
position = "{688, 647}";
}
);
layerId = UUID0;
paths = (
{
closed = 1;
nodes = (
"380 659 LINE",
"150 659 OFFCURVE",
"24 498 OFFCURVE",
"24 276 CURVE SMOOTH",
"24 78 OFFCURVE",
"129 -12 OFFCURVE",
"299 -12 CURVE SMOOTH",
"529 -12 OFFCURVE",
"655 152 OFFCURVE",
"655 374 CURVE SMOOTH",
"655 571 OFFCURVE",
"550 659 OFFCURVE",
"380 659 CURVE SMOOTH"
);
},
{
closed = 1;
nodes = (
"357 499 LINE",
"428 499 OFFCURVE",
"443 464 OFFCURVE",
"443 362 CURVE SMOOTH",
"443 170 OFFCURVE",
"390 136 OFFCURVE",
"320 136 CURVE SMOOTH",
"249 136 OFFCURVE",
"234 171 OFFCURVE",
"234 273 CURVE SMOOTH",
"234 465 OFFCURVE",
"287 499 OFFCURVE",
"357 499 CURVE SMOOTH"
);
}
);
width = 658;
}
);
leftKerningGroup = C;
rightKerningGroup = D;
unicode = 004F;
},
{
glyphname = Ohorn;
lastChange = "2016-12-19 13:36:04 +0000";
layers = (
{
anchors = (
{
name = top;
position = "{379, 647}";
}
);
layerId = UUID0;
paths = (
{
closed = 1;
nodes = (
"682 789 LINE",
"649 789 OFFCURVE",
"612 770 OFFCURVE",
"585 752 CURVE",
"580 738 LINE",
"594 724 OFFCURVE",
"602 703 OFFCURVE",
"602 682 CURVE SMOOTH",
"602 651 OFFCURVE",
"585 631 OFFCURVE",
"550 631 CURVE SMOOTH",
"509 631 OFFCURVE",
"460 659 OFFCURVE",
"373 659 CURVE SMOOTH",
"173 659 OFFCURVE",
"24 510 OFFCURVE",
"24 277 CURVE SMOOTH",
"24 87 OFFCURVE",
"124 -12 OFFCURVE",
"298 -12 CURVE SMOOTH",
"522 -12 OFFCURVE",
"654 151 OFFCURVE",
"654 381 CURVE SMOOTH",
"654 450 OFFCURVE",
"642 500 OFFCURVE",
"617 545 CURVE",
"696 563 OFFCURVE",
"755 625 OFFCURVE",
"755 700 CURVE SMOOTH",
"755 753 OFFCURVE",
"726 789 OFFCURVE",
"682 789 CURVE SMOOTH"
);
},
{
closed = 1;
nodes = (
"356 499 LINE",
"432 499 OFFCURVE",
"444 457 OFFCURVE",
"444 364 CURVE SMOOTH",
"444 169 OFFCURVE",
"391 136 OFFCURVE",
"323 136 CURVE SMOOTH",
"247 136 OFFCURVE",
"234 176 OFFCURVE",
"234 272 CURVE SMOOTH",
"234 464 OFFCURVE",
"286 499 OFFCURVE",
"356 499 CURVE SMOOTH"
);
}
);
width = 664;
}
);
leftKerningGroup = C;
rightKerningGroup = D;
unicode = 01A0;
},
{
glyphname = Oslash;
lastChange = "2016-12-19 13:36:04 +0000";
layers = (
{
anchors = (
{
name = bottom;
position = "{300, 0}";
},
{
name = top;
position = "{349, 647}";
}
);
layerId = UUID0;
paths = (
{
closed = 1;
nodes = (
"625 706 LINE",
"530 752 LINE",
"34 -71 LINE",
"40 -88 LINE",
"138 -135 LINE",
"634 687 LINE"
);
},
{
closed = 1;
nodes = (
"380 659 LINE",
"150 659 OFFCURVE",
"24 498 OFFCURVE",
"24 276 CURVE SMOOTH",
"24 78 OFFCURVE",
"129 -12 OFFCURVE",
"299 -12 CURVE SMOOTH",
"529 -12 OFFCURVE",
"655 152 OFFCURVE",
"655 374 CURVE SMOOTH",
"655 571 OFFCURVE",
"550 659 OFFCURVE",
"380 659 CURVE SMOOTH"
);
},
{
closed = 1;
nodes = (
"357 499 LINE",
"428 499 OFFCURVE",
"443 464 OFFCURVE",
"443 362 CURVE SMOOTH",
"443 170 OFFCURVE",
"390 136 OFFCURVE",
"320 136 CURVE SMOOTH",
"249 136 OFFCURVE",
"234 171 OFFCURVE",
"234 273 CURVE SMOOTH",
"234 465 OFFCURVE",
"287 499 OFFCURVE",
"357 499 CURVE SMOOTH"
);
}
);
width = 658;
}
);
leftKerningGroup = C;
rightKerningGroup = D;
unicode = 00D8;
},
{
glyphname = OE;
lastChange = "2016-12-19 13:36:04 +0000";
layers = (
{
anchors = (
{
name = top;
position = "{656, 647}";
}
);
layerId = UUID0;
paths = (
{
closed = 1;
nodes = (
"402 659 LINE",
"171 659 OFFCURVE",
"24 509 OFFCURVE",
"24 262 CURVE SMOOTH",
"24 88 OFFCURVE",
"120 -12 OFFCURVE",
"293 -12 CURVE SMOOTH",
"377 -12 OFFCURVE",
"459 3 OFFCURVE",
"523 0 CURVE",
"837 0 LINE",
"867 146 LINE",
"858 160 LINE",
"691 154 LINE",
"595 154 LINE",
"600 210 LINE",
"604 248 LINE",
"695 248 LINE",
"811 245 LINE",
"841 391 LINE",
"832 405 LINE",
"727 402 LINE",
"628 402 LINE",
"641 493 LINE",
"744 493 LINE",
"903 487 LINE",
"934 633 LINE",
"924 647 LINE",
"602 647 LINE SMOOTH",
"543 647 OFFCURVE",
"481 659 OFFCURVE",
"402 659 CURVE SMOOTH"
);
},
{
closed = 1;
nodes = (
"365 499 LINE",
"404 499 OFFCURVE",
"424 494 OFFCURVE",
"433 483 CURVE SMOOTH",
"439 475 OFFCURVE",
"440 460 OFFCURVE",
"438 434 CURVE SMOOTH",
"415 205 LINE SMOOTH",
"413 177 OFFCURVE",
"406 160 OFFCURVE",
"396 151 CURVE SMOOTH",
"385 141 OFFCURVE",
"364 136 OFFCURVE",
"328 136 CURVE SMOOTH",
"261 136 OFFCURVE",
"235 172 OFFCURVE",
"235 264 CURVE SMOOTH",
"235 459 OFFCURVE",
"282 499 OFFCURVE",
"365 499 CURVE SMOOTH"
);
}
);
width = 891;
}
);
leftKerningGroup = C;
rightKerningGroup = AE;
unicode = 0152;
},
{
glyphname = P;
lastChange = "2016-12-19 13:36:04 +0000";
layers = (
{
layerId = UUID0;
paths = (
{
closed = 1;
nodes = (
"111 647 LINE",
"211 500 LINE",
"330 509 LINE",
"383 506 OFFCURVE",
"408 485 OFFCURVE",
"408 438 CURVE SMOOTH",
"408 383 OFFCURVE",
"390 348 OFFCURVE",
"342 323 CURVE",
"144 334 LINE",
"125 183 LINE",
"307 183 LINE",
"496 183 OFFCURVE",
"621 301 OFFCURVE",
"621 471 CURVE SMOOTH",
"621 584 OFFCURVE",
"540 648 OFFCURVE",
"408 648 CURVE"
);
},
{
closed = 1;
nodes = (
"315 647 LINE",
"111 647 LINE",
"65 190 LINE",
"32 0 LINE",
"233 0 LINE",
"251 210 LINE"
);
}
);
width = 594;
}
);
leftKerningGroup = B;
rightKerningGroup = P;
unicode = 0050;
},
{
glyphname = Thorn;
lastChange = "2016-12-19 13:36:04 +0000";
layers = (
{
layerId = UUID0;
paths = (
{
closed = 1;
nodes = (
"317 647 LINE",
"111 647 LINE",
"65 190 LINE",
"31 0 LINE",
"234 0 LINE",
"252 210 LINE"
);
},
{
closed = 1;
nodes = (
"117 555 LINE",
"215 411 LINE",
"332 420 LINE",
"384 417 OFFCURVE",
"408 397 OFFCURVE",
"408 351 CURVE SMOOTH",
"408 297 OFFCURVE",
"391 262 OFFCURVE",
"343 238 CURVE",
"149 249 LINE",
"131 101 LINE",
"309 101 LINE",
"494 101 OFFCURVE",
"617 216 OFFCURVE",
"617 383 CURVE SMOOTH",
"617 494 OFFCURVE",
"538 556 OFFCURVE",
"408 556 CURVE"
);
}
);
width = 604;
}
);
leftKerningGroup = B;
rightKerningGroup = Thorn;
unicode = 00DE;
},
{
glyphname = Q;
lastChange = "2016-12-19 13:36:04 +0000";
layers = (
{
layerId = UUID0;
paths = (
{
closed = 1;
nodes = (
"383 659 LINE",
"153 659 OFFCURVE",
"24 498 OFFCURVE",
"24 276 CURVE SMOOTH",
"24 78 OFFCURVE",
"126 -12 OFFCURVE",
"296 -12 CURVE SMOOTH",
"526 -12 OFFCURVE",
"655 152 OFFCURVE",
"655 374 CURVE SMOOTH",
"655 571 OFFCURVE",
"553 659 OFFCURVE",
"383 659 CURVE SMOOTH"
);
},
{
closed = 1;
nodes = (
"278 9 LINE",
"364 -78 OFFCURVE",
"465 -151 OFFCURVE",
"578 -212 CURVE",
"593 -205 LINE",
"638 -169 OFFCURVE",
"673 -127 OFFCURVE",
"704 -78 CURVE",
"698 -60 LINE",
"600 -26 OFFCURVE",
"510 19 OFFCURVE",
"423 74 CURVE"
);
},
{
closed = 1;
nodes = (
"357 499 LINE",
"428 499 OFFCURVE",
"443 464 OFFCURVE",
"443 362 CURVE SMOOTH",
"443 170 OFFCURVE",
"390 136 OFFCURVE",
"320 136 CURVE SMOOTH",
"249 136 OFFCURVE",
"234 171 OFFCURVE",
"234 273 CURVE SMOOTH",
"234 465 OFFCURVE",
"287 499 OFFCURVE",
"357 499 CURVE SMOOTH"
);
}
);
width = 663;
}
);
leftKerningGroup = C;
rightKerningGroup = D;
unicode = 0051;
},
{
glyphname = R;
lastChange = "2016-12-19 13:36:04 +0000";
layers = (
{
anchors = (
{
name = bottom;
position = "{287, 0}";
},
{
name = top;
position = "{366, 647}";
}
);
layerId = UUID0;
paths = (
{
closed = 1;
nodes = (
"111 647 LINE",
"211 500 LINE",
"330 509 LINE",
"384 506 OFFCURVE",
"408 486 OFFCURVE",
"408 442 CURVE SMOOTH",
"408 390 OFFCURVE",
"391 356 OFFCURVE",
"342 335 CURVE",
"145 346 LINE",
"126 193 LINE",
"346 193 LINE",
"514 227 OFFCURVE",
"623 339 OFFCURVE",
"623 475 CURVE SMOOTH",
"623 586 OFFCURVE",
"540 648 OFFCURVE",
"408 648 CURVE"
);
},
{
closed = 1;
nodes = (
"315 647 LINE",
"111 647 LINE",
"65 190 LINE",
"31 0 LINE",
"232 0 LINE",
"250 210 LINE"
);
},
{
closed = 1;
nodes = (
"289 289 LINE",
"314 191 OFFCURVE",
"347 96 OFFCURVE",
"379 4 CURVE",
"396 -12 LINE",
"465 -8 OFFCURVE",
"534 5 OFFCURVE",
"602 25 CURVE",
"607 47 LINE",
"557 127 OFFCURVE",
"512 209 OFFCURVE",
"470 291 CURVE"
);
}
);
width = 631;
}
);
leftKerningGroup = B;
rightKerningGroup = R;
unicode = 0052;
},
{
glyphname = S;
lastChange = "2016-12-19 13:36:04 +0000";
layers = (
{
anchors = (
{
name = bottom;
position = "{236, 0}";
},
{
name = top;
position = "{319, 647}";
}
);
layerId = UUID0;
paths = (
{
closed = 1;
nodes = (
"351 659 LINE",
"182 659 OFFCURVE",
"59 554 OFFCURVE",
"59 420 CURVE SMOOTH",
"59 244 OFFCURVE",
"300 247 OFFCURVE",
"300 171 CURVE SMOOTH",
"300 154 OFFCURVE",
"288 136 OFFCURVE",
"245 136 CURVE SMOOTH",
"202 136 OFFCURVE",
"126 162 OFFCURVE",
"66 212 CURVE",
"45 200 LINE",
"-3 26 LINE",
"68 1 OFFCURVE",
"140 -12 OFFCURVE",
"208 -12 CURVE SMOOTH",
"386 -12 OFFCURVE",
"505 95 OFFCURVE",
"505 222 CURVE SMOOTH",
"505 396 OFFCURVE",
"261 399 OFFCURVE",
"261 470 CURVE SMOOTH",
"261 490 OFFCURVE",
"281 505 OFFCURVE",
"314 505 CURVE SMOOTH",
"347 505 OFFCURVE",
"404 484 OFFCURVE",
"457 449 CURVE",
"486 461 LINE",
"536 624 LINE",
"470 650 OFFCURVE",
"404 659 OFFCURVE",
"351 659 CURVE SMOOTH"
);
}
);
width = 529;
}
);
leftKerningGroup = S;
rightKerningGroup = S;
unicode = 0053;
},
{
glyphname = Saltillo;
lastChange = "2016-12-19 13:36:25 +0000";
layers = (
{
layerId = UUID0;
paths = (
{
closed = 1;
nodes = (
"212 616 LINE",
"60 605 LINE",
"37 264 LINE",
"51 250 LINE",
"140 268 LINE",
"221 601 LINE"
);
},
{
closed = 1;
nodes = (
"93 153 LINE"
);
}
);
width = 190;
}
);
leftKerningGroup = uniA78B;
rightKerningGroup = uniA78B;
unicode = A78B;
},
{
glyphname = Germandbls;
lastChange = "2016-12-19 13:36:25 +0000";
layers = (
{
layerId = UUID0;
paths = (
{
closed = 1;
nodes = (
"414 659 LINE",
"207 659 OFFCURVE",
"91 558 OFFCURVE",
"75 404 CURVE SMOOTH",
"53 190 LINE",
"19 0 LINE",
"220 0 LINE",
"238 210 LINE",
"267 404 LINE",
"275 472 OFFCURVE",
"302 501 OFFCURVE",
"374 501 CURVE SMOOTH",
"401 501 OFFCURVE",
"420 497 OFFCURVE",
"442 489 CURVE",
"319 332 LINE",
"321 308 LINE",
"459 225 OFFCURVE",
"497 190 OFFCURVE",
"497 165 CURVE SMOOTH",
"497 148 OFFCURVE",
"485 137 OFFCURVE",
"461 137 CURVE SMOOTH",
"425 137 OFFCURVE",
"373 164 OFFCURVE",
"324 212 CURVE",
"302 200 LINE",
"252 26 LINE",
"305 2 OFFCURVE",
"369 -12 OFFCURVE",
"431 -12 CURVE SMOOTH",
"571 -12 OFFCURVE",
"700 56 OFFCURVE",
"700 205 CURVE SMOOTH",
"700 283 OFFCURVE",
"652 318 OFFCURVE",
"561 392 CURVE",
"697 563 LINE",
"692 586 LINE",
"593 634 OFFCURVE",
"516 659 OFFCURVE",
"414 659 CURVE SMOOTH"
);
}
);
width = 712;
}
);
leftKerningGroup = uni1E9E;
rightKerningGroup = uni1E9E;
unicode = 1E9E;
},
{
glyphname = Schwa;
lastChange = "2016-12-19 13:36:25 +0000";
layers = (
{
layerId = UUID0;
paths = (
{
closed = 1;
nodes = (
"339 656 LINE",
"273 656 OFFCURVE",
"205 645 OFFCURVE",
"136 622 CURVE",
"81 468 LINE",
"98 455 LINE",
"180 483 OFFCURVE",
"249 497 OFFCURVE",
"305 497 CURVE SMOOTH",
"397 497 OFFCURVE",
"439 455 OFFCURVE",
"439 355 CURVE SMOOTH",
"439 216 OFFCURVE",
"396 133 OFFCURVE",
"294 133 CURVE SMOOTH",
"233 133 OFFCURVE",
"201 172 OFFCURVE",
"208 225 CURVE",
"212 244 LINE",
"455 251 LINE",
"470 364 LINE",
"68 361 LINE",
"40 330 LINE",
"26 284 OFFCURVE",
"19 253 OFFCURVE",
"19 217 CURVE SMOOTH",
"19 85 OFFCURVE",
"113 -11 OFFCURVE",
"273 -11 CURVE SMOOTH",
"493 -11 OFFCURVE",
"639 138 OFFCURVE",
"639 369 CURVE SMOOTH",
"639 549 OFFCURVE",
"529 656 OFFCURVE",
"339 656 CURVE SMOOTH"
);
}
);
width = 643;
}
);
unicode = 018F;
},
{
glyphname = T;
lastChange = "2016-12-19 13:36:04 +0000";
layers = (
{
anchors = (
{
name = bottom;
position = "{230, 0}";
},
{
name = center;
position = "{277, 324}";
},
{
name = top;
position = "{309, 647}";
}
);
layerId = UUID0;
paths = (
{
closed = 1;
nodes = (
"408 627 LINE",
"211 627 LINE",
"165 190 LINE",
"131 0 LINE",
"331 0 LINE",
"349 210 LINE"
);
},
{
closed = 1;
nodes = (
"552 647 LINE",
"69 647 LINE",
"40 501 LINE",
"50 487 LINE",
"184 493 LINE",
"401 493 LINE",
"532 487 LINE",
"561 633 LINE"
);
}
);
width = 518;
}
);
leftKerningGroup = T;
rightKerningGroup = T;
unicode = 0054;
},
{
glyphname = Tbar;
lastChange = "2016-12-19 13:36:04 +0000";
layers = (
{
anchors = (
{
name = bottom;
position = "{230, 0}";
},
{
name = center;
position = "{277, 324}";
},
{
name = top;
position = "{309, 647}";
}
);
layerId = UUID0;
paths = (
{
closed = 1;
nodes = (
"448 335 LINE",
"87 335 LINE",
"80 247 LINE",
"92 234 LINE",
"453 234 LINE",
"460 322 LINE"
);
},
{
closed = 1;
nodes = (
"408 627 LINE",
"211 627 LINE",
"165 190 LINE",
"131 0 LINE",
"331 0 LINE",
"349 210 LINE"
);
},
{
closed = 1;
nodes = (
"552 647 LINE",
"69 647 LINE",
"40 501 LINE",
"50 487 LINE",
"184 493 LINE",
"401 493 LINE",
"532 487 LINE",
"561 633 LINE"
);
}
);
width = 518;
}
);
leftKerningGroup = T;
rightKerningGroup = T;
unicode = 0166;
},
{
glyphname = Tcedilla;
lastChange = "2016-12-19 13:36:25 +0000";
layers = (
{
anchors = (
{
name = bottom;
position = "{230, 0}";
},
{
name = center;
position = "{277, 324}";
},
{
name = top;
position = "{309, 647}";
}
);
layerId = UUID0;
paths = (
{
closed = 1;
nodes = (
"408 627 LINE",
"211 627 LINE",
"165 190 LINE",
"131 0 LINE",
"331 0 LINE",
"349 210 LINE"
);
},
{
closed = 1;
nodes = (
"552 647 LINE",
"69 647 LINE",
"40 501 LINE",
"50 487 LINE",
"184 493 LINE",
"401 493 LINE",
"532 487 LINE",
"561 633 LINE"
);
},
{
closed = 1;
nodes = (
"271 0 LINE",
"188 0 LINE",
"172 -78 LINE",
"222 -105 LINE SMOOTH",
"230 -109 OFFCURVE",
"234 -113 OFFCURVE",
"234 -120 CURVE SMOOTH",
"234 -129 OFFCURVE",
"229 -134 OFFCURVE",
"218 -134 CURVE SMOOTH",
"204 -134 OFFCURVE",
"179 -124 OFFCURVE",
"158 -106 CURVE",
"150 -109 LINE",
"139 -184 LINE",
"166 -199 OFFCURVE",
"196 -208 OFFCURVE",
"231 -208 CURVE SMOOTH",
"300 -208 OFFCURVE",
"341 -172 OFFCURVE",
"341 -124 CURVE SMOOTH",
"341 -100 OFFCURVE",
"331 -79 OFFCURVE",
"297 -61 CURVE SMOOTH",
"263 -42 LINE"
);
}
);
width = 518;
}
);
leftKerningGroup = T;
rightKerningGroup = T;
unicode = 0162;
},
{
glyphname = U;
lastChange = "2016-12-19 13:36:04 +0000";
layers = (
{
anchors = (
{
name = bottom;
position = "{298, 0}";
},
{
name = ogonek;
position = "{429, 10}";
},
{
name = top;
position = "{377, 647}";
},
{
name = topright;
position = "{684, 647}";
}
);
layerId = UUID0;
paths = (
{
closed = 1;
nodes = (
"658 647 LINE",
"454 647 LINE",
"414 243 LINE SMOOTH",
"407 175 OFFCURVE",
"377 146 OFFCURVE",
"314 146 CURVE SMOOTH",
"261 146 OFFCURVE",
"238 167 OFFCURVE",
"238 216 CURVE SMOOTH",
"238 224 OFFCURVE",
"239 233 OFFCURVE",
"240 243 CURVE SMOOTH",
"298 647 LINE",
"97 647 LINE",
"63 319 LINE",
"48 216 LINE SMOOTH",
"46 201 OFFCURVE",
"45 186 OFFCURVE",
"45 173 CURVE SMOOTH",
"45 53 OFFCURVE",
"140 -12 OFFCURVE",
"297 -12 CURVE SMOOTH",
"478 -12 OFFCURVE",
"579 69 OFFCURVE",
"598 216 CURVE SMOOTH",
"611 319 LINE"
);
}
);
width = 654;
}
);
leftKerningGroup = U;
rightKerningGroup = U;
unicode = 0055;
},
{
glyphname = Uhorn;
lastChange = "2016-12-19 13:36:04 +0000";
layers = (
{
anchors = (
{
name = bottom;
position = "{306, 0}";
},
{
name = top;
position = "{357, 647}";
}
);
layerId = UUID0;
paths = (
{
closed = 1;
nodes = (
"654 805 LINE",
"621 805 OFFCURVE",
"588 788 OFFCURVE",
"560 768 CURVE",
"557 754 LINE",
"575 739 OFFCURVE",
"586 719 OFFCURVE",
"586 695 CURVE SMOOTH",
"586 661 OFFCURVE",
"570 647 OFFCURVE",
"529 647 CURVE",
"559 556 LINE",
"665 571 OFFCURVE",
"737 636 OFFCURVE",
"737 713 CURVE SMOOTH",
"737 767 OFFCURVE",
"702 805 OFFCURVE",
"654 805 CURVE SMOOTH"
);
},
{
closed = 1;
nodes = (
"658 647 LINE",
"454 647 LINE",
"414 243 LINE SMOOTH",
"407 175 OFFCURVE",
"377 146 OFFCURVE",
"314 146 CURVE SMOOTH",
"261 146 OFFCURVE",
"238 167 OFFCURVE",
"238 216 CURVE SMOOTH",
"238 224 OFFCURVE",
"239 233 OFFCURVE",
"240 243 CURVE SMOOTH",
"298 647 LINE",
"97 647 LINE",
"63 319 LINE",
"48 216 LINE SMOOTH",
"46 201 OFFCURVE",
"45 186 OFFCURVE",
"45 173 CURVE SMOOTH",
"45 53 OFFCURVE",
"140 -12 OFFCURVE",
"297 -12 CURVE SMOOTH",
"478 -12 OFFCURVE",
"579 69 OFFCURVE",
"598 216 CURVE SMOOTH",
"611 319 LINE"
);
}
);
width = 670;
}
);
leftKerningGroup = U;
rightKerningGroup = Uhorn;
unicode = 01AF;
},
{
glyphname = V;
lastChange = "2016-12-19 13:36:04 +0000";
layers = (
{
layerId = UUID0;
paths = (
{
closed = 1;
nodes = (
"670 647 LINE",
"474 647 LINE",
"440 528 LINE",
"306 179 LINE",
"294 179 LINE",
"263 540 LINE",
"258 647 LINE",
"55 647 LINE",
"153 0 LINE",
"395 0 LINE"
);
}
);
width = 616;
}
);
leftKerningGroup = V;
rightKerningGroup = V;
unicode = 0056;
},
{
glyphname = W;
lastChange = "2016-12-19 13:36:04 +0000";
layers = (
{
anchors = (
{
name = top;
position = "{487, 647}";
}
);
layerId = UUID0;
paths = (
{
closed = 1;
nodes = (
"965 647 LINE",
"780 647 LINE",
"748 535 LINE",
"629 202 LINE",
"618 202 LINE",
"590 526 LINE",
"591 647 LINE",
"387 647 LINE",
"403 497 LINE",
"292 202 LINE",
"281 202 LINE",
"261 547 LINE",
"263 647 LINE",
"68 647 LINE",
"140 0 LINE",
"354 0 LINE",
"439 233 LINE",
"450 233 LINE",
"482 0 LINE",
"695 0 LINE"
);
}
);
width = 915;
}
);
leftKerningGroup = V;
rightKerningGroup = V;
unicode = 0057;
},
{
glyphname = X;
lastChange = "2016-12-19 13:36:04 +0000";
layers = (
{
layerId = UUID0;
paths = (
{
closed = 1;
nodes = (
"683 647 LINE",
"474 647 LINE",
"435 577 LINE",
"356 464 LINE",
"312 566 LINE",
"287 647 LINE",
"50 647 LINE",
"203 321 LINE",
"-27 0 LINE",
"176 0 LINE",
"217 69 LINE",
"305 184 LINE",
"350 79 LINE",
"374 0 LINE",
"610 0 LINE",
"460 332 LINE"
);
}
);
width = 635;
}
);
leftKerningGroup = X;
rightKerningGroup = K;
unicode = 0058;
},
{
glyphname = Y;
lastChange = "2016-12-19 13:36:04 +0000";
layers = (
{
anchors = (
{
name = bottom;
position = "{269, 0}";
},
{
name = top;
position = "{348, 647}";
},
{
name = topleft;
position = "{70, 647}";
}
);
layerId = UUID0;
paths = (
{
closed = 1;
nodes = (
"665 647 LINE",
"460 647 LINE",
"430 586 LINE",
"322 398 LINE",
"310 398 LINE",
"261 593 LINE",
"252 647 LINE",
"43 647 LINE",
"238 82 LINE",
"302 82 LINE"
);
},
{
closed = 1;
nodes = (
"394 283 LINE",
"201 283 LINE",
"192 170 LINE",
"162 0 LINE",
"362 0 LINE",
"374 170 LINE"
);
}
);
width = 595;
}
);
leftKerningGroup = Y;
rightKerningGroup = Y;
unicode = 0059;
},
{
glyphname = Z;
lastChange = "2016-12-19 13:36:04 +0000";
layers = (
{
anchors = (
{
name = bottom;
position = "{256, 0}";
},
{
name = top;
position = "{289, 647}";
}
);
layerId = UUID0;
paths = (
{
closed = 1;
nodes = (
"589 648 LINE",
"513 647 LINE",
"239 647 LINE",
"89 650 LINE",
"56 497 LINE",
"62 489 LINE",
"183 499 LINE",
"340 499 LINE",
"16 137 LINE",
"-2 -6 LINE",
"100 0 LINE",
"330 0 LINE",
"507 -5 LINE",
"542 148 LINE",
"537 157 LINE",
"413 148 LINE",
"252 148 LINE",
"571 504 LINE"
);
}
);
width = 570;
}
);
leftKerningGroup = Z;
rightKerningGroup = Z;
unicode = 005A;
},
{
glyphname = Q.corta;
lastChange = "2016-12-19 13:36:25 +0000";
layers = (
{
layerId = UUID0;
paths = (
{
closed = 1;
nodes = (
"380 659 LINE",
"150 659 OFFCURVE",
"24 498 OFFCURVE",
"24 276 CURVE SMOOTH",
"24 78 OFFCURVE",
"129 -12 OFFCURVE",
"299 -12 CURVE SMOOTH",
"529 -12 OFFCURVE",
"655 152 OFFCURVE",
"655 374 CURVE SMOOTH",
"655 571 OFFCURVE",
"550 659 OFFCURVE",
"380 659 CURVE SMOOTH"
);
},
{
closed = 1;
nodes = (
"278 9 LINE",
"351 -63 OFFCURVE",
"435 -129 OFFCURVE",
"520 -192 CURVE",
"535 -185 LINE",
"580 -149 OFFCURVE",
"615 -107 OFFCURVE",
"646 -58 CURVE",
"641 -40 LINE",
"566 -7 OFFCURVE",
"495 32 OFFCURVE",
"423 74 CURVE"
);
},
{
closed = 1;
nodes = (
"357 499 LINE",
"428 499 OFFCURVE",
"443 464 OFFCURVE",
"443 362 CURVE SMOOTH",
"443 170 OFFCURVE",
"390 136 OFFCURVE",
"320 136 CURVE SMOOTH",
"249 136 OFFCURVE",
"234 171 OFFCURVE",
"234 273 CURVE SMOOTH",
"234 465 OFFCURVE",
"287 499 OFFCURVE",
"357 499 CURVE SMOOTH"
);
}
);
width = 662;
}
);
leftKerningGroup = C;
rightKerningGroup = D;
},
{
glyphname = C.ss01;
lastChange = "2016-12-19 13:36:25 +0000";
layers = (
{
anchors = (
{
name = bottom;
position = "{243, 12}";
},
{
name = top;
position = "{307, 500}";
}
);
layerId = UUID0;
paths = (
{
closed = 1;
nodes = (
"335 508 LINE",
"141 508 OFFCURVE",
"26 397 OFFCURVE",
"26 212 CURVE SMOOTH",
"26 77 OFFCURVE",
"104 2 OFFCURVE",
"264 2 CURVE SMOOTH",
"298 2 OFFCURVE",
"334 3 OFFCURVE",
"372 10 CURVE",
"403 149 LINE",
"390 158 LINE",
"362 152 OFFCURVE",
"322 148 OFFCURVE",
"297 148 CURVE SMOOTH",
"241 148 OFFCURVE",
"215 176 OFFCURVE",
"215 242 CURVE SMOOTH",
"215 333 OFFCURVE",
"238 366 OFFCURVE",
"310 366 CURVE SMOOTH",
"338 366 OFFCURVE",
"377 358 OFFCURVE",
"402 346 CURVE",
"415 353 LINE",
"461 493 LINE",
"424 503 OFFCURVE",
"383 508 OFFCURVE",
"335 508 CURVE SMOOTH"
);
},
{
closed = 1;
nodes = (
"526 65 LINE",
"-121 65 LINE",
"-128 0 LINE",
"519 0 LINE"
);
},
{
closed = 1;
nodes = (
"581 513 LINE",
"-66 513 LINE",
"-73 448 LINE",
"574 448 LINE"
);
}
);
width = 448;
}
);
},
{
glyphname = D.ss01;
lastChange = "2016-12-19 13:36:25 +0000";
layers = (
{
anchors = (
{
name = center;
position = "{279, 256}";
},
{
name = top;
position = "{306, 502}";
}
);
layerId = UUID0;
paths = (
{
closed = 1;
nodes = (
"96 502 LINE",
"239 362 LINE",
"268 366 OFFCURVE",
"288 366 OFFCURVE",
"308 366 CURVE SMOOTH",
"348 366 OFFCURVE",
"366 346 OFFCURVE",
"366 282 CURVE SMOOTH",
"366 163 OFFCURVE",
"333 133 OFFCURVE",
"286 133 CURVE SMOOTH",
"266 133 OFFCURVE",
"232 139 OFFCURVE",
"207 144 CURVE",
"36 9 LINE",
"101 5 OFFCURVE",
"181 1 OFFCURVE",
"237 1 CURVE SMOOTH",
"439 1 OFFCURVE",
"555 117 OFFCURVE",
"555 310 CURVE SMOOTH",
"555 435 OFFCURVE",
"480 505 OFFCURVE",
"341 505 CURVE"
);
},
{
closed = 1;
nodes = (
"654 65 LINE",
"-121 65 LINE",
"-128 0 LINE",
"647 0 LINE"
);
},
{
closed = 1;
nodes = (
"278 502 LINE",
"96 502 LINE",
"62 152 LINE",
"36 9 LINE",
"215 9 LINE",
"226 170 LINE"
);
},
{
closed = 1;
nodes = (
"709 513 LINE",
"-66 513 LINE",
"-73 448 LINE",
"702 448 LINE"
);
}
);
width = 576;
}
);
},
{
glyphname = I.ss01;
lastChange = "2016-12-19 13:36:25 +0000";
layers = (
{
anchors = (
{
name = ogonek;
position = "{212, 8}";
},
{
name = top;
position = "{186, 513}";
}
);
layerId = UUID0;
paths = (
{
closed = 1;
nodes = (
"276 513 LINE",
"87 513 LINE",
"52 149 LINE",
"25 0 LINE",
"211 0 LINE",
"223 168 LINE"
);
},
{
closed = 1;
nodes = (
"382 65 LINE",
"-121 65 LINE",
"-128 0 LINE",
"375 0 LINE"
);
},
{
closed = 1;
nodes = (
"437 513 LINE",
"-66 513 LINE",
"-73 448 LINE",
"430 448 LINE"
);
}
);
width = 304;
}
);
},
{
glyphname = L.ss01;
lastChange = "2016-12-19 13:36:25 +0000";
layers = (
{
layerId = UUID0;
paths = (
{
closed = 1;
nodes = (
"270 509 LINE",
"85 509 LINE",
"50 152 LINE",
"23 6 LINE",
"408 6 LINE",
"443 230 LINE",
"325 230 LINE",
"300 154 LINE",
"217 154 LINE",
"219 171 LINE"
);
},
{
closed = 1;
nodes = (
"531 65 LINE",
"-121 65 LINE",
"-128 0 LINE",
"524 0 LINE"
);
},
{
closed = 1;
nodes = (
"586 513 LINE",
"-66 513 LINE",
"-73 448 LINE",
"579 448 LINE"
);
}
);
width = 453;
}
);
},
{
glyphname = M.ss01;
lastChange = "2016-12-19 13:36:25 +0000";
layers = (
{
layerId = UUID0;
paths = (
{
closed = 1;
nodes = (
"632 489 LINE",
"432 489 LINE",
"407 427 LINE",
"359 318 LINE",
"349 318 LINE",
"333 433 LINE",
"328 489 LINE",
"123 489 LINE",
"16 11 LINE",
"164 11 LINE",
"191 192 LINE",
"204 258 LINE",
"214 258 LINE",
"250 93 LINE",
"382 93 LINE",
"473 258 LINE",
"482 258 LINE",
"476 178 LINE",
"457 11 LINE",
"612 11 LINE"
);
},
{
closed = 1;
nodes = (
"770 65 LINE",
"-121 65 LINE",
"-128 0 LINE",
"763 0 LINE"
);
},
{
closed = 1;
nodes = (
"825 513 LINE",
"-66 513 LINE",
"-73 448 LINE",
"818 448 LINE"
);
}
);
width = 692;
}
);
},
{
glyphname = V.ss01;
lastChange = "2016-12-19 13:36:25 +0000";
layers = (
{
layerId = UUID0;
paths = (
{
closed = 1;
nodes = (
"558 500 LINE",
"386 500 LINE",
"357 399 LINE",
"268 167 LINE",
"257 167 LINE",
"239 410 LINE",
"234 500 LINE",
"57 500 LINE",
"133 12 LINE",
"346 12 LINE"
);
},
{
closed = 1;
nodes = (
"619 65 LINE",
"-121 65 LINE",
"-128 0 LINE",
"612 0 LINE"
);
},
{
closed = 1;
nodes = (
"674 513 LINE",
"-66 513 LINE",
"-73 448 LINE",
"667 448 LINE"
);
}
);
width = 541;
}
);
},
{
glyphname = X.ss01;
lastChange = "2016-12-19 13:36:25 +0000";
layers = (
{
layerId = UUID0;
paths = (
{
closed = 1;
nodes = (
"550 480 LINE",
"380 480 LINE",
"351 428 LINE",
"307 369 LINE",
"281 419 LINE",
"261 480 LINE",
"66 480 LINE",
"183 250 LINE",
"18 38 LINE",
"185 38 LINE",
"215 89 LINE",
"266 147 LINE",
"291 97 LINE",
"309 38 LINE",
"503 38 LINE",
"392 269 LINE"
);
},
{
closed = 1;
nodes = (
"634 65 LINE",
"-121 65 LINE",
"-128 0 LINE",
"627 0 LINE"
);
},
{
closed = 1;
nodes = (
"689 513 LINE",
"-66 513 LINE",
"-73 448 LINE",
"682 448 LINE"
);
}
);
width = 556;
}
);
},
{
glyphname = a;
lastChange = "2016-12-19 13:36:04 +0000";
layers = (
{
anchors = (
{
name = bottom;
position = "{215, 0}";
},
{
name = ogonek;
position = "{422, 7}";
},
{
name = top;
position = "{266, 472}";
}
);
layerId = UUID0;
paths = (
{
closed = 1;
nodes = (
"462 484 LINE",
"298 450 LINE",
"291 349 LINE",
"244 -4 LINE",
"422 7 LINE",
"426 116 LINE",
"473 476 LINE"
);
},
{
closed = 1;
nodes = (
"217 244 LINE"
);
},
{
closed = 1;
nodes = (
"248 478 LINE",
"81 422 OFFCURVE",
"8 278 OFFCURVE",
"8 157 CURVE SMOOTH",
"8 76 OFFCURVE",
"35 16 OFFCURVE",
"146 -11 CURVE",
"169 -11 LINE",
"199 25 OFFCURVE",
"222 64 OFFCURVE",
"243 105 CURVE",
"262 105 LINE",
"301 348 LINE",
"250 215 OFFCURVE",
"217 153 OFFCURVE",
"194 153 CURVE SMOOTH",
"181 153 OFFCURVE",
"173 175 OFFCURVE",
"173 232 CURVE SMOOTH",
"173 308 OFFCURVE",
"188 347 OFFCURVE",
"221 347 CURVE",
"341 317 LINE",
"437 447 LINE",
"255 478 LINE"
);
}
);
width = 488;
}
);
leftKerningGroup = a;
rightKerningGroup = a;
unicode = 0061;
},
{
glyphname = ae;
lastChange = "2016-12-19 13:36:04 +0000";
layers = (
{
anchors = (
{
name = bottom;
position = "{702, 0}";
},
{
name = ogonek;
position = "{435, 10}";
},
{
name = top;
position = "{382, 472}";
}
);
layerId = UUID0;
paths = (
{
closed = 1;
nodes = (
"256 478 LINE",
"249 478 LINE",
"83 423 OFFCURVE",
"8 282 OFFCURVE",
"8 154 CURVE SMOOTH",
"8 82 OFFCURVE",
"32 16 OFFCURVE",
"145 -11 CURVE",
"168 -11 LINE",
"208 37 OFFCURVE",
"242 89 OFFCURVE",
"271 143 CURVE",
"272 138 OFFCURVE",
"274 130 OFFCURVE",
"275 126 CURVE SMOOTH",
"298 49 OFFCURVE",
"343 2 OFFCURVE",
"457 -11 CURVE",
"473 -11 LINE",
"540 8 OFFCURVE",
"607 48 OFFCURVE",
"660 112 CURVE",
"604 183 LINE",
"582 186 LINE",
"553 142 OFFCURVE",
"523 123 OFFCURVE",
"487 123 CURVE SMOOTH",
"459 123 OFFCURVE",
"446 135 OFFCURVE",
"439 161 CURVE SMOOTH",
"437 169 OFFCURVE",
"436 173 OFFCURVE",
"435 178 CURVE",
"618 223 OFFCURVE",
"680 277 OFFCURVE",
"680 355 CURVE SMOOTH",
"680 429 OFFCURVE",
"627 469 OFFCURVE",
"558 482 CURVE",
"542 484 LINE",
"493 481 OFFCURVE",
"450 470 OFFCURVE",
"412 451 CURVE"
);
},
{
closed = 1;
nodes = (
"297 330 LINE",
"291 317 OFFCURVE",
"294 328 OFFCURVE",
"287 310 CURVE SMOOTH",
"245 206 OFFCURVE",
"213 151 OFFCURVE",
"192 151 CURVE SMOOTH",
"179 151 OFFCURVE",
"170 172 OFFCURVE",
"170 229 CURVE SMOOTH",
"170 307 OFFCURVE",
"187 349 OFFCURVE",
"223 349 CURVE"
);
},
{
closed = 1;
nodes = (
"497 372 LINE",
"517 372 OFFCURVE",
"526 364 OFFCURVE",
"526 344 CURVE SMOOTH",
"526 308 OFFCURVE",
"500 289 OFFCURVE",
"433 274 CURVE",
"438 341 OFFCURVE",
"458 372 OFFCURVE",
"497 372 CURVE SMOOTH"
);
}
);
width = 683;
}
);
leftKerningGroup = a;
rightKerningGroup = ae;
unicode = 00E6;
},
{
glyphname = b;
lastChange = "2016-12-19 13:36:04 +0000";
layers = (
{
anchors = (
{
name = bottom;
position = "{216, 0}";
},
{
name = top;
position = "{274, 472}";
}
);
layerId = UUID0;
paths = (
{
closed = 1;
nodes = (
"322 478 LINE",
"292 441 OFFCURVE",
"266 400 OFFCURVE",
"244 358 CURVE",
"215 358 LINE",
"184 123 LINE",
"238 253 OFFCURVE",
"274 320 OFFCURVE",
"298 320 CURVE SMOOTH",
"309 320 OFFCURVE",
"318 297 OFFCURVE",
"318 238 CURVE SMOOTH",
"318 165 OFFCURVE",
"304 119 OFFCURVE",
"274 119 CURVE",
"145 153 LINE",
"49 23 LINE",
"240 -11 LINE",
"247 -11 LINE",
"405 42 OFFCURVE",
"482 184 OFFCURVE",
"482 311 CURVE SMOOTH",
"482 397 OFFCURVE",
"450 452 OFFCURVE",
"345 478 CURVE"
);
},
{
closed = 1;
nodes = (
"274 704 LINE",
"96 693 LINE",
"92 580 LINE",
"19 27 LINE",
"188 -1 LINE",
"196 115 LINE",
"211 228 LINE"
);
}
);
width = 490;
}
);
leftKerningGroup = b;
rightKerningGroup = b;
unicode = 0062;
},
{
glyphname = c;
lastChange = "2016-12-19 13:36:04 +0000";
layers = (
{
anchors = (
{
name = bottom;
position = "{197, 0}";
},
{
name = top;
position = "{245, 472}";
}
);
layerId = UUID0;
paths = (
{
closed = 1;
nodes = (
"293 481 LINE",
"121 481 OFFCURVE",
"10 362 OFFCURVE",
"10 183 CURVE SMOOTH",
"10 64 OFFCURVE",
"59 7 OFFCURVE",
"171 -10 CURVE",
"194 -10 LINE",
"269 17 OFFCURVE",
"313 55 OFFCURVE",
"357 130 CURVE",
"303 195 LINE",
"280 196 LINE",
"249 154 OFFCURVE",
"234 142 OFFCURVE",
"214 142 CURVE SMOOTH",
"190 142 OFFCURVE",
"182 160 OFFCURVE",
"182 219 CURVE SMOOTH",
"182 307 OFFCURVE",
"200 345 OFFCURVE",
"243 345 CURVE SMOOTH",
"262 345 OFFCURVE",
"271 338 OFFCURVE",
"296 306 CURVE",
"335 307 LINE",
"386 437 LINE",
"382 455 LINE"
);
}
);
width = 379;
}
);
leftKerningGroup = a;
rightKerningGroup = c;
unicode = 0063;
},
{
glyphname = d;
lastChange = "2016-12-19 13:36:04 +0000";
layers = (
{
anchors = (
{
name = bottom;
position = "{214, 0}";
},
{
name = center;
position = "{481, 236}";
},
{
name = top;
position = "{357, 472}";
},
{
name = topright;
position = "{618, 352}";
}
);
layerId = UUID0;
paths = (
{
closed = 1;
nodes = (
"258 478 LINE",
"251 478 LINE",
"82 422 OFFCURVE",
"7 277 OFFCURVE",
"7 155 CURVE SMOOTH",
"7 75 OFFCURVE",
"34 16 OFFCURVE",
"144 -11 CURVE",
"167 -11 LINE",
"197 25 OFFCURVE",
"222 66 OFFCURVE",
"244 107 CURVE",
"263 107 LINE",
"304 348 LINE",
"250 214 OFFCURVE",
"215 151 OFFCURVE",
"192 151 CURVE SMOOTH",
"180 151 OFFCURVE",
"171 173 OFFCURVE",
"171 228 CURVE SMOOTH",
"171 307 OFFCURVE",
"188 348 OFFCURVE",
"223 348 CURVE",
"343 318 LINE",
"439 447 LINE"
);
},
{
closed = 1;
nodes = (
"502 704 LINE",
"324 693 LINE",
"320 580 LINE",
"242 -4 LINE",
"420 7 LINE",
"424 116 LINE"
);
}
);
width = 486;
}
);
leftKerningGroup = a;
rightKerningGroup = d;
unicode = 0064;
},
{
glyphname = eth;
lastChange = "2016-12-19 13:36:04 +0000";
layers = (
{
layerId = UUID0;
paths = (
{
closed = 1;
nodes = (
"198 712 LINE",
"70 626 LINE",
"67 606 LINE",
"247 517 OFFCURVE",
"304 447 OFFCURVE",
"304 291 CURVE",
"304 167 OFFCURVE",
"293 116 OFFCURVE",
"229 116 CURVE SMOOTH",
"205 116 OFFCURVE",
"196 130 OFFCURVE",
"196 176 CURVE SMOOTH",
"196 301 OFFCURVE",
"208 349 OFFCURVE",
"272 349 CURVE SMOOTH",
"288 349 OFFCURVE",
"298 342 OFFCURVE",
"305 324 CURVE",
"427 421 LINE",
"397 445 OFFCURVE",
"355 461 OFFCURVE",
"306 469 CURVE",
"290 471 LINE",
"132 461 OFFCURVE",
"32 353 OFFCURVE",
"32 180 CURVE SMOOTH",
"32 71 OFFCURVE",
"89 11 OFFCURVE",
"179 -10 CURVE",
"195 -12 LINE",
"365 -3 OFFCURVE",
"470 110 OFFCURVE",
"470 301 CURVE",
"475 459 OFFCURVE",
"390 606 OFFCURVE",
"207 712 CURVE"
);
},
{
closed = 1;
nodes = (
"402 720 LINE",
"48 513 LINE",
"76 446 LINE",
"89 442 LINE",
"445 648 LINE",
"416 716 LINE"
);
}
);
width = 493;
}
);
leftKerningGroup = eth;
rightKerningGroup = eth;
unicode = 00F0;
},
{
glyphname = dcroat;
lastChange = "2016-12-19 13:36:04 +0000";
layers = (
{
anchors = (
{
name = bottom;
position = "{214, 0}";
},
{
name = center;
position = "{481, 236}";
},
{
name = top;
position = "{357, 472}";
},
{
name = topright;
position = "{618, 352}";
}
);
layerId = UUID0;
paths = (
{
closed = 1;
nodes = (
"549 625 LINE",
"200 625 LINE",
"193 537 LINE",
"205 524 LINE",
"554 524 LINE",
"561 612 LINE"
);
},
{
closed = 1;
nodes = (
"258 478 LINE",
"251 478 LINE",
"82 422 OFFCURVE",
"7 277 OFFCURVE",
"7 155 CURVE SMOOTH",
"7 75 OFFCURVE",
"34 16 OFFCURVE",
"144 -11 CURVE",
"167 -11 LINE",
"197 25 OFFCURVE",
"222 66 OFFCURVE",
"244 107 CURVE",
"263 107 LINE",
"304 348 LINE",
"250 214 OFFCURVE",
"215 151 OFFCURVE",
"192 151 CURVE SMOOTH",
"180 151 OFFCURVE",
"171 173 OFFCURVE",
"171 228 CURVE SMOOTH",
"171 307 OFFCURVE",
"188 348 OFFCURVE",
"223 348 CURVE",
"343 318 LINE",
"439 447 LINE"
);
},
{
closed = 1;
nodes = (
"502 704 LINE",
"324 693 LINE",
"320 580 LINE",
"242 -4 LINE",
"420 7 LINE",
"424 116 LINE"
);
}
);
width = 498;
}
);
leftKerningGroup = a;
rightKerningGroup = d;
unicode = 0111;
},
{
glyphname = e;
lastChange = "2016-12-19 13:36:04 +0000";
layers = (
{
anchors = (
{
name = bottom;
position = "{212, 0}";
},
{
name = ogonek;
position = "{322, 40}";
},
{
name = top;
position = "{240, 472}";
}
);
layerId = UUID0;
paths = (
{
closed = 1;
nodes = (
"148 170 LINE",
"345 215 OFFCURVE",
"423 267 OFFCURVE",
"423 354 CURVE SMOOTH",
"423 422 OFFCURVE",
"380 467 OFFCURVE",
"301 482 CURVE",
"285 484 LINE",
"116 474 OFFCURVE",
"10 358 OFFCURVE",
"10 183 CURVE",
"10 65 OFFCURVE",
"71 3 OFFCURVE",
"200 -11 CURVE",
"216 -11 LINE",
"290 11 OFFCURVE",
"355 54 OFFCURVE",
"403 112 CURVE",
"350 179 LINE",
"330 183 LINE",
"275 136 OFFCURVE",
"254 125 OFFCURVE",
"229 125 CURVE SMOOTH",
"191 125 OFFCURVE",
"176 157 OFFCURVE",
"176 234 CURVE SMOOTH",
"176 329 OFFCURVE",
"195 371 OFFCURVE",
"239 371 CURVE SMOOTH",
"258 371 OFFCURVE",
"266 363 OFFCURVE",
"266 343 CURVE SMOOTH",
"266 304 OFFCURVE",
"237 286 OFFCURVE",
"148 270 CURVE"
);
}
);
width = 435;
}
);
leftKerningGroup = a;
rightKerningGroup = ae;
unicode = 0065;
},
{
glyphname = f;
lastChange = "2016-12-19 13:36:04 +0000";
layers = (
{
layerId = UUID0;
paths = (
{
closed = 1;
nodes = (
"370 702 LINE",
"218 702 OFFCURVE",
"123 624 OFFCURVE",
"106 466 CURVE SMOOTH",
"77 190 LINE",
"38 -108 LINE",
"216 -97 LINE",
"220 12 LINE",
"245 210 LINE",
"288 508 LINE SMOOTH",
"295 555 OFFCURVE",
"311 574 OFFCURVE",
"339 574 CURVE SMOOTH",
"358 574 OFFCURVE",
"382 566 OFFCURVE",
"422 545 CURVE",
"445 553 LINE",
"493 674 LINE",
"484 688 LINE"
);
},
{
closed = 1;
nodes = (
"375 463 LINE",
"37 463 LINE",
"25 373 LINE",
"33 362 LINE",
"374 362 LINE",
"387 449 LINE"
);
}
);
width = 337;
}
);
leftKerningGroup = f;
rightKerningGroup = f;
unicode = 0066;
},
{
glyphname = g;
lastChange = "2016-12-19 13:36:04 +0000";
layers = (
{
anchors = (
{
name = top;
position = "{275, 472}";
}
);
layerId = UUID0;
paths = (
{
closed = 1;
nodes = (
"456 484 LINE",
"302 451 LINE",
"298 358 LINE",
"250 -1 LINE SMOOTH",
"246 -51 OFFCURVE",
"216 -72 OFFCURVE",
"178 -72 CURVE SMOOTH",
"141 -72 OFFCURVE",
"129 -51 OFFCURVE",
"129 -32 CURVE SMOOTH",
"129 -23 OFFCURVE",
"132 -14 OFFCURVE",
"145 -3 CURVE SMOOTH",
"167 17 LINE",
"88 76 LINE",
"84 35 LINE",
"-48 -20 LINE",
"-52 -31 LINE",
"-39 -121 OFFCURVE",
"19 -196 OFFCURVE",
"147 -196 CURVE SMOOTH",
"281 -196 OFFCURVE",
"397 -113 OFFCURVE",
"418 50 CURVE",
"421 133 LINE",
"467 476 LINE"
);
},
{
closed = 1;
nodes = (
"264 479 LINE",
"258 479 LINE",
"104 429 OFFCURVE",
"27 303 OFFCURVE",
"27 179 CURVE SMOOTH",
"27 105 OFFCURVE",
"54 43 OFFCURVE",
"154 17 CURVE",
"167 17 LINE",
"200 51 OFFCURVE",
"229 90 OFFCURVE",
"255 133 CURVE",
"273 133 LINE",
"309 357 LINE",
"257 228 OFFCURVE",
"221 168 OFFCURVE",
"199 168 CURVE SMOOTH",
"186 168 OFFCURVE",
"177 187 OFFCURVE",
"177 240 CURVE SMOOTH",
"177 317 OFFCURVE",
"196 358 OFFCURVE",
"233 358 CURVE",
"347 331 LINE",
"434 449 LINE"
);
}
);
width = 481;
}
);
leftKerningGroup = g;
rightKerningGroup = g;
unicode = 0067;
},
{
glyphname = h;
lastChange = "2016-12-19 13:36:04 +0000";
layers = (
{
anchors = (
{
name = bottom;
position = "{235, 0}";
},
{
name = center;
position = "{294, 236}";
},
{
name = top;
position = "{178, 700}";
}
);
layerId = UUID0;
paths = (
{
closed = 1;
nodes = (
"357 473 LINE",
"317 435 OFFCURVE",
"281 393 OFFCURVE",
"244 346 CURVE",
"224 346 LINE",
"189 156 LINE",
"244 252 OFFCURVE",
"286 291 OFFCURVE",
"307 291 CURVE SMOOTH",
"318 291 OFFCURVE",
"324 285 OFFCURVE",
"324 269 CURVE",
"322 259 LINE",
"280 -4 LINE",
"462 7 LINE",
"466 119 LINE",
"504 349 LINE",
"505 363 LINE",
"506 418 OFFCURVE",
"454 460 OFFCURVE",
"370 474 CURVE"
);
},
{
closed = 1;
nodes = (
"275 704 LINE",
"96 693 LINE",
"93 580 LINE",
"14 -4 LINE",
"193 7 LINE",
"196 116 LINE"
);
}
);
width = 528;
}
);
leftKerningGroup = b;
rightKerningGroup = a;
unicode = 0068;
},
{
glyphname = hbar;
lastChange = "2016-12-19 13:36:04 +0000";
layers = (
{
anchors = (
{
name = bottom;
position = "{275, 0}";
},
{
name = center;
position = "{334, 236}";
},
{
name = top;
position = "{218, 700}";
}
);
layerId = UUID0;
paths = (
{
closed = 1;
nodes = (
"405 625 LINE",
"56 625 LINE",
"49 537 LINE",
"61 524 LINE",
"410 524 LINE",
"417 612 LINE"
);
},
{
closed = 1;
nodes = (
"397 473 LINE",
"357 435 OFFCURVE",
"321 393 OFFCURVE",
"284 346 CURVE",
"264 346 LINE",
"229 156 LINE",
"284 252 OFFCURVE",
"326 291 OFFCURVE",
"347 291 CURVE SMOOTH",
"358 291 OFFCURVE",
"364 285 OFFCURVE",
"364 269 CURVE",
"362 259 LINE",
"320 -4 LINE",
"502 7 LINE",
"506 119 LINE",
"544 349 LINE",
"545 363 LINE",
"546 418 OFFCURVE",
"494 460 OFFCURVE",
"410 474 CURVE"
);
},
{
closed = 1;
nodes = (
"315 704 LINE",
"136 693 LINE",
"133 580 LINE",
"54 -4 LINE",
"233 7 LINE",
"236 116 LINE"
);
}
);
width = 563;
}
);
leftKerningGroup = b;
rightKerningGroup = a;
unicode = 0127;
},
{
glyphname = idotless;
lastChange = "2016-12-19 13:36:25 +0000";
layers = (
{
anchors = (
{
name = bottom;
position = "{101, 0}";
},
{
name = ogonek;
position = "{193, 7}";
},
{
name = top;
position = "{156, 472}";
}
);
layerId = UUID0;
paths = (
{
closed = 1;
nodes = (
"244 476 LINE",
"66 465 LINE",
"62 352 LINE",
"15 -4 LINE",
"193 7 LINE",
"198 116 LINE"
);
}
);
width = 260;
}
);
leftKerningGroup = i;
rightKerningGroup = d;
unicode = 0131;
},
{
glyphname = jdotless;
lastChange = "2016-12-19 13:36:25 +0000";
layers = (
{
anchors = (
{
name = top;
position = "{160, 472}";
}
);
layerId = UUID0;
paths = (
{
closed = 1;
nodes = (
"263 476 LINE",
"97 463 LINE",
"24 463 LINE",
"11 373 LINE",
"18 362 LINE",
"81 362 LINE",
"83 347 LINE",
"40 26 LINE SMOOTH",
"31 -35 OFFCURVE",
"2 -74 OFFCURVE",
"-51 -99 CURVE",
"-53 -115 LINE",
"3 -195 LINE",
"133 -143 OFFCURVE",
"197 -71 OFFCURVE",
"210 36 CURVE",
"218 118 LINE",
"267 472 LINE"
);
}
);
width = 287;
}
);
leftKerningGroup = j;
rightKerningGroup = ij;
unicode = 0237;
},
{
glyphname = k;
lastChange = "2016-12-19 13:36:04 +0000";
layers = (
{
anchors = (
{
name = bottom;
position = "{242, 0}";
},
{
name = top;
position = "{132, 472}";
},
{
name = topright;
position = "{252, 472}";
}
);
layerId = UUID0;
paths = (
{
closed = 1;
nodes = (
"369 473 LINE",
"326 435 OFFCURVE",
"283 393 OFFCURVE",
"244 346 CURVE",
"224 346 LINE",
"189 156 LINE",
"245 255 OFFCURVE",
"293 294 OFFCURVE",
"319 294 CURVE SMOOTH",
"328 294 OFFCURVE",
"335 287 OFFCURVE",
"335 277 CURVE SMOOTH",
"335 255 OFFCURVE",
"302 218 OFFCURVE",
"260 193 CURVE",
"254 170 LINE",
"270 112 OFFCURVE",
"292 54 OFFCURVE",
"314 -4 CURVE",
"331 -12 LINE",
"481 7 LINE",
"490 20 LINE",
"462 72 OFFCURVE",
"434 126 OFFCURVE",
"410 180 CURVE",
"469 224 OFFCURVE",
"516 281 OFFCURVE",
"516 349 CURVE SMOOTH",
"516 422 OFFCURVE",
"461 460 OFFCURVE",
"382 474 CURVE"
);
},
{
closed = 1;
nodes = (
"275 704 LINE",
"96 693 LINE",
"93 580 LINE",
"14 -4 LINE",
"193 7 LINE",
"196 116 LINE"
);
}
);
width = 541;
}
);
leftKerningGroup = b;
rightKerningGroup = k;
unicode = 006B;
},
{
glyphname = kgreenlandic;
lastChange = "2016-12-19 13:36:04 +0000";
layers = (
{
anchors = (
{
name = ogonek;
position = "{204, 10}";
},
{
name = top;
position = "{156, 472}";
}
);
layerId = UUID0;
paths = (
{
closed = 1;
nodes = (
"368 473 LINE",
"324 435 OFFCURVE",
"281 393 OFFCURVE",
"241 346 CURVE",
"221 346 LINE",
"186 156 LINE",
"243 255 OFFCURVE",
"292 294 OFFCURVE",
"318 294 CURVE SMOOTH",
"328 294 OFFCURVE",
"335 287 OFFCURVE",
"335 277 CURVE SMOOTH",
"335 255 OFFCURVE",
"301 218 OFFCURVE",
"258 193 CURVE",
"252 170 LINE",
"269 112 OFFCURVE",
"291 54 OFFCURVE",
"314 -4 CURVE",
"331 -12 LINE",
"481 7 LINE",
"490 20 LINE",
"461 72 OFFCURVE",
"433 126 OFFCURVE",
"408 180 CURVE",
"468 224 OFFCURVE",
"516 281 OFFCURVE",
"516 349 CURVE SMOOTH",
"516 422 OFFCURVE",
"461 460 OFFCURVE",
"381 474 CURVE"
);
},
{
closed = 1;
nodes = (
"244 476 LINE",
"66 465 LINE",
"62 352 LINE",
"15 -4 LINE",
"193 7 LINE",
"198 116 LINE"
);
}
);
width = 538;
}
);
leftKerningGroup = b;
rightKerningGroup = k;
unicode = 0138;
},
{
glyphname = l;
lastChange = "2016-12-19 13:36:04 +0000";
layers = (
{
anchors = (
{
name = bottom;
position = "{105, 0}";
},
{
name = top;
position = "{183, 700}";
},
{
name = topright;
position = "{393, 352}";
}
);
layerId = UUID0;
paths = (
{
closed = 1;
nodes = (
"278 704 LINE",
"99 693 LINE",
"96 580 LINE",
"17 -4 LINE",
"196 7 LINE",
"199 116 LINE"
);
}
);
width = 267;
}
);
leftKerningGroup = b;
rightKerningGroup = d;
unicode = 006C;
},
{
glyphname = ldot;
lastChange = "2016-12-19 13:36:04 +0000";
layers = (
{
anchors = (
{
name = bottom;
position = "{105, 0}";
},
{
name = top;
position = "{183, 700}";
},
{
name = topright;
position = "{393, 352}";
}
);
layerId = UUID0;
paths = (
{
closed = 1;
nodes = (
"181 -78 LINE"
);
},
{
closed = 1;
nodes = (
"278 704 LINE",
"99 693 LINE",
"96 580 LINE",
"17 -4 LINE",
"196 7 LINE",
"199 116 LINE"
);
},
{
closed = 1;
nodes = (
"344 417 LINE",
"281 417 OFFCURVE",
"242 377 OFFCURVE",
"242 313 CURVE SMOOTH",
"242 252 OFFCURVE",
"275 218 OFFCURVE",
"336 218 CURVE SMOOTH",
"398 218 OFFCURVE",
"437 258 OFFCURVE",
"437 322 CURVE SMOOTH",
"437 382 OFFCURVE",
"403 417 OFFCURVE",
"344 417 CURVE SMOOTH"
);
}
);
width = 397;
}
);
leftKerningGroup = b;
rightKerningGroup = d;
unicode = 0140;
},
{
glyphname = lslash;
lastChange = "2016-12-19 13:36:04 +0000";
layers = (
{
anchors = (
{
name = bottom;
position = "{139, 0}";
},
{
name = top;
position = "{217, 700}";
},
{
name = topright;
position = "{304, 472}";
}
);
layerId = UUID0;
paths = (
{
closed = 1;
nodes = (
"342 479 LINE",
"212 417 LINE",
"215 440 LINE",
"-10 334 LINE",
"14 229 LINE",
"24 227 LINE",
"203 311 LINE",
"200 288 LINE",
"375 371 LINE",
"351 475 LINE"
);
},
{
closed = 1;
nodes = (
"312 704 LINE",
"133 693 LINE",
"130 580 LINE",
"51 -4 LINE",
"230 7 LINE",
"233 116 LINE"
);
}
);
width = 338;
}
);
leftKerningGroup = lslash;
rightKerningGroup = lslash;
unicode = 0142;
},
{
glyphname = m;
lastChange = "2016-12-19 13:36:04 +0000";
layers = (
{
anchors = (
{
name = bottom;
position = "{370, 0}";
},
{
name = top;
position = "{428, 472}";
}
);
layerId = UUID0;
paths = (
{
closed = 1;
nodes = (
"627 473 LINE",
"588 435 OFFCURVE",
"551 393 OFFCURVE",
"515 346 CURVE",
"495 346 LINE",
"460 156 LINE",
"514 252 OFFCURVE",
"556 291 OFFCURVE",
"578 291 CURVE SMOOTH",
"588 291 OFFCURVE",
"594 285 OFFCURVE",
"594 269 CURVE",
"593 259 LINE",
"550 -4 LINE",
"733 7 LINE",
"736 119 LINE",
"774 349 LINE",
"775 363 LINE",
"776 418 OFFCURVE",
"724 460 OFFCURVE",
"640 474 CURVE"
);
},
{
closed = 1;
nodes = (
"244 476 LINE",
"66 465 LINE",
"62 352 LINE",
"15 -4 LINE",
"193 7 LINE",
"197 116 LINE"
);
},
{
closed = 1;
nodes = (
"356 473 LINE",
"316 435 OFFCURVE",
"280 393 OFFCURVE",
"243 346 CURVE",
"223 346 LINE",
"188 156 LINE",
"243 252 OFFCURVE",
"285 291 OFFCURVE",
"306 291 CURVE SMOOTH",
"316 291 OFFCURVE",
"322 285 OFFCURVE",
"322 269 CURVE",
"321 259 LINE",
"278 -4 LINE",
"461 7 LINE",
"464 119 LINE",
"502 349 LINE",
"503 363 LINE",
"504 418 OFFCURVE",
"453 460 OFFCURVE",
"369 474 CURVE"
);
}
);
width = 799;
}
);
leftKerningGroup = m;
rightKerningGroup = a;
unicode = 006D;
},
{
glyphname = n;
lastChange = "2016-12-19 13:36:04 +0000";
layers = (
{
anchors = (
{
name = bottom;
position = "{234, 0}";
},
{
name = top;
position = "{292, 472}";
}
);
layerId = UUID0;
paths = (
{
closed = 1;
nodes = (
"277 -4 LINE",
"460 7 LINE",
"464 119 LINE",
"502 349 LINE",
"503 363 LINE",
"504 418 OFFCURVE",
"441 460 OFFCURVE",
"368 474 CURVE",
"355 473 LINE",
"315 435 OFFCURVE",
"279 393 OFFCURVE",
"242 346 CURVE",
"222 346 LINE",
"187 156 LINE",
"242 252 OFFCURVE",
"284 291 OFFCURVE",
"305 291 CURVE SMOOTH",
"316 291 OFFCURVE",
"322 285 OFFCURVE",
"322 269 CURVE",
"321 259 LINE"
);
},
{
closed = 1;
nodes = (
"15 -4 LINE",
"193 7 LINE",
"197 116 LINE",
"244 476 LINE",
"66 465 LINE",
"62 352 LINE"
);
}
);
width = 526;
}
);
leftKerningGroup = m;
rightKerningGroup = a;
unicode = 006E;
},
{
glyphname = eng;
lastChange = "2016-12-19 13:36:04 +0000";
layers = (
{
layerId = UUID0;
paths = (
{
closed = 1;
nodes = (
"231 117 LINE"
);
},
{
closed = 1;
nodes = (
"66 465 LINE",
"62 352 LINE",
"15 -4 LINE",
"193 7 LINE",
"197 116 LINE",
"244 476 LINE"
);
},
{
closed = 1;
nodes = (
"355 473 LINE",
"315 435 OFFCURVE",
"279 393 OFFCURVE",
"242 346 CURVE",
"222 346 LINE",
"187 156 LINE",
"242 252 OFFCURVE",
"284 291 OFFCURVE",
"305 291 CURVE SMOOTH",
"316 291 OFFCURVE",
"322 285 OFFCURVE",
"322 269 CURVE",
"321 259 LINE",
"283 24 LINE",
"463 116 LINE",
"502 349 LINE",
"503 363 LINE",
"504 418 OFFCURVE",
"441 460 OFFCURVE",
"368 474 CURVE"
);
},
{
closed = 1;
nodes = (
"463 116 LINE",
"283 24 LINE",
"274 -37 OFFCURVE",
"245 -76 OFFCURVE",
"196 -101 CURVE",
"194 -117 LINE",
"247 -197 LINE",
"374 -145 OFFCURVE",
"438 -73 OFFCURVE",
"453 34 CURVE"
);
}
);
width = 540;
}
);
leftKerningGroup = m;
rightKerningGroup = ij;
unicode = 014B;
},
{
glyphname = o;
lastChange = "2016-12-19 13:36:04 +0000";
layers = (
{
anchors = (
{
name = bottom;
position = "{206, 0}";
},
{
name = center;
position = "{235, 236}";
},
{
name = ogonek;
position = "{342, 45}";
},
{
name = top;
position = "{267, 472}";
},
{
name = topright;
position = "{478, 472}";
}
);
layerId = UUID0;
paths = (
{
closed = 1;
nodes = (
"290 484 LINE",
"119 474 OFFCURVE",
"12 361 OFFCURVE",
"12 183 CURVE SMOOTH",
"12 72 OFFCURVE",
"70 11 OFFCURVE",
"162 -10 CURVE",
"178 -12 LINE",
"350 -3 OFFCURVE",
"457 109 OFFCURVE",
"457 301 CURVE SMOOTH",
"457 404 OFFCURVE",
"396 462 OFFCURVE",
"306 482 CURVE"
);
},
{
closed = 1;
nodes = (
"255 347 LINE",
"278 347 OFFCURVE",
"284 334 OFFCURVE",
"284 290 CURVE SMOOTH",
"284 168 OFFCURVE",
"276 121 OFFCURVE",
"214 121 CURVE SMOOTH",
"190 121 OFFCURVE",
"183 134 OFFCURVE",
"183 179 CURVE SMOOTH",
"183 300 OFFCURVE",
"191 347 OFFCURVE",
"255 347 CURVE SMOOTH"
);
}
);
width = 469;
}
);
leftKerningGroup = a;
rightKerningGroup = b;
unicode = 006F;
},
{
glyphname = ohorn;
lastChange = "2016-12-19 13:36:04 +0000";
layers = (
{
anchors = (
{
name = bottom;
position = "{211, 0}";
},
{
name = top;
position = "{236, 472}";
}
);
layerId = UUID0;
paths = (
{
closed = 1;
nodes = (
"479 614 LINE",
"448 614 OFFCURVE",
"415 597 OFFCURVE",
"384 570 CURVE",
"381 556 LINE",
"399 540 OFFCURVE",
"410 524 OFFCURVE",
"410 501 CURVE SMOOTH",
"410 479 OFFCURVE",
"400 462 OFFCURVE",
"382 462 CURVE SMOOTH",
"364 462 OFFCURVE",
"325 479 OFFCURVE",
"307 482 CURVE",
"428 387 LINE",
"486 389 OFFCURVE",
"561 458 OFFCURVE",
"561 526 CURVE SMOOTH",
"561 579 OFFCURVE",
"524 614 OFFCURVE",
"479 614 CURVE SMOOTH"
);
},
{
closed = 1;
nodes = (
"291 484 LINE",
"119 474 OFFCURVE",
"12 361 OFFCURVE",
"12 183 CURVE SMOOTH",
"12 72 OFFCURVE",
"70 11 OFFCURVE",
"163 -10 CURVE",
"179 -12 LINE",
"352 -3 OFFCURVE",
"459 109 OFFCURVE",
"459 301 CURVE SMOOTH",
"459 355 OFFCURVE",
"442 397 OFFCURVE",
"412 428 CURVE",
"307 482 LINE"
);
},
{
closed = 1;
nodes = (
"256 348 LINE",
"279 348 OFFCURVE",
"286 335 OFFCURVE",
"286 291 CURVE SMOOTH",
"286 167 OFFCURVE",
"277 120 OFFCURVE",
"215 120 CURVE SMOOTH",
"191 120 OFFCURVE",
"183 133 OFFCURVE",
"183 178 CURVE SMOOTH",
"183 301 OFFCURVE",
"192 348 OFFCURVE",
"256 348 CURVE SMOOTH"
);
}
);
width = 479;
}
);
leftKerningGroup = a;
rightKerningGroup = b;
unicode = 01A1;
},
{
glyphname = oslash;
lastChange = "2016-12-19 13:36:04 +0000";
layers = (
{
anchors = (
{
name = bottom;
position = "{207, 0}";
},
{
name = center;
position = "{236, 236}";
},
{
name = ogonek;
position = "{343, 45}";
},
{
name = top;
position = "{238, 472}";
},
{
name = topright;
position = "{479, 472}";
}
);
layerId = UUID0;
paths = (
{
closed = 1;
nodes = (
"472 542 LINE",
"387 594 LINE",
"-14 -63 LINE",
"-10 -79 LINE",
"80 -132 LINE",
"481 525 LINE"
);
},
{
closed = 1;
nodes = (
"291 484 LINE",
"120 474 OFFCURVE",
"13 361 OFFCURVE",
"13 183 CURVE SMOOTH",
"13 72 OFFCURVE",
"71 11 OFFCURVE",
"163 -10 CURVE",
"179 -12 LINE",
"351 -3 OFFCURVE",
"458 109 OFFCURVE",
"458 301 CURVE SMOOTH",
"458 404 OFFCURVE",
"397 462 OFFCURVE",
"307 482 CURVE"
);
},
{
closed = 1;
nodes = (
"256 347 LINE",
"279 347 OFFCURVE",
"285 334 OFFCURVE",
"285 290 CURVE SMOOTH",
"285 168 OFFCURVE",
"277 121 OFFCURVE",
"215 121 CURVE SMOOTH",
"191 121 OFFCURVE",
"184 134 OFFCURVE",
"184 179 CURVE SMOOTH",
"184 300 OFFCURVE",
"192 347 OFFCURVE",
"256 347 CURVE SMOOTH"
);
}
);
width = 474;
}
);
leftKerningGroup = a;
rightKerningGroup = b;
unicode = 00F8;
},
{
glyphname = oe;
lastChange = "2016-12-19 13:36:04 +0000";
layers = (
{
anchors = (
{
name = bottom;
position = "{683, 0}";
},
{
name = ogonek;
position = "{857, 10}";
},
{
name = top;
position = "{495, 472}";
}
);
layerId = UUID0;
paths = (
{
closed = 1;
nodes = (
"291 484 LINE",
"119 474 OFFCURVE",
"12 361 OFFCURVE",
"12 183 CURVE SMOOTH",
"12 72 OFFCURVE",
"70 11 OFFCURVE",
"163 -10 CURVE",
"179 -12 LINE",
"336 -4 OFFCURVE",
"439 117 OFFCURVE",
"439 301 CURVE SMOOTH",
"439 401 OFFCURVE",
"394 463 OFFCURVE",
"307 482 CURVE"
);
},
{
closed = 1;
nodes = (
"256 348 LINE",
"279 348 OFFCURVE",
"286 335 OFFCURVE",
"286 291 CURVE SMOOTH",
"286 167 OFFCURVE",
"277 120 OFFCURVE",
"215 120 CURVE SMOOTH",
"191 120 OFFCURVE",
"183 133 OFFCURVE",
"183 178 CURVE SMOOTH",
"183 301 OFFCURVE",
"192 348 OFFCURVE",
"256 348 CURVE SMOOTH"
);
},
{
closed = 1;
nodes = (
"426 170 LINE",
"628 216 OFFCURVE",
"701 270 OFFCURVE",
"701 354 CURVE SMOOTH",
"701 427 OFFCURVE",
"652 468 OFFCURVE",
"579 482 CURVE",
"563 484 LINE",
"411 475 OFFCURVE",
"308 367 OFFCURVE",
"308 191 CURVE",
"308 90 OFFCURVE",
"358 2 OFFCURVE",
"478 -11 CURVE",
"494 -11 LINE",
"561 8 OFFCURVE",
"628 48 OFFCURVE",
"681 112 CURVE",
"624 184 LINE",
"602 187 LINE",
"573 144 OFFCURVE",
"544 125 OFFCURVE",
"510 125 CURVE SMOOTH",
"469 125 OFFCURVE",
"454 151 OFFCURVE",
"454 234 CURVE SMOOTH",
"454 330 OFFCURVE",
"474 371 OFFCURVE",
"517 371 CURVE SMOOTH",
"536 371 OFFCURVE",
"544 363 OFFCURVE",
"544 343 CURVE SMOOTH",
"544 301 OFFCURVE",
"509 285 OFFCURVE",
"426 270 CURVE"
);
}
);
width = 701;
}
);
leftKerningGroup = a;
rightKerningGroup = ae;
unicode = 0153;
},
{
glyphname = p;
lastChange = "2016-12-19 13:36:04 +0000";
layers = (
{
anchors = (
{
name = bottom;
position = "{217, 0}";
},
{
name = top;
position = "{275, 472}";
}
);
layerId = UUID0;
paths = (
{
closed = 1;
nodes = (
"324 478 LINE",
"293 441 OFFCURVE",
"268 400 OFFCURVE",
"246 358 CURVE",
"217 358 LINE",
"186 123 LINE",
"240 253 OFFCURVE",
"275 320 OFFCURVE",
"299 320 CURVE SMOOTH",
"311 320 OFFCURVE",
"320 297 OFFCURVE",
"320 238 CURVE SMOOTH",
"320 165 OFFCURVE",
"305 119 OFFCURVE",
"276 119 CURVE",
"147 153 LINE",
"51 23 LINE",
"241 -11 LINE",
"248 -11 LINE",
"406 42 OFFCURVE",
"483 184 OFFCURVE",
"483 311 CURVE SMOOTH",
"483 397 OFFCURVE",
"451 452 OFFCURVE",
"347 478 CURVE"
);
},
{
closed = 1;
nodes = (
"244 476 LINE",
"66 465 LINE",
"62 352 LINE",
"-10 -196 LINE",
"168 -185 LINE",
"172 -76 LINE"
);
}
);
width = 491;
}
);
leftKerningGroup = p;
rightKerningGroup = b;
unicode = 0070;
},
{
glyphname = thorn;
lastChange = "2016-12-19 13:36:04 +0000";
layers = (
{
layerId = UUID0;
paths = (
{
closed = 1;
nodes = (
"324 478 LINE",
"293 441 OFFCURVE",
"268 400 OFFCURVE",
"246 358 CURVE",
"217 358 LINE",
"186 123 LINE",
"240 253 OFFCURVE",
"275 320 OFFCURVE",
"299 320 CURVE SMOOTH",
"311 320 OFFCURVE",
"320 297 OFFCURVE",
"320 238 CURVE SMOOTH",
"320 165 OFFCURVE",
"305 119 OFFCURVE",
"276 119 CURVE",
"147 153 LINE",
"51 23 LINE",
"241 -11 LINE",
"248 -11 LINE",
"406 42 OFFCURVE",
"483 184 OFFCURVE",
"483 311 CURVE SMOOTH",
"483 397 OFFCURVE",
"451 452 OFFCURVE",
"347 478 CURVE"
);
},
{
closed = 1;
nodes = (
"275 704 LINE",
"97 693 LINE",
"93 580 LINE",
"-10 -196 LINE",
"168 -185 LINE",
"172 -76 LINE"
);
}
);
width = 491;
}
);
leftKerningGroup = b;
rightKerningGroup = b;
unicode = 00FE;
},
{
glyphname = q;
lastChange = "2016-12-19 13:36:04 +0000";
layers = (
{
layerId = UUID0;
paths = (
{
closed = 1;
nodes = (
"258 478 LINE",
"251 478 LINE",
"82 422 OFFCURVE",
"7 277 OFFCURVE",
"7 155 CURVE SMOOTH",
"7 75 OFFCURVE",
"34 16 OFFCURVE",
"144 -11 CURVE",
"167 -11 LINE",
"197 25 OFFCURVE",
"222 66 OFFCURVE",
"244 107 CURVE",
"263 107 LINE",
"304 348 LINE",
"250 214 OFFCURVE",
"215 151 OFFCURVE",
"192 151 CURVE SMOOTH",
"180 151 OFFCURVE",
"171 175 OFFCURVE",
"171 228 CURVE SMOOTH",
"171 307 OFFCURVE",
"188 348 OFFCURVE",
"224 348 CURVE",
"344 318 LINE",
"439 447 LINE"
);
},
{
closed = 1;
nodes = (
"464 484 LINE",
"300 450 LINE",
"293 349 LINE",
"221 -196 LINE",
"399 -185 LINE",
"403 -76 LINE",
"475 476 LINE"
);
}
);
width = 490;
}
);
leftKerningGroup = a;
rightKerningGroup = g;
unicode = 0071;
},
{
glyphname = r;
lastChange = "2016-12-19 13:36:04 +0000";
layers = (
{
anchors = (
{
name = bottom;
position = "{110, 0}";
},
{
name = top;
position = "{238, 472}";
}
);
layerId = UUID0;
paths = (
{
closed = 1;
nodes = (
"369 475 LINE",
"317 445 OFFCURVE",
"281 408 OFFCURVE",
"245 353 CURVE",
"209 353 LINE",
"185 181 LINE",
"236 233 OFFCURVE",
"266 249 OFFCURVE",
"318 253 CURVE",
"354 246 LINE",
"370 253 LINE",
"398 470 LINE"
);
},
{
closed = 1;
nodes = (
"244 476 LINE",
"66 465 LINE",
"62 352 LINE",
"15 -4 LINE",
"193 7 LINE",
"197 116 LINE"
);
}
);
width = 386;
}
);
leftKerningGroup = m;
rightKerningGroup = r;
unicode = 0072;
},
{
glyphname = s;
lastChange = "2016-12-19 13:36:04 +0000";
layers = (
{
anchors = (
{
name = bottom;
position = "{173, 0}";
},
{
name = top;
position = "{234, 472}";
}
);
layerId = UUID0;
paths = (
{
closed = 1;
nodes = (
"265 480 LINE",
"144 480 OFFCURVE",
"36 415 OFFCURVE",
"32 300 CURVE",
"30 184 OFFCURVE",
"198 160 OFFCURVE",
"198 119 CURVE SMOOTH",
"198 111 OFFCURVE",
"191 100 OFFCURVE",
"172 100 CURVE SMOOTH",
"138 100 OFFCURVE",
"86 125 OFFCURVE",
"47 170 CURVE",
"29 161 LINE",
"-13 15 LINE",
"33 2 OFFCURVE",
"79 -6 OFFCURVE",
"127 -11 CURVE",
"255 -11 OFFCURVE",
"355 61 OFFCURVE",
"355 163 CURVE SMOOTH",
"355 291 OFFCURVE",
"193 299 OFFCURVE",
"193 346 CURVE SMOOTH",
"193 357 OFFCURVE",
"201 365 OFFCURVE",
"216 365 CURVE SMOOTH",
"242 365 OFFCURVE",
"285 346 OFFCURVE",
"323 309 CURVE",
"346 318 LINE",
"387 456 LINE",
"347 468 OFFCURVE",
"307 476 OFFCURVE",
"265 480 CURVE"
);
}
);
width = 386;
}
);
leftKerningGroup = s;
rightKerningGroup = s;
unicode = 0073;
},
{
glyphname = saltillo;
lastChange = "2016-12-19 13:36:26 +0000";
layers = (
{
layerId = UUID0;
paths = (
{
closed = 1;
nodes = (
"204 551 LINE",
"52 540 LINE",
"29 215 LINE",
"43 201 LINE",
"132 218 LINE",
"213 536 LINE"
);
},
{
closed = 1;
nodes = (
"75 240 LINE"
);
}
);
width = 187;
}
);
unicode = A78C;
},
{
glyphname = germandbls;
lastChange = "2016-12-19 13:36:04 +0000";
layers = (
{
layerId = UUID0;
paths = (
{
closed = 1;
nodes = (
"387 704 LINE",
"226 704 OFFCURVE",
"125 614 OFFCURVE",
"106 466 CURVE",
"77 190 LINE",
"38 -108 LINE",
"216 -97 LINE",
"220 12 LINE",
"245 210 LINE",
"286 497 LINE",
"294 554 OFFCURVE",
"327 569 OFFCURVE",
"366 569 CURVE SMOOTH",
"405 569 OFFCURVE",
"423 554 OFFCURVE",
"423 524 CURVE SMOOTH",
"423 454 OFFCURVE",
"321 428 OFFCURVE",
"321 318 CURVE SMOOTH",
"321 182 OFFCURVE",
"479 162 OFFCURVE",
"478 119 CURVE SMOOTH",
"478 110 OFFCURVE",
"470 99 OFFCURVE",
"449 99 CURVE SMOOTH",
"416 99 OFFCURVE",
"367 124 OFFCURVE",
"327 169 CURVE",
"309 160 LINE",
"270 15 LINE",
"316 2 OFFCURVE",
"359 -6 OFFCURVE",
"407 -11 CURVE",
"534 -11 OFFCURVE",
"633 59 OFFCURVE",
"633 161 CURVE SMOOTH",
"633 289 OFFCURVE",
"479 292 OFFCURVE",
"479 359 CURVE",
"479 421 OFFCURVE",
"590 458 OFFCURVE",
"590 560 CURVE SMOOTH",
"590 640 OFFCURVE",
"523 704 OFFCURVE",
"387 704 CURVE SMOOTH"
);
},
{
closed = 1;
nodes = (
"175 463 LINE",
"37 463 LINE",
"25 373 LINE",
"33 362 LINE",
"174 362 LINE",
"187 449 LINE"
);
}
);
width = 637;
}
);
leftKerningGroup = f;
rightKerningGroup = s;
unicode = 00DF;
},
{
glyphname = t;
lastChange = "2016-12-19 13:36:04 +0000";
layers = (
{
anchors = (
{
name = bottom;
position = "{195, 0}";
},
{
name = center;
position = "{182, 236}";
},
{
name = top;
position = "{204, 538}";
},
{
name = topright;
position = "{405, 472}";
}
);
layerId = UUID0;
paths = (
{
closed = 1;
nodes = (
"193 -10 LINE",
"256 10 OFFCURVE",
"304 55 OFFCURVE",
"344 130 CURVE",
"293 193 LINE",
"280 192 LINE",
"251 152 OFFCURVE",
"248 149 OFFCURVE",
"240 149 CURVE SMOOTH",
"234 149 OFFCURVE",
"231 152 OFFCURVE",
"231 158 CURVE",
"232 166 LINE",
"296 588 LINE",
"284 598 LINE",
"114 560 LINE",
"93 355 LINE",
"61 137 LINE",
"58 107 LINE",
"55 36 OFFCURVE",
"108 -10 OFFCURVE",
"193 -10 CURVE"
);
},
{
closed = 1;
nodes = (
"32 362 LINE",
"376 362 LINE",
"387 449 LINE",
"375 463 LINE",
"34 463 LINE",
"23 373 LINE"
);
}
);
width = 366;
}
);
leftKerningGroup = t;
rightKerningGroup = t;
unicode = 0074;
},
{
glyphname = tbar;
lastChange = "2016-12-19 13:36:04 +0000";
layers = (
{
anchors = (
{
name = bottom;
position = "{198, 0}";
},
{
name = center;
position = "{185, 236}";
},
{
name = top;
position = "{207, 538}";
},
{
name = topright;
position = "{408, 472}";
}
);
layerId = UUID0;
paths = (
{
closed = 1;
nodes = (
"196 -10 LINE",
"257 9 OFFCURVE",
"304 52 OFFCURVE",
"343 123 CURVE",
"292 186 LINE",
"279 185 LINE",
"253 152 OFFCURVE",
"250 149 OFFCURVE",
"243 149 CURVE SMOOTH",
"237 149 OFFCURVE",
"234 152 OFFCURVE",
"234 158 CURVE",
"235 166 LINE",
"299 588 LINE",
"287 598 LINE",
"117 560 LINE",
"96 355 LINE",
"64 137 LINE",
"61 107 LINE",
"58 36 OFFCURVE",
"111 -10 OFFCURVE",
"196 -10 CURVE"
);
},
{
closed = 1;
nodes = (
"23 209 LINE",
"354 209 LINE",
"364 296 LINE",
"353 309 LINE",
"22 309 LINE",
"12 222 LINE"
);
},
{
closed = 1;
nodes = (
"35 362 LINE",
"379 362 LINE",
"390 449 LINE",
"378 463 LINE",
"37 463 LINE",
"26 373 LINE"
);
}
);
width = 371;
}
);
leftKerningGroup = tbar;
rightKerningGroup = t;
unicode = 0167;
},
{
glyphname = u;
lastChange = "2016-12-19 13:36:04 +0000";
layers = (
{
anchors = (
{
name = bottom;
position = "{228, 0}";
},
{
name = ogonek;
position = "{448, 7}";
},
{
name = top;
position = "{286, 472}";
},
{
name = topright;
position = "{523, 472}";
}
);
layerId = UUID0;
paths = (
{
closed = 1;
nodes = (
"243 474 LINE",
"61 463 LINE",
"57 351 LINE",
"20 125 LINE",
"18 105 LINE",
"18 48 OFFCURVE",
"71 6 OFFCURVE",
"156 -4 CURVE",
"169 -3 LINE",
"208 34 OFFCURVE",
"240 72 OFFCURVE",
"273 116 CURVE",
"310 116 LINE",
"334 315 LINE",
"276 218 OFFCURVE",
"239 177 OFFCURVE",
"218 177 CURVE SMOOTH",
"206 177 OFFCURVE",
"200 184 OFFCURVE",
"200 200 CURVE",
"201 213 LINE"
);
},
{
closed = 1;
nodes = (
"499 476 LINE",
"321 465 LINE",
"317 352 LINE",
"270 -4 LINE",
"448 7 LINE",
"452 116 LINE"
);
}
);
width = 514;
}
);
leftKerningGroup = t;
rightKerningGroup = u;
unicode = 0075;
},
{
glyphname = uhorn;
lastChange = "2016-12-19 13:36:04 +0000";
layers = (
{
anchors = (
{
name = top;
position = "{260, 472}";
}
);
layerId = UUID0;
paths = (
{
closed = 1;
nodes = (
"243 474 LINE",
"61 463 LINE",
"57 351 LINE",
"20 125 LINE",
"18 105 LINE",
"18 48 OFFCURVE",
"71 6 OFFCURVE",
"156 -4 CURVE",
"169 -3 LINE",
"208 34 OFFCURVE",
"240 72 OFFCURVE",
"273 116 CURVE",
"310 116 LINE",
"334 315 LINE",
"271 210 OFFCURVE",
"238 177 OFFCURVE",
"217 177 CURVE SMOOTH",
"207 177 OFFCURVE",
"200 184 OFFCURVE",
"200 200 CURVE",
"201 213 LINE"
);
},
{
closed = 1;
nodes = (
"499 476 LINE",
"321 465 LINE",
"317 352 LINE",
"270 -4 LINE",
"448 7 LINE",
"452 116 LINE"
);
},
{
closed = 1;
nodes = (
"511 630 LINE",
"480 630 OFFCURVE",
"447 613 OFFCURVE",
"416 586 CURVE",
"413 572 LINE",
"431 557 OFFCURVE",
"442 538 OFFCURVE",
"442 517 CURVE SMOOTH",
"442 490 OFFCURVE",
"423 476 OFFCURVE",
"382 472 CURVE SMOOTH",
"321 465 LINE",
"459 389 LINE",
"529 414 OFFCURVE",
"593 476 OFFCURVE",
"593 543 CURVE SMOOTH",
"593 595 OFFCURVE",
"556 630 OFFCURVE",
"511 630 CURVE SMOOTH"
);
}
);
width = 533;
}
);
leftKerningGroup = t;
rightKerningGroup = u;
unicode = 01B0;
},
{
glyphname = v;
lastChange = "2016-12-19 13:36:04 +0000";
layers = (
{
layerId = UUID0;
paths = (
{
closed = 1;
nodes = (
"300 459 LINE",
"292 442 LINE",
"301 424 OFFCURVE",
"305 405 OFFCURVE",
"305 386 CURVE SMOOTH",
"305 358 OFFCURVE",
"296 328 OFFCURVE",
"280 291 CURVE SMOOTH",
"233 183 LINE",
"219 183 LINE",
"209 385 LINE",
"209 476 LINE",
"31 466 LINE",
"91 0 LINE",
"296 0 LINE",
"430 247 LINE SMOOTH",
"461 304 OFFCURVE",
"477 353 OFFCURVE",
"477 401 CURVE SMOOTH",
"477 427 OFFCURVE",
"472 453 OFFCURVE",
"463 479 CURVE"
);
}
);
width = 472;
}
);
leftKerningGroup = v;
rightKerningGroup = v;
unicode = 0076;
},
{
glyphname = w;
lastChange = "2016-12-19 13:36:04 +0000";
layers = (
{
anchors = (
{
name = top;
position = "{401, 472}";
}
);
layerId = UUID0;
paths = (
{
closed = 1;
nodes = (
"706 247 LINE",
"735 304 OFFCURVE",
"752 353 OFFCURVE",
"752 401 CURVE SMOOTH",
"752 427 OFFCURVE",
"747 453 OFFCURVE",
"738 479 CURVE",
"575 459 LINE",
"567 442 LINE",
"576 424 OFFCURVE",
"580 405 OFFCURVE",
"580 386 CURVE SMOOTH",
"580 358 OFFCURVE",
"570 328 OFFCURVE",
"555 291 CURVE SMOOTH",
"519 200 LINE",
"505 200 LINE",
"501 389 LINE",
"500 472 LINE",
"311 472 LINE",
"284 377 LINE",
"224 199 LINE",
"209 199 LINE",
"207 389 LINE",
"207 476 LINE",
"31 466 LINE",
"85 0 LINE",
"280 0 LINE",
"357 233 LINE",
"372 233 LINE",
"383 0 LINE",
"581 0 LINE"
);
}
);
width = 744;
}
);
leftKerningGroup = v;
rightKerningGroup = v;
unicode = 0077;
},
{
glyphname = x;
lastChange = "2016-12-19 13:36:04 +0000";
layers = (
{
layerId = UUID0;
paths = (
{
closed = 1;
nodes = (
"357 233 LINE",
"517 472 LINE",
"330 472 LINE",
"308 422 LINE",
"271 357 LINE",
"247 426 LINE",
"234 482 LINE",
"40 467 LINE",
"129 242 LINE",
"-31 0 LINE",
"163 0 LINE",
"190 65 LINE",
"227 128 LINE",
"248 60 LINE",
"260 -9 LINE",
"461 4 LINE"
);
}
);
width = 503;
}
);
rightKerningGroup = x;
unicode = 0078;
},
{
glyphname = y;
lastChange = "2016-12-19 13:36:04 +0000";
layers = (
{
anchors = (
{
name = bottom;
position = "{411, 10}";
},
{
name = top;
position = "{271, 472}";
}
);
layerId = UUID0;
paths = (
{
closed = 1;
nodes = (
"312 459 LINE",
"304 442 LINE",
"313 424 OFFCURVE",
"317 404 OFFCURVE",
"317 382 CURVE SMOOTH",
"317 348 OFFCURVE",
"308 311 OFFCURVE",
"292 272 CURVE SMOOTH",
"204 51 LINE SMOOTH",
"183 -2 OFFCURVE",
"116 -32 OFFCURVE",
"50 -32 CURVE SMOOTH",
"21 -32 OFFCURVE",
"-9 -27 OFFCURVE",
"-40 -19 CURVE",
"-55 -35 LINE",
"-46 -180 LINE",
"-12 -192 OFFCURVE",
"24 -198 OFFCURVE",
"59 -198 CURVE SMOOTH",
"172 -198 OFFCURVE",
"253 -134 OFFCURVE",
"354 66 CURVE SMOOTH",
"445 247 LINE SMOOTH",
"474 305 OFFCURVE",
"489 353 OFFCURVE",
"489 401 CURVE SMOOTH",
"489 427 OFFCURVE",
"484 453 OFFCURVE",
"475 479 CURVE"
);
},
{
closed = 1;
nodes = (
"210 476 LINE",
"31 466 LINE",
"158 -103 LINE",
"353 186 LINE",
"244 186 LINE",
"217 385 LINE"
);
}
);
width = 484;
}
);
leftKerningGroup = v;
rightKerningGroup = v;
unicode = 0079;
},
{
glyphname = z;
lastChange = "2016-12-19 13:36:04 +0000";
layers = (
{
anchors = (
{
name = bottom;
position = "{194, 0}";
},
{
name = top;
position = "{253, 472}";
}
);
layerId = UUID0;
paths = (
{
closed = 1;
nodes = (
"397 493 LINE",
"356 470 LINE",
"189 476 LINE",
"84 484 LINE",
"67 473 LINE",
"37 319 LINE",
"51 307 LINE",
"127 322 LINE",
"196 325 LINE",
"-28 41 LINE",
"24 -8 LINE",
"46 -8 LINE",
"72 15 OFFCURVE",
"85 23 OFFCURVE",
"108 23 CURVE SMOOTH",
"154 23 OFFCURVE",
"206 -10 OFFCURVE",
"275 -10 CURVE SMOOTH",
"359 -10 OFFCURVE",
"419 38 OFFCURVE",
"421 201 CURVE",
"351 219 LINE",
"330 213 LINE",
"321 159 OFFCURVE",
"308 154 OFFCURVE",
"273 154 CURVE SMOOTH",
"271 154 OFFCURVE",
"236 154 OFFCURVE",
"236 154 CURVE",
"211 147 LINE",
"448 442 LINE"
);
}
);
width = 446;
}
);
leftKerningGroup = z;
rightKerningGroup = z;
unicode = 007A;
},
{
glyphname = f.f;
lastChange = "2016-12-19 13:36:26 +0000";
layers = (
{
anchors = (
{
name = bottom;
position = "{140, 0}";
},
{
name = top;
position = "{198, 472}";
}
);
layerId = UUID0;
paths = (
{
closed = 1;
nodes = (
"368 690 LINE",
"216 690 OFFCURVE",
"120 612 OFFCURVE",
"104 454 CURVE SMOOTH",
"77 190 LINE",
"38 -108 LINE",
"216 -97 LINE",
"220 12 LINE",
"245 210 LINE",
"286 496 LINE SMOOTH",
"293 543 OFFCURVE",
"309 562 OFFCURVE",
"337 562 CURVE SMOOTH",
"352 562 OFFCURVE",
"371 554 OFFCURVE",
"402 533 CURVE",
"425 541 LINE",
"481 662 LINE",
"472 676 LINE"
);
},
{
closed = 1;
nodes = (
"515 463 LINE",
"37 463 LINE",
"25 373 LINE",
"33 362 LINE",
"514 362 LINE",
"527 449 LINE"
);
}
);
width = 339;
}
);
leftKerningGroup = f;
rightKerningGroup = f.f;
},
{
glyphname = f.l;
lastChange = "2016-12-19 13:36:26 +0000";
layers = (
{
layerId = UUID0;
paths = (
{
closed = 1;
nodes = (
"381 708 LINE",
"223 708 OFFCURVE",
"125 630 OFFCURVE",
"107 472 CURVE SMOOTH",
"77 190 LINE",
"38 -108 LINE",
"216 -97 LINE",
"220 12 LINE",
"245 210 LINE",
"289 514 LINE SMOOTH",
"297 561 OFFCURVE",
"317 580 OFFCURVE",
"350 580 CURVE SMOOTH",
"374 580 OFFCURVE",
"406 571 OFFCURVE",
"459 546 CURVE",
"482 554 LINE",
"527 677 LINE",
"518 691 LINE"
);
},
{
closed = 1;
nodes = (
"375 463 LINE",
"37 463 LINE",
"25 373 LINE",
"33 362 LINE",
"374 362 LINE",
"387 449 LINE"
);
}
);
width = 339;
}
);
leftKerningGroup = f;
rightKerningGroup = f.l;
},
{
glyphname = a.sups;
lastChange = "2016-12-19 13:36:26 +0000";
layers = (
{
anchors = (
{
name = ogonek;
position = "{462, 10}";
},
{
name = top;
position = "{264, 472}";
}
);
layerId = UUID0;
paths = (
{
closed = 1;
nodes = (
"342 651 LINE",
"342 651 LINE",
"241 630 LINE",
"236 562 LINE",
"204 317 LINE",
"314 324 LINE",
"317 399 LINE",
"350 646 LINE"
);
},
{
closed = 1;
nodes = (
"176 480 LINE",
"176 480 LINE"
);
},
{
closed = 1;
nodes = (
"204 648 LINE",
"204 648 LINE",
"88 614 OFFCURVE",
"36 515 OFFCURVE",
"36 427 CURVE SMOOTH",
"36 371 OFFCURVE",
"54 332 OFFCURVE",
"125 313 CURVE",
"140 313 LINE",
"166 341 OFFCURVE",
"187 375 OFFCURVE",
"206 411 CURVE",
"218 411 LINE",
"243 561 LINE",
"202 461 OFFCURVE",
"170 411 OFFCURVE",
"155 411 CURVE SMOOTH",
"146 411 OFFCURVE",
"138 427 OFFCURVE",
"138 471 CURVE SMOOTH",
"138 531 OFFCURVE",
"155 569 OFFCURVE",
"188 569 CURVE",
"269 551 LINE",
"327 629 LINE",
"209 648 LINE"
);
}
);
width = 337;
}
);
},
{
glyphname = b.sups;
lastChange = "2016-12-19 13:36:26 +0000";
layers = (
{
anchors = (
{
name = bottom;
position = "{354, 0}";
},
{
name = top;
position = "{265, 472}";
}
);
layerId = UUID0;
paths = (
{
closed = 1;
nodes = (
"253 647 LINE",
"227 619 OFFCURVE",
"204 584 OFFCURVE",
"184 547 CURVE",
"165 547 LINE",
"146 402 LINE",
"189 500 OFFCURVE",
"223 552 OFFCURVE",
"239 552 CURVE SMOOTH",
"247 552 OFFCURVE",
"255 536 OFFCURVE",
"255 491 CURVE SMOOTH",
"255 433 OFFCURVE",
"239 391 OFFCURVE",
"207 391 CURVE",
"121 412 LINE",
"63 335 LINE",
"186 313 LINE",
"191 313 LINE",
"302 345 OFFCURVE",
"357 442 OFFCURVE",
"357 535 CURVE SMOOTH",
"357 593 OFFCURVE",
"335 629 OFFCURVE",
"268 647 CURVE"
);
},
{
closed = 1;
nodes = (
"209 813 LINE",
"209 813 LINE",
"99 806 LINE",
"96 730 LINE",
"44 337 LINE",
"149 321 LINE",
"153 389 LINE",
"164 468 LINE"
);
}
);
width = 338;
}
);
},
{
glyphname = c.sups;
lastChange = "2016-12-19 13:36:26 +0000";
layers = (
{
anchors = (
{
name = bottom;
position = "{231, 0}";
},
{
name = top;
position = "{232, 472}";
}
);
layerId = UUID0;
paths = (
{
closed = 1;
nodes = (
"233 649 LINE",
"233 649 LINE",
"98 649 OFFCURVE",
"39 554 OFFCURVE",
"39 446 CURVE SMOOTH",
"39 366 OFFCURVE",
"70 325 OFFCURVE",
"151 314 CURVE",
"166 314 LINE",
"217 330 OFFCURVE",
"249 355 OFFCURVE",
"279 407 CURVE",
"243 449 LINE",
"229 449 LINE",
"208 414 OFFCURVE",
"193 404 OFFCURVE",
"177 404 CURVE SMOOTH",
"154 404 OFFCURVE",
"145 422 OFFCURVE",
"145 466 CURVE SMOOTH",
"145 534 OFFCURVE",
"163 568 OFFCURVE",
"202 568 CURVE",
"219 568 OFFCURVE",
"229 560 OFFCURVE",
"244 543 CURVE",
"268 544 LINE",
"298 621 LINE",
"294 632 LINE"
);
}
);
width = 259;
}
);
},
{
glyphname = d.sups;
lastChange = "2016-12-19 13:36:26 +0000";
layers = (
{
anchors = (
{
name = bottom;
position = "{385, 0}";
},
{
name = center;
position = "{509, 236}";
},
{
name = top;
position = "{385, 472}";
},
{
name = topright;
position = "{506, 472}";
}
);
layerId = UUID0;
paths = (
{
closed = 1;
nodes = (
"211 647 LINE",
"211 647 LINE",
"206 647 LINE",
"89 614 OFFCURVE",
"35 514 OFFCURVE",
"35 425 CURVE SMOOTH",
"35 370 OFFCURVE",
"53 332 OFFCURVE",
"124 313 CURVE",
"139 313 LINE",
"165 341 OFFCURVE",
"187 376 OFFCURVE",
"207 412 CURVE",
"219 412 LINE",
"245 561 LINE",
"202 460 OFFCURVE",
"169 410 OFFCURVE",
"153 410 CURVE SMOOTH",
"145 410 OFFCURVE",
"136 426 OFFCURVE",
"136 468 CURVE SMOOTH",
"136 530 OFFCURVE",
"155 570 OFFCURVE",
"190 570 CURVE",
"270 552 LINE",
"328 629 LINE"
);
},
{
closed = 1;
nodes = (
"371 813 LINE",
"371 813 LINE",
"260 806 LINE",
"258 730 LINE",
"203 317 LINE",
"313 324 LINE",
"316 399 LINE"
);
}
);
width = 335;
}
);
},
{
glyphname = e.sups;
lastChange = "2016-12-19 13:36:26 +0000";
layers = (
{
anchors = (
{
name = bottom;
position = "{240, 0}";
},
{
name = ogonek;
position = "{414, 10}";
},
{
name = top;
position = "{241, 472}";
}
);
layerId = UUID0;
paths = (
{
closed = 1;
nodes = (
"123 438 LINE",
"264 471 OFFCURVE",
"317 511 OFFCURVE",
"317 568 CURVE SMOOTH",
"317 615 OFFCURVE",
"284 641 OFFCURVE",
"235 650 CURVE",
"225 651 LINE",
"110 645 OFFCURVE",
"38 567 OFFCURVE",
"38 447 CURVE",
"38 372 OFFCURVE",
"73 323 OFFCURVE",
"164 313 CURVE",
"174 313 LINE",
"221 325 OFFCURVE",
"266 352 OFFCURVE",
"302 397 CURVE",
"267 439 LINE",
"253 441 LINE",
"232 409 OFFCURVE",
"209 394 OFFCURVE",
"183 394 CURVE SMOOTH",
"153 394 OFFCURVE",
"141 414 OFFCURVE",
"141 473 CURVE SMOOTH",
"141 546 OFFCURVE",
"161 583 OFFCURVE",
"197 583 CURVE SMOOTH",
"213 583 OFFCURVE",
"220 576 OFFCURVE",
"220 561 CURVE SMOOTH",
"220 530 OFFCURVE",
"189 513 OFFCURVE",
"123 498 CURVE"
);
}
);
width = 291;
}
);
},
{
glyphname = f.sups;
lastChange = "2016-12-19 13:36:26 +0000";
layers = (
{
layerId = UUID0;
paths = (
{
closed = 1;
nodes = (
"277 812 LINE",
"277 812 LINE",
"180 812 OFFCURVE",
"118 755 OFFCURVE",
"106 652 CURVE SMOOTH",
"84 451 LINE",
"55 234 LINE",
"166 240 LINE",
"169 315 LINE",
"188 463 LINE",
"219 682 LINE SMOOTH",
"224 719 OFFCURVE",
"238 735 OFFCURVE",
"261 735 CURVE SMOOTH",
"275 735 OFFCURVE",
"292 730 OFFCURVE",
"318 717 CURVE",
"333 722 LINE",
"353 795 LINE",
"349 802 LINE"
);
},
{
closed = 1;
nodes = (
"281 638 LINE",
"281 638 LINE",
"55 638 LINE",
"48 584 LINE",
"53 577 LINE",
"281 577 LINE",
"289 629 LINE"
);
}
);
width = 227;
}
);
},
{
glyphname = g.sups;
lastChange = "2016-12-19 13:36:26 +0000";
layers = (
{
anchors = (
{
name = top;
position = "{302, 472}";
}
);
layerId = UUID0;
paths = (
{
closed = 1;
nodes = (
"344 651 LINE",
"344 651 LINE",
"249 631 LINE",
"246 568 LINE",
"214 323 LINE SMOOTH",
"209 279 OFFCURVE",
"183 259 OFFCURVE",
"150 259 CURVE SMOOTH",
"129 259 OFFCURVE",
"116 267 OFFCURVE",
"111 279 CURVE SMOOTH",
"108 284 OFFCURVE",
"107 289 OFFCURVE",
"107 293 CURVE SMOOTH",
"107 298 OFFCURVE",
"109 301 OFFCURVE",
"116 310 CURVE SMOOTH",
"147 333 LINE",
"96 369 LINE",
"94 344 LINE",
"-2 301 LINE",
"-5 294 LINE",
"5 231 OFFCURVE",
"49 185 OFFCURVE",
"129 185 CURVE SMOOTH",
"227 185 OFFCURVE",
"303 242 OFFCURVE",
"317 353 CURVE SMOOTH",
"320 412 LINE",
"352 646 LINE"
);
},
{
closed = 1;
nodes = (
"221 648 LINE",
"221 648 LINE",
"217 648 LINE",
"107 617 OFFCURVE",
"55 527 OFFCURVE",
"55 444 CURVE SMOOTH",
"55 390 OFFCURVE",
"73 352 OFFCURVE",
"137 333 CURVE",
"147 333 LINE",
"173 360 OFFCURVE",
"198 392 OFFCURVE",
"219 429 CURVE",
"231 429 LINE",
"254 567 LINE",
"213 471 OFFCURVE",
"180 424 OFFCURVE",
"165 424 CURVE SMOOTH",
"156 424 OFFCURVE",
"148 438 OFFCURVE",
"148 477 CURVE SMOOTH",
"148 538 OFFCURVE",
"167 576 OFFCURVE",
"202 576 CURVE",
"278 560 LINE",
"331 630 LINE"
);
}
);
width = 338;
}
);
},
{
glyphname = h.sups;
lastChange = "2016-12-19 13:36:26 +0000";
layers = (
{
anchors = (
{
name = bottom;
position = "{157, 0}";
},
{
name = center;
position = "{301, 236}";
},
{
name = top;
position = "{301, 472}";
},
{
name = topright;
position = "{278, 472}";
}
);
layerId = UUID0;
paths = (
{
closed = 1;
nodes = (
"273 645 LINE",
"242 618 OFFCURVE",
"213 583 OFFCURVE",
"183 541 CURVE",
"169 541 LINE",
"147 421 LINE",
"192 501 OFFCURVE",
"228 537 OFFCURVE",
"244 537 CURVE SMOOTH",
"252 537 OFFCURVE",
"258 530 OFFCURVE",
"258 517 CURVE",
"257 510 LINE",
"226 317 LINE",
"338 324 LINE",
"342 400 LINE",
"369 562 LINE",
"369 572 LINE",
"370 609 OFFCURVE",
"336 637 OFFCURVE",
"282 646 CURVE"
);
},
{
closed = 1;
nodes = (
"209 813 LINE",
"209 813 LINE",
"99 806 LINE",
"96 730 LINE",
"41 317 LINE",
"151 324 LINE",
"154 399 LINE"
);
}
);
width = 361;
}
);
},
{
glyphname = i.sups;
lastChange = "2016-12-19 13:36:26 +0000";
layers = (
{
anchors = (
{
name = _top;
position = "{185, 472}";
},
{
name = ogonek;
position = "{269, 10}";
},
{
name = top;
position = "{185, 472}";
}
);
layerId = UUID0;
paths = (
{
closed = 1;
nodes = (
"187 646 LINE",
"187 646 LINE",
"77 639 LINE",
"74 564 LINE",
"41 317 LINE",
"152 324 LINE",
"155 399 LINE"
);
},
{
closed = 1;
nodes = (
"156 819 LINE",
"114 819 OFFCURVE",
"88 791 OFFCURVE",
"88 748 CURVE SMOOTH",
"88 719 OFFCURVE",
"109 700 OFFCURVE",
"144 700 CURVE SMOOTH",
"185 700 OFFCURVE",
"211 727 OFFCURVE",
"211 770 CURVE SMOOTH",
"211 800 OFFCURVE",
"191 819 OFFCURVE",
"156 819 CURVE SMOOTH"
);
}
);
width = 174;
}
);
},
{
glyphname = j.sups;
lastChange = "2016-12-19 13:36:26 +0000";
layers = (
{
anchors = (
{
name = _top;
position = "{224, 472}";
},
{
name = top;
position = "{199, 472}";
}
);
layerId = UUID0;
paths = (
{
closed = 1;
nodes = (
"205 646 LINE",
"205 646 LINE",
"103 638 LINE",
"53 638 LINE",
"45 584 LINE",
"50 577 LINE",
"93 577 LINE",
"94 562 LINE",
"64 335 LINE",
"58 289 OFFCURVE",
"38 262 OFFCURVE",
"2 242 CURVE",
"0 232 LINE",
"35 185 LINE",
"119 221 OFFCURVE",
"160 268 OFFCURVE",
"169 342 CURVE",
"175 398 LINE",
"208 643 LINE"
);
},
{
closed = 1;
nodes = (
"159 820 LINE",
"120 820 OFFCURVE",
"95 796 OFFCURVE",
"95 757 CURVE SMOOTH",
"95 720 OFFCURVE",
"116 700 OFFCURVE",
"155 700 CURVE SMOOTH",
"193 700 OFFCURVE",
"218 724 OFFCURVE",
"218 762 CURVE SMOOTH",
"218 798 OFFCURVE",
"196 820 OFFCURVE",
"159 820 CURVE SMOOTH"
);
}
);
width = 201;
}
);
},
{
glyphname = k.sups;
lastChange = "2016-12-19 13:36:26 +0000";
layers = (
{
anchors = (
{
name = bottom;
position = "{290, 0}";
},
{
name = top;
position = "{157, 472}";
},
{
name = topright;
position = "{278, 472}";
}
);
layerId = UUID0;
paths = (
{
closed = 1;
nodes = (
"282 645 LINE",
"248 619 OFFCURVE",
"215 584 OFFCURVE",
"183 541 CURVE",
"169 541 LINE",
"147 421 LINE",
"194 503 OFFCURVE",
"232 538 OFFCURVE",
"253 538 CURVE SMOOTH",
"261 538 OFFCURVE",
"268 533 OFFCURVE",
"268 522 CURVE SMOOTH",
"268 502 OFFCURVE",
"241 474 OFFCURVE",
"203 453 CURVE",
"199 439 LINE",
"215 398 OFFCURVE",
"233 357 OFFCURVE",
"252 317 CURVE",
"263 312 LINE",
"356 324 LINE",
"361 332 LINE",
"338 368 OFFCURVE",
"316 406 OFFCURVE",
"296 445 CURVE",
"344 477 OFFCURVE",
"379 517 OFFCURVE",
"379 564 CURVE SMOOTH",
"379 612 OFFCURVE",
"343 636 OFFCURVE",
"291 645 CURVE"
);
},
{
closed = 1;
nodes = (
"209 813 LINE",
"209 813 LINE",
"99 806 LINE",
"96 730 LINE",
"41 317 LINE",
"151 324 LINE",
"154 399 LINE"
);
}
);
width = 366;
}
);
},
{
glyphname = l.sups;
lastChange = "2016-12-19 13:36:26 +0000";
layers = (
{
anchors = (
{
name = bottom;
position = "{155, 0}";
},
{
name = top;
position = "{155, 472}";
},
{
name = topright;
position = "{276, 472}";
}
);
layerId = UUID0;
paths = (
{
closed = 1;
nodes = (
"208 813 LINE",
"208 813 LINE",
"97 806 LINE",
"95 730 LINE",
"39 317 LINE",
"150 324 LINE",
"153 399 LINE"
);
}
);
width = 172;
}
);
},
{
glyphname = m.sups;
lastChange = "2016-12-19 13:36:26 +0000";
layers = (
{
anchors = (
{
name = bottom;
position = "{270, 10}";
},
{
name = ogonek;
position = "{186, 472}";
},
{
name = top;
position = "{157, 452}";
}
);
layerId = UUID0;
paths = (
{
closed = 1;
nodes = (
"465 645 LINE",
"434 618 OFFCURVE",
"405 583 OFFCURVE",
"375 541 CURVE",
"362 541 LINE",
"340 421 LINE",
"384 501 OFFCURVE",
"420 537 OFFCURVE",
"437 537 CURVE SMOOTH",
"444 537 OFFCURVE",
"450 530 OFFCURVE",
"450 517 CURVE",
"449 510 LINE",
"418 317 LINE",
"531 324 LINE",
"534 400 LINE",
"561 562 LINE",
"561 572 LINE",
"562 609 OFFCURVE",
"528 637 OFFCURVE",
"474 646 CURVE"
);
},
{
closed = 1;
nodes = (
"187 646 LINE",
"187 646 LINE",
"77 639 LINE",
"74 564 LINE",
"42 317 LINE",
"152 324 LINE",
"155 399 LINE"
);
},
{
closed = 1;
nodes = (
"274 645 LINE",
"243 618 OFFCURVE",
"215 583 OFFCURVE",
"184 541 CURVE",
"171 541 LINE",
"149 421 LINE",
"194 501 OFFCURVE",
"229 537 OFFCURVE",
"245 537 CURVE SMOOTH",
"253 537 OFFCURVE",
"259 530 OFFCURVE",
"259 517 CURVE",
"258 510 LINE",
"226 317 LINE",
"340 324 LINE",
"343 400 LINE",
"370 562 LINE",
"370 572 LINE",
"371 609 OFFCURVE",
"338 637 OFFCURVE",
"283 646 CURVE"
);
}
);
width = 554;
}
);
},
{
glyphname = n.sups;
lastChange = "2016-12-19 13:36:26 +0000";
layers = (
{
anchors = (
{
name = bottom;
position = "{301, 0}";
},
{
name = ogonek;
position = "{270, 10}";
},
{
name = top;
position = "{341, 472}";
}
);
layerId = UUID0;
paths = (
{
closed = 1;
nodes = (
"182 394 LINE",
"182 394 LINE"
);
},
{
closed = 1;
nodes = (
"77 639 LINE",
"77 639 LINE",
"74 564 LINE",
"42 317 LINE",
"152 324 LINE",
"155 399 LINE",
"187 646 LINE"
);
},
{
closed = 1;
nodes = (
"274 645 LINE",
"242 618 OFFCURVE",
"214 583 OFFCURVE",
"183 541 CURVE",
"170 541 LINE",
"148 421 LINE",
"193 501 OFFCURVE",
"228 537 OFFCURVE",
"245 537 CURVE SMOOTH",
"253 537 OFFCURVE",
"259 530 OFFCURVE",
"259 517 CURVE",
"258 510 LINE",
"226 317 LINE",
"339 324 LINE",
"342 400 LINE",
"369 562 LINE",
"370 572 LINE",
"371 609 OFFCURVE",
"330 637 OFFCURVE",
"283 646 CURVE"
);
}
);
width = 362;
}
);
},
{
glyphname = o.sups;
lastChange = "2016-12-19 13:36:26 +0000";
layers = (
{
layerId = UUID0;
paths = (
{
closed = 1;
nodes = (
"227 651 LINE",
"227 651 LINE",
"111 645 OFFCURVE",
"38 565 OFFCURVE",
"38 442 CURVE SMOOTH",
"38 366 OFFCURVE",
"77 326 OFFCURVE",
"140 314 CURVE",
"150 312 LINE",
"268 318 OFFCURVE",
"340 398 OFFCURVE",
"340 529 CURVE SMOOTH",
"340 599 OFFCURVE",
"300 638 OFFCURVE",
"238 650 CURVE"
);
},
{
closed = 1;
nodes = (
"207 570 LINE",
"227 570 OFFCURVE",
"233 558 OFFCURVE",
"233 521 CURVE SMOOTH",
"233 432 OFFCURVE",
"220 391 OFFCURVE",
"172 391 CURVE SMOOTH",
"151 391 OFFCURVE",
"144 403 OFFCURVE",
"144 441 CURVE SMOOTH",
"144 529 OFFCURVE",
"157 570 OFFCURVE",
"207 570 CURVE SMOOTH"
);
}
);
width = 323;
}
);
},
{
glyphname = p.sups;
lastChange = "2016-12-19 13:36:26 +0000";
layers = (
{
anchors = (
{
name = bottom;
position = "{353, 0}";
},
{
name = top;
position = "{264, 472}";
}
);
layerId = UUID0;
paths = (
{
closed = 1;
nodes = (
"254 647 LINE",
"228 619 OFFCURVE",
"205 584 OFFCURVE",
"186 547 CURVE",
"167 547 LINE",
"147 402 LINE",
"190 500 OFFCURVE",
"223 552 OFFCURVE",
"239 552 CURVE SMOOTH",
"248 552 OFFCURVE",
"256 536 OFFCURVE",
"256 491 CURVE SMOOTH",
"256 433 OFFCURVE",
"239 391 OFFCURVE",
"208 391 CURVE",
"123 412 LINE",
"64 335 LINE",
"187 313 LINE",
"191 313 LINE",
"302 345 OFFCURVE",
"357 442 OFFCURVE",
"357 535 CURVE SMOOTH",
"357 593 OFFCURVE",
"336 629 OFFCURVE",
"269 647 CURVE"
);
},
{
closed = 1;
nodes = (
"187 646 LINE",
"187 646 LINE",
"77 639 LINE",
"74 564 LINE",
"24 186 LINE",
"135 193 LINE",
"138 268 LINE"
);
}
);
width = 338;
}
);
},
{
glyphname = q.sups;
lastChange = "2016-12-19 13:36:26 +0000";
layers = (
{
layerId = UUID0;
paths = (
{
closed = 1;
nodes = (
"211 647 LINE",
"211 647 LINE",
"206 647 LINE",
"89 614 OFFCURVE",
"35 514 OFFCURVE",
"35 425 CURVE SMOOTH",
"35 370 OFFCURVE",
"53 332 OFFCURVE",
"124 313 CURVE",
"139 313 LINE",
"165 341 OFFCURVE",
"187 376 OFFCURVE",
"207 412 CURVE",
"219 412 LINE",
"245 561 LINE",
"202 460 OFFCURVE",
"169 410 OFFCURVE",
"153 410 CURVE SMOOTH",
"145 410 OFFCURVE",
"137 427 OFFCURVE",
"137 468 CURVE SMOOTH",
"137 530 OFFCURVE",
"155 570 OFFCURVE",
"190 570 CURVE",
"271 552 LINE",
"328 629 LINE"
);
},
{
closed = 1;
nodes = (
"343 651 LINE",
"343 651 LINE",
"242 630 LINE",
"237 562 LINE",
"188 186 LINE",
"298 193 LINE",
"301 268 LINE",
"351 646 LINE"
);
}
);
width = 338;
}
);
},
{
glyphname = r.sups;
lastChange = "2016-12-19 13:36:26 +0000";
layers = (
{
anchors = (
{
name = bottom;
position = "{270, 10}";
},
{
name = ogonek;
position = "{186, 472}";
},
{
name = top;
position = "{183, 452}";
}
);
layerId = UUID0;
paths = (
{
closed = 1;
nodes = (
"281 645 LINE",
"281 645 LINE",
"245 628 OFFCURVE",
"215 595 OFFCURVE",
"185 545 CURVE",
"162 545 LINE",
"147 435 LINE",
"189 490 OFFCURVE",
"217 514 OFFCURVE",
"251 514 CURVE",
"274 510 LINE",
"283 514 LINE",
"300 642 LINE"
);
},
{
closed = 1;
nodes = (
"187 646 LINE",
"187 646 LINE",
"77 639 LINE",
"74 564 LINE",
"41 317 LINE",
"152 324 LINE",
"155 399 LINE"
);
}
);
width = 256;
}
);
},
{
glyphname = s.sups;
lastChange = "2016-12-19 13:36:26 +0000";
layers = (
{
anchors = (
{
name = bottom;
position = "{224, 0}";
},
{
name = top;
position = "{227, 469}";
}
);
layerId = UUID0;
paths = (
{
closed = 1;
nodes = (
"208 648 LINE",
"126 649 OFFCURVE",
"55 605 OFFCURVE",
"54 531 CURVE SMOOTH",
"55 454 OFFCURVE",
"170 438 OFFCURVE",
"175 404 CURVE SMOOTH",
"176 392 OFFCURVE",
"166 379 OFFCURVE",
"146 379 CURVE SMOOTH",
"121 379 OFFCURVE",
"87 395 OFFCURVE",
"60 424 CURVE",
"49 418 LINE",
"25 332 LINE",
"55 322 OFFCURVE",
"86 316 OFFCURVE",
"119 313 CURVE",
"206 313 OFFCURVE",
"271 360 OFFCURVE",
"271 425 CURVE SMOOTH",
"271 513 OFFCURVE",
"152 520 OFFCURVE",
"152 558 CURVE SMOOTH",
"152 570 OFFCURVE",
"162 580 OFFCURVE",
"179 580 CURVE SMOOTH",
"197 580 OFFCURVE",
"225 568 OFFCURVE",
"251 545 CURVE",
"266 551 LINE",
"289 632 LINE",
"263 640 OFFCURVE",
"236 646 OFFCURVE",
"208 648 CURVE"
);
}
);
width = 265;
}
);
},
{
glyphname = t.sups;
lastChange = "2016-12-19 13:36:26 +0000";
layers = (
{
anchors = (
{
name = bottom;
position = "{213, 0}";
},
{
name = center;
position = "{210, 236}";
}
);
layerId = UUID0;
paths = (
{
closed = 1;
nodes = (
"216 732 LINE",
"216 732 LINE",
"111 709 LINE",
"95 566 LINE",
"72 409 LINE",
"70 388 LINE",
"70 334 OFFCURVE",
"100 316 OFFCURVE",
"170 314 CURVE",
"182 315 LINE",
"214 335 OFFCURVE",
"240 363 OFFCURVE",
"262 399 CURVE",
"232 435 LINE",
"217 436 LINE",
"206 414 OFFCURVE",
"198 404 OFFCURVE",
"187 404 CURVE SMOOTH",
"180 404 OFFCURVE",
"176 408 OFFCURVE",
"176 415 CURVE",
"177 421 LINE",
"224 726 LINE"
);
},
{
closed = 1;
nodes = (
"286 638 LINE",
"286 638 LINE",
"53 638 LINE",
"46 584 LINE",
"52 577 LINE",
"287 577 LINE",
"294 629 LINE"
);
}
);
width = 249;
}
);
},
{
glyphname = u.sups;
lastChange = "2016-12-19 13:36:26 +0000";
layers = (
{
anchors = (
{
name = bottom;
position = "{551, 10}";
},
{
name = ogonek;
position = "{352, 472}";
},
{
name = top;
position = "{288, 452}";
}
);
layerId = UUID0;
paths = (
{
closed = 1;
nodes = (
"188 645 LINE",
"188 645 LINE",
"75 638 LINE",
"71 562 LINE",
"45 402 LINE",
"44 389 LINE",
"44 351 OFFCURVE",
"78 323 OFFCURVE",
"133 316 CURVE",
"142 317 LINE",
"173 344 OFFCURVE",
"199 376 OFFCURVE",
"227 417 CURVE",
"251 417 LINE",
"266 542 LINE",
"219 462 OFFCURVE",
"187 424 OFFCURVE",
"170 424 CURVE SMOOTH",
"161 424 OFFCURVE",
"156 431 OFFCURVE",
"156 444 CURVE",
"157 453 LINE"
);
},
{
closed = 1;
nodes = (
"368 646 LINE",
"368 646 LINE",
"258 639 LINE",
"255 564 LINE",
"222 317 LINE",
"332 324 LINE",
"336 399 LINE"
);
}
);
width = 355;
}
);
},
{
glyphname = v.sups;
lastChange = "2016-12-19 13:36:26 +0000";
layers = (
{
layerId = UUID0;
paths = (
{
closed = 1;
nodes = (
"236 629 LINE",
"243 616 OFFCURVE",
"246 603 OFFCURVE",
"246 589 CURVE SMOOTH",
"246 568 OFFCURVE",
"239 546 OFFCURVE",
"227 518 CURVE SMOOTH",
"183 429 LINE",
"174 429 LINE",
"164 585 LINE",
"163 646 LINE",
"53 640 LINE",
"96 320 LINE",
"222 320 LINE",
"320 492 LINE SMOOTH",
"341 530 OFFCURVE",
"352 563 OFFCURVE",
"352 594 CURVE SMOOTH",
"352 612 OFFCURVE",
"348 630 OFFCURVE",
"340 648 CURVE"
);
}
);
width = 322;
}
);
},
{
glyphname = w.sups;
lastChange = "2016-12-19 13:36:26 +0000";
layers = (
{
anchors = (
{
name = top;
position = "{400, 472}";
}
);
layerId = UUID0;
paths = (
{
closed = 1;
nodes = (
"428 629 LINE",
"435 615 OFFCURVE",
"439 600 OFFCURVE",
"439 585 CURVE SMOOTH",
"439 566 OFFCURVE",
"433 544 OFFCURVE",
"422 518 CURVE SMOOTH",
"387 439 LINE",
"378 439 LINE",
"370 591 LINE",
"369 643 LINE",
"252 643 LINE",
"233 584 LINE",
"179 439 LINE",
"169 439 LINE",
"162 591 LINE",
"162 646 LINE",
"53 640 LINE",
"93 320 LINE",
"213 320 LINE",
"281 501 LINE",
"290 501 LINE",
"303 320 LINE",
"425 320 LINE",
"516 492 LINE SMOOTH",
"535 529 OFFCURVE",
"545 560 OFFCURVE",
"545 590 CURVE SMOOTH",
"545 609 OFFCURVE",
"541 628 OFFCURVE",
"532 648 CURVE"
);
}
);
width = 515;
}
);
},
{
glyphname = x.sups;
lastChange = "2016-12-19 13:36:26 +0000";
layers = (
{
layerId = UUID0;
paths = (
{
closed = 1;
nodes = (
"266 483 LINE",
"266 483 LINE",
"380 643 LINE",
"264 643 LINE",
"249 611 LINE",
"212 557 LINE",
"188 614 LINE",
"178 650 LINE",
"59 640 LINE",
"125 489 LINE",
"9 320 LINE",
"129 320 LINE",
"148 361 LINE",
"186 421 LINE",
"209 359 LINE",
"218 314 LINE",
"342 323 LINE"
);
}
);
width = 345;
}
);
},
{
glyphname = y.sups;
lastChange = "2016-12-19 13:36:26 +0000";
layers = (
{
anchors = (
{
name = top;
position = "{267, 472}";
}
);
layerId = UUID0;
paths = (
{
closed = 1;
nodes = (
"244 629 LINE",
"251 616 OFFCURVE",
"254 604 OFFCURVE",
"254 589 CURVE SMOOTH",
"254 567 OFFCURVE",
"247 541 OFFCURVE",
"234 507 CURVE SMOOTH",
"166 352 LINE SMOOTH",
"141 307 OFFCURVE",
"97 288 OFFCURVE",
"51 288 CURVE SMOOTH",
"31 288 OFFCURVE",
"11 291 OFFCURVE",
"-11 297 CURVE",
"-20 287 LINE",
"-14 196 LINE",
"9 188 OFFCURVE",
"33 184 OFFCURVE",
"56 184 CURVE SMOOTH",
"132 184 OFFCURVE",
"186 229 OFFCURVE",
"259 360 CURVE SMOOTH",
"312 459 LINE SMOOTH",
"345 519 OFFCURVE",
"359 560 OFFCURVE",
"359 595 CURVE SMOOTH",
"359 614 OFFCURVE",
"355 631 OFFCURVE",
"348 648 CURVE"
);
},
{
closed = 1;
nodes = (
"162 646 LINE",
"162 646 LINE",
"51 640 LINE",
"138 260 LINE",
"258 433 LINE",
"191 433 LINE",
"168 585 LINE"
);
}
);
width = 329;
}
);
},
{
glyphname = z.sups;
lastChange = "2016-12-19 13:36:26 +0000";
layers = (
{
anchors = (
{
name = top;
position = "{259, 476}";
}
);
layerId = UUID0;
paths = (
{
closed = 1;
nodes = (
"301 657 LINE",
"301 657 LINE",
"274 642 LINE",
"152 646 LINE",
"83 651 LINE",
"73 644 LINE",
"55 553 LINE",
"63 545 LINE",
"114 554 LINE",
"176 556 LINE",
"8 344 LINE",
"40 315 LINE",
"54 315 LINE",
"72 330 OFFCURVE",
"81 336 OFFCURVE",
"98 336 CURVE SMOOTH",
"130 336 OFFCURVE",
"167 313 OFFCURVE",
"214 313 CURVE SMOOTH",
"273 313 OFFCURVE",
"314 348 OFFCURVE",
"316 455 CURVE",
"272 467 LINE",
"259 463 LINE",
"253 420 OFFCURVE",
"241 410 OFFCURVE",
"212 410 CURVE SMOOTH",
"206 410 OFFCURVE",
"180 414 OFFCURVE",
"175 414 CURVE",
"157 410 LINE",
"333 626 LINE"
);
}
);
width = 307;
}
);
},
{
glyphname = f.t;
lastChange = "2016-12-19 13:36:26 +0000";
layers = (
{
anchors = (
{
name = bottom;
position = "{171, 0}";
},
{
name = top;
position = "{279, 749}";
}
);
layerId = UUID0;
paths = (
{
closed = 1;
nodes = (
"370 702 LINE",
"218 702 OFFCURVE",
"123 624 OFFCURVE",
"106 466 CURVE SMOOTH",
"77 190 LINE",
"38 -108 LINE",
"216 -97 LINE",
"220 12 LINE",
"245 210 LINE",
"288 508 LINE SMOOTH",
"295 555 OFFCURVE",
"311 574 OFFCURVE",
"339 574 CURVE SMOOTH",
"354 574 OFFCURVE",
"373 567 OFFCURVE",
"405 549 CURVE",
"428 557 LINE",
"476 678 LINE",
"467 692 LINE"
);
},
{
closed = 1;
nodes = (
"555 463 LINE",
"37 463 LINE",
"25 373 LINE",
"33 362 LINE",
"554 362 LINE",
"567 449 LINE"
);
}
);
width = 338;
}
);
leftKerningGroup = f;
},
{
glyphname = f_j;
lastChange = "2016-12-19 13:36:26 +0000";
layers = (
{
anchors = (
{
name = bottom_1;
position = "{122, 0}";
},
{
name = bottom_2;
position = "{425, 0}";
},
{
name = caret_1;
position = "{303, 0}";
},
{
name = top_1;
position = "{180, 472}";
},
{
name = top_2;
position = "{483, 472}";
}
);
layerId = UUID0;
paths = (
{
closed = 1;
nodes = (
"376 702 LINE",
"222 702 OFFCURVE",
"126 624 OFFCURVE",
"106 466 CURVE",
"77 190 LINE",
"38 -108 LINE",
"216 -97 LINE",
"220 12 LINE",
"245 210 LINE",
"288 508 LINE",
"296 555 OFFCURVE",
"316 574 OFFCURVE",
"349 574 CURVE SMOOTH",
"372 574 OFFCURVE",
"402 563 OFFCURVE",
"452 536 CURVE",
"475 544 LINE",
"520 669 LINE",
"514 680 LINE"
);
},
{
closed = 1;
nodes = (
"485 463 LINE",
"37 463 LINE",
"25 373 LINE",
"33 362 LINE",
"484 362 LINE",
"497 449 LINE"
);
},
{
closed = 1;
nodes = (
"573 479 LINE",
"403 456 LINE",
"399 352 LINE",
"357 24 LINE",
"535 116 LINE",
"580 471 LINE"
);
},
{
closed = 1;
nodes = (
"535 116 LINE",
"357 24 LINE",
"349 -37 OFFCURVE",
"321 -76 OFFCURVE",
"272 -101 CURVE",
"270 -117 LINE",
"325 -197 LINE",
"451 -145 OFFCURVE",
"514 -73 OFFCURVE",
"527 34 CURVE"
);
}
);
width = 601;
}
);
leftKerningGroup = f;
rightKerningGroup = f_j;
},
{
glyphname = fi;
lastChange = "2016-12-19 13:36:04 +0000";
layers = (
{
anchors = (
{
name = _top;
position = "{493, 472}";
},
{
name = ogonek;
position = "{541, 10}";
},
{
name = top;
position = "{493, 472}";
}
);
layerId = UUID0;
paths = (
{
closed = 1;
nodes = (
"376 702 LINE",
"222 702 OFFCURVE",
"126 624 OFFCURVE",
"106 466 CURVE",
"77 190 LINE",
"38 -108 LINE",
"216 -97 LINE",
"220 12 LINE",
"245 210 LINE",
"288 508 LINE",
"296 555 OFFCURVE",
"316 574 OFFCURVE",
"349 574 CURVE SMOOTH",
"372 574 OFFCURVE",
"402 563 OFFCURVE",
"452 536 CURVE",
"475 544 LINE",
"520 669 LINE",
"514 680 LINE"
);
},
{
closed = 1;
nodes = (
"485 463 LINE",
"37 463 LINE",
"25 373 LINE",
"33 362 LINE",
"484 362 LINE",
"497 449 LINE"
);
},
{
closed = 1;
nodes = (
"573 479 LINE",
"403 456 LINE",
"399 352 LINE",
"352 -4 LINE",
"530 7 LINE",
"535 116 LINE",
"580 471 LINE"
);
}
);
width = 596;
}
);
leftKerningGroup = f;
rightKerningGroup = fi;
unicode = FB01;
},
{
glyphname = a.sc;
lastChange = "2016-12-19 13:36:26 +0000";
layers = (
{
anchors = (
{
name = bottom;
position = "{244, 0}";
},
{
name = ogonek;
position = "{506, 0}";
},
{
name = top;
position = "{307, 513}";
}
);
layerId = UUID0;
paths = (
{
closed = 1;
nodes = (
"423 513 LINE",
"202 513 LINE",
"-22 0 LINE",
"156 0 LINE",
"185 104 LINE",
"283 351 LINE",
"294 351 LINE",
"318 93 LINE",
"321 0 LINE",
"506 0 LINE"
);
},
{
closed = 1;
nodes = (
"349 207 LINE",
"266 205 LINE",
"166 207 LINE",
"149 71 LINE",
"240 75 LINE",
"334 73 LINE"
);
}
);
width = 550;
}
);
leftKerningGroup = A;
rightKerningGroup = A;
},
{
glyphname = ae.sc;
lastChange = "2016-12-19 13:36:26 +0000";
layers = (
{
anchors = (
{
name = top;
position = "{466, 513}";
}
);
layerId = UUID0;
paths = (
{
closed = 1;
nodes = (
"705 512 LINE",
"264 512 LINE",
"-39 0 LINE",
"126 0 LINE",
"166 98 LINE",
"320 362 LINE",
"331 362 LINE",
"324 88 LINE",
"316 0 LINE",
"688 0 LINE",
"713 122 LINE",
"706 134 LINE",
"563 129 LINE",
"484 129 LINE",
"494 383 LINE",
"559 383 LINE",
"688 377 LINE",
"714 499 LINE"
);
},
{
closed = 1;
nodes = (
"643 346 LINE",
"459 293 LINE",
"141 203 LINE",
"85 64 LINE",
"462 171 LINE",
"654 221 LINE",
"654 336 LINE"
);
}
);
width = 724;
}
);
leftKerningGroup = A;
rightKerningGroup = AE;
},
{
glyphname = b.sc;
lastChange = "2016-12-19 13:36:26 +0000";
layers = (
{
layerId = UUID0;
paths = (
{
closed = 1;
nodes = (
"87 513 LINE",
"176 386 LINE",
"229 389 OFFCURVE",
"247 389 OFFCURVE",
"283 389 CURVE SMOOTH",
"324 389 OFFCURVE",
"338 385 OFFCURVE",
"338 357 CURVE SMOOTH",
"338 332 OFFCURVE",
"327 317 OFFCURVE",
"305 307 CURVE",
"127 315 LINE",
"111 188 LINE",
"311 192 LINE",
"325 181 OFFCURVE",
"329 172 OFFCURVE",
"329 161 CURVE SMOOTH",
"329 132 OFFCURVE",
"303 117 OFFCURVE",
"266 117 CURVE",
"243 117 OFFCURVE",
"186 122 OFFCURVE",
"153 129 CURVE",
"24 0 LINE",
"95 -3 OFFCURVE",
"202 -6 OFFCURVE",
"244 -6 CURVE SMOOTH",
"424 -6 OFFCURVE",
"520 45 OFFCURVE",
"520 140 CURVE SMOOTH",
"520 207 OFFCURVE",
"488 238 OFFCURVE",
"437 263 CURVE",
"500 291 OFFCURVE",
"534 337 OFFCURVE",
"534 392 CURVE SMOOTH",
"534 471 OFFCURVE",
"461 513 OFFCURVE",
"347 513 CURVE SMOOTH"
);
},
{
closed = 1;
nodes = (
"269 513 LINE",
"87 513 LINE",
"52 149 LINE",
"24 0 LINE",
"206 0 LINE",
"220 168 LINE"
);
}
);
width = 559;
}
);
leftKerningGroup = B;
rightKerningGroup = B;
},
{
glyphname = c.sc;
lastChange = "2016-12-19 13:36:26 +0000";
layers = (
{
anchors = (
{
name = bottom;
position = "{280, 0}";
},
{
name = top;
position = "{302, 513}";
}
);
layerId = UUID0;
paths = (
{
closed = 1;
nodes = (
"335 522 LINE",
"128 522 OFFCURVE",
"18 403 OFFCURVE",
"18 224 CURVE SMOOTH",
"18 71 OFFCURVE",
"98 -10 OFFCURVE",
"287 -10 CURVE SMOOTH",
"308 -10 OFFCURVE",
"342 -9 OFFCURVE",
"381 -2 CURVE",
"414 149 LINE",
"400 158 LINE",
"371 149 OFFCURVE",
"329 143 OFFCURVE",
"302 143 CURVE SMOOTH",
"236 143 OFFCURVE",
"217 179 OFFCURVE",
"217 250 CURVE SMOOTH",
"217 337 OFFCURVE",
"246 372 OFFCURVE",
"312 372 CURVE SMOOTH",
"348 372 OFFCURVE",
"387 362 OFFCURVE",
"413 347 CURVE",
"426 355 LINE",
"475 506 LINE",
"437 516 OFFCURVE",
"381 522 OFFCURVE",
"335 522 CURVE SMOOTH"
);
}
);
width = 448;
}
);
leftKerningGroup = C;
rightKerningGroup = C;
},
{
glyphname = d.sc;
lastChange = "2016-12-19 13:36:26 +0000";
layers = (
{
anchors = (
{
name = bottom;
position = "{257, 0}";
},
{
name = center;
position = "{264, 257}";
},
{
name = top;
position = "{310, 513}";
}
);
layerId = UUID0;
paths = (
{
closed = 1;
nodes = (
"87 513 LINE",
"236 367 LINE",
"266 371 OFFCURVE",
"287 372 OFFCURVE",
"307 372 CURVE SMOOTH",
"349 372 OFFCURVE",
"367 351 OFFCURVE",
"367 285 CURVE SMOOTH",
"367 160 OFFCURVE",
"333 129 OFFCURVE",
"284 129 CURVE SMOOTH",
"263 129 OFFCURVE",
"227 135 OFFCURVE",
"202 140 CURVE",
"24 0 LINE",
"92 -4 OFFCURVE",
"185 -8 OFFCURVE",
"243 -8 CURVE SMOOTH",
"454 -8 OFFCURVE",
"564 113 OFFCURVE",
"564 313 CURVE SMOOTH",
"564 443 OFFCURVE",
"476 516 OFFCURVE",
"331 516 CURVE"
);
},
{
closed = 1;
nodes = (
"276 513 LINE",
"87 513 LINE",
"51 149 LINE",
"24 0 LINE",
"210 0 LINE",
"222 168 LINE"
);
}
);
width = 576;
}
);
leftKerningGroup = B;
rightKerningGroup = D;
},
{
glyphname = eth.sc;
lastChange = "2016-12-19 13:36:26 +0000";
layers = (
{
anchors = (
{
name = bottom;
position = "{271, 0}";
},
{
name = center;
position = "{278, 257}";
},
{
name = top;
position = "{324, 513}";
}
);
layerId = UUID0;
paths = (
{
closed = 1;
nodes = (
"344 308 LINE",
"23 308 LINE",
"3 208 LINE",
"11 195 LINE",
"331 195 LINE",
"351 295 LINE"
);
},
{
closed = 1;
nodes = (
"101 513 LINE",
"250 367 LINE",
"280 371 OFFCURVE",
"301 372 OFFCURVE",
"321 372 CURVE SMOOTH",
"363 372 OFFCURVE",
"381 351 OFFCURVE",
"381 285 CURVE SMOOTH",
"381 160 OFFCURVE",
"347 129 OFFCURVE",
"298 129 CURVE SMOOTH",
"277 129 OFFCURVE",
"241 135 OFFCURVE",
"216 140 CURVE",
"38 0 LINE",
"106 -4 OFFCURVE",
"199 -8 OFFCURVE",
"257 -8 CURVE SMOOTH",
"468 -8 OFFCURVE",
"578 113 OFFCURVE",
"578 313 CURVE SMOOTH",
"578 443 OFFCURVE",
"490 516 OFFCURVE",
"345 516 CURVE"
);
},
{
closed = 1;
nodes = (
"290 513 LINE",
"101 513 LINE",
"65 149 LINE",
"38 0 LINE",
"224 0 LINE",
"236 168 LINE"
);
}
);
width = 590;
}
);
leftKerningGroup = B;
rightKerningGroup = D;
},
{
glyphname = e.sc;
lastChange = "2016-12-19 13:36:26 +0000";
layers = (
{
anchors = (
{
name = bottom;
position = "{240, 0}";
},
{
name = ogonek;
position = "{412, 40}";
},
{
name = top;
position = "{271, 513}";
}
);
layerId = UUID0;
paths = (
{
closed = 1;
nodes = (
"276 513 LINE",
"87 513 LINE",
"52 149 LINE",
"24 0 LINE",
"210 0 LINE",
"223 168 LINE"
);
},
{
closed = 1;
nodes = (
"440 147 LINE",
"300 142 LINE",
"166 142 LINE",
"150 10 LINE",
"148 0 LINE",
"421 0 LINE",
"449 135 LINE"
);
},
{
closed = 1;
nodes = (
"415 330 LINE",
"327 327 LINE",
"197 327 LINE",
"182 195 LINE",
"180 185 LINE",
"298 185 LINE",
"396 182 LINE",
"423 317 LINE"
);
},
{
closed = 1;
nodes = (
"491 513 LINE",
"211 513 LINE",
"195 381 LINE",
"194 371 LINE",
"338 371 LINE",
"472 365 LINE",
"500 500 LINE"
);
}
);
width = 481;
}
);
leftKerningGroup = B;
rightKerningGroup = AE;
},
{
glyphname = schwa.sc;
lastChange = "2016-12-19 13:36:26 +0000";
layers = (
{
layerId = UUID0;
paths = (
{
closed = 1;
nodes = (
"281 520 LINE",
"226 520 OFFCURVE",
"170 513 OFFCURVE",
"112 496 CURVE",
"61 356 LINE",
"76 345 LINE",
"149 364 OFFCURVE",
"206 373 OFFCURVE",
"250 373 CURVE SMOOTH",
"324 373 OFFCURVE",
"355 348 OFFCURVE",
"355 276 CURVE SMOOTH",
"355 176 OFFCURVE",
"329 123 OFFCURVE",
"251 123 CURVE SMOOTH",
"205 123 OFFCURVE",
"183 149 OFFCURVE",
"187 180 CURVE",
"191 195 LINE",
"370 200 LINE",
"383 301 LINE",
"56 298 LINE",
"29 270 LINE",
"19 232 OFFCURVE",
"12 208 OFFCURVE",
"12 178 CURVE SMOOTH",
"12 72 OFFCURVE",
"92 -10 OFFCURVE",
"231 -10 CURVE SMOOTH",
"418 -10 OFFCURVE",
"541 106 OFFCURVE",
"541 289 CURVE SMOOTH",
"541 434 OFFCURVE",
"445 520 OFFCURVE",
"281 520 CURVE SMOOTH"
);
}
);
width = 555;
}
);
},
{
glyphname = f.sc;
lastChange = "2016-12-19 13:36:26 +0000";
layers = (
{
layerId = UUID0;
paths = (
{
closed = 1;
nodes = (
"272 513 LINE",
"83 513 LINE",
"48 149 LINE",
"20 0 LINE",
"206 0 LINE",
"219 168 LINE"
);
},
{
closed = 1;
nodes = (
"391 308 LINE",
"292 305 LINE",
"191 305 LINE",
"173 163 LINE",
"261 163 LINE",
"372 160 LINE",
"400 295 LINE"
);
},
{
closed = 1;
nodes = (
"459 513 LINE",
"207 513 LINE",
"191 381 LINE",
"190 371 LINE",
"304 371 LINE",
"439 365 LINE",
"468 500 LINE"
);
}
);
width = 426;
}
);
leftKerningGroup = B;
rightKerningGroup = F;
},
{
glyphname = g.sc;
lastChange = "2016-12-19 13:36:26 +0000";
layers = (
{
anchors = (
{
name = bottom;
position = "{280, 0}";
},
{
name = top;
position = "{296, 513}";
}
);
layerId = UUID0;
paths = (
{
closed = 1;
nodes = (
"359 522 LINE",
"134 522 OFFCURVE",
"17 412 OFFCURVE",
"17 231 CURVE SMOOTH",
"17 72 OFFCURVE",
"107 -11 OFFCURVE",
"270 -11 CURVE SMOOTH",
"332 -11 OFFCURVE",
"393 1 OFFCURVE",
"462 26 CURVE",
"480 173 LINE",
"491 243 LINE",
"321 232 LINE",
"312 141 LINE",
"310 128 LINE",
"308 129 OFFCURVE",
"307 128 OFFCURVE",
"292 128 CURVE SMOOTH",
"221 128 OFFCURVE",
"211 152 OFFCURVE",
"211 220 CURVE SMOOTH",
"211 359 OFFCURVE",
"253 375 OFFCURVE",
"313 375 CURVE SMOOTH",
"365 375 OFFCURVE",
"399 363 OFFCURVE",
"449 339 CURVE",
"463 339 LINE",
"523 502 LINE",
"473 515 OFFCURVE",
"416 522 OFFCURVE",
"359 522 CURVE SMOOTH"
);
}
);
width = 515;
}
);
leftKerningGroup = C;
rightKerningGroup = G;
},
{
glyphname = h.sc;
lastChange = "2016-12-19 13:36:26 +0000";
layers = (
{
anchors = (
{
name = bottom;
position = "{277, 0}";
},
{
name = center;
position = "{338, 257}";
},
{
name = top;
position = "{338, 513}";
},
{
name = topleft;
position = "{51, 513}";
}
);
layerId = UUID0;
paths = (
{
closed = 1;
nodes = (
"597 513 LINE",
"408 513 LINE",
"372 149 LINE",
"345 0 LINE",
"531 0 LINE",
"544 168 LINE"
);
},
{
closed = 1;
nodes = (
"277 513 LINE",
"88 513 LINE",
"52 149 LINE",
"25 0 LINE",
"211 0 LINE",
"223 168 LINE"
);
},
{
closed = 1;
nodes = (
"225 329 LINE",
"206 177 LINE",
"295 180 LINE",
"386 178 LINE",
"405 328 LINE",
"323 326 LINE"
);
}
);
width = 615;
}
);
leftKerningGroup = B;
rightKerningGroup = H;
},
{
glyphname = hbar.sc;
lastChange = "2016-12-19 13:36:26 +0000";
layers = (
{
anchors = (
{
name = bottom;
position = "{277, 0}";
},
{
name = center;
position = "{338, 257}";
},
{
name = top;
position = "{338, 513}";
},
{
name = topleft;
position = "{51, 513}";
}
);
layerId = UUID0;
paths = (
{
closed = 1;
nodes = (
"638 459 LINE",
"29 459 LINE",
"13 375 LINE",
"19 366 LINE",
"628 366 LINE",
"644 450 LINE"
);
},
{
closed = 1;
nodes = (
"597 513 LINE",
"408 513 LINE",
"372 149 LINE",
"345 0 LINE",
"531 0 LINE",
"544 168 LINE"
);
},
{
closed = 1;
nodes = (
"277 513 LINE",
"88 513 LINE",
"52 149 LINE",
"25 0 LINE",
"211 0 LINE",
"223 168 LINE"
);
},
{
closed = 1;
nodes = (
"225 329 LINE",
"206 177 LINE",
"295 180 LINE",
"386 178 LINE",
"405 328 LINE",
"323 326 LINE"
);
}
);
width = 615;
}
);
leftKerningGroup = B;
rightKerningGroup = H;
},
{
glyphname = i.sc;
lastChange = "2016-12-19 13:36:26 +0000";
layers = (
{
anchors = (
{
name = bottom;
position = "{121, 0}";
},
{
name = ogonek;
position = "{211, 0}";
},
{
name = top;
position = "{183, 513}";
}
);
layerId = UUID0;
paths = (
{
closed = 1;
nodes = (
"277 513 LINE",
"88 513 LINE",
"52 149 LINE",
"25 0 LINE",
"211 0 LINE",
"223 168 LINE"
);
}
);
width = 304;
}
);
leftKerningGroup = B;
rightKerningGroup = H;
},
{
glyphname = j.sc;
lastChange = "2016-12-19 13:36:26 +0000";
layers = (
{
layerId = UUID0;
paths = (
{
closed = 1;
nodes = (
"308 513 LINE",
"121 513 LINE",
"85 150 LINE",
"78 100 LINE",
"73 56 OFFCURVE",
"51 33 OFFCURVE",
"-9 10 CURVE",
"-10 -4 LINE",
"29 -99 LINE",
"184 -52 OFFCURVE",
"238 -1 OFFCURVE",
"251 99 CURVE",
"257 168 LINE"
);
},
{
closed = 1;
nodes = (
"141 513 LINE",
"47 513 LINE",
"21 386 LINE",
"29 375 LINE",
"126 378 LINE"
);
}
);
width = 346;
}
);
leftKerningGroup = J;
rightKerningGroup = H;
},
{
glyphname = k.sc;
lastChange = "2016-12-19 13:36:26 +0000";
layers = (
{
anchors = (
{
name = bottom;
position = "{267, 0}";
}
);
layerId = UUID0;
paths = (
{
closed = 1;
nodes = (
"582 513 LINE",
"387 513 LINE",
"352 454 LINE",
"218 272 LINE",
"217 261 LINE",
"252 172 OFFCURVE",
"289 87 OFFCURVE",
"327 1 CURVE",
"347 -10 LINE",
"409 -5 OFFCURVE",
"472 5 OFFCURVE",
"535 19 CURVE",
"541 39 LINE",
"491 114 OFFCURVE",
"444 187 OFFCURVE",
"402 266 CURVE"
);
},
{
closed = 1;
nodes = (
"276 513 LINE",
"87 513 LINE",
"51 149 LINE",
"24 0 LINE",
"210 0 LINE",
"223 168 LINE"
);
}
);
width = 556;
}
);
leftKerningGroup = B;
rightKerningGroup = k.sc;
},
{
glyphname = l.sc;
lastChange = "2016-12-19 13:36:26 +0000";
layers = (
{
anchors = (
{
name = bottom;
position = "{188, 0}";
},
{
name = center;
position = "{202, 257}";
},
{
name = top;
position = "{173, 513}";
},
{
name = topright;
position = "{406, 215}";
}
);
layerId = UUID0;
paths = (
{
closed = 1;
nodes = (
"271 513 LINE",
"82 513 LINE",
"47 149 LINE",
"19 0 LINE",
"205 0 LINE",
"218 168 LINE"
);
},
{
closed = 1;
nodes = (
"372 151 LINE",
"153 151 LINE",
"136 10 LINE",
"134 0 LINE",
"352 0 LINE",
"381 139 LINE"
);
}
);
width = 403;
}
);
leftKerningGroup = B;
rightKerningGroup = L;
},
{
glyphname = ldot.sc;
lastChange = "2016-12-19 13:36:26 +0000";
layers = (
{
anchors = (
{
name = bottom;
position = "{188, 0}";
},
{
name = center;
position = "{202, 257}";
},
{
name = top;
position = "{173, 513}";
},
{
name = topright;
position = "{406, 215}";
}
);
layerId = UUID0;
paths = (
{
closed = 1;
nodes = (
"182 -89 LINE"
);
},
{
closed = 1;
nodes = (
"271 513 LINE",
"82 513 LINE",
"47 149 LINE",
"19 0 LINE",
"205 0 LINE",
"218 168 LINE"
);
},
{
closed = 1;
nodes = (
"372 151 LINE",
"153 151 LINE",
"136 10 LINE",
"134 0 LINE",
"352 0 LINE",
"381 139 LINE"
);
},
{
closed = 1;
nodes = (
"384 436 LINE",
"321 436 OFFCURVE",
"282 396 OFFCURVE",
"282 332 CURVE SMOOTH",
"282 271 OFFCURVE",
"315 237 OFFCURVE",
"376 237 CURVE SMOOTH",
"438 237 OFFCURVE",
"477 277 OFFCURVE",
"477 341 CURVE SMOOTH",
"477 401 OFFCURVE",
"443 436 OFFCURVE",
"384 436 CURVE SMOOTH"
);
}
);
width = 464;
}
);
leftKerningGroup = B;
},
{
glyphname = lslash.sc;
lastChange = "2016-12-19 13:36:26 +0000";
layers = (
{
anchors = (
{
name = bottom;
position = "{198, 0}";
},
{
name = center;
position = "{212, 257}";
},
{
name = top;
position = "{183, 513}";
},
{
name = topright;
position = "{416, 215}";
}
);
layerId = UUID0;
paths = (
{
closed = 1;
nodes = (
"344 386 LINE",
"-2 256 LINE",
"1 156 LINE",
"14 147 LINE",
"360 278 LINE",
"356 377 LINE"
);
},
{
closed = 1;
nodes = (
"281 513 LINE",
"92 513 LINE",
"57 149 LINE",
"29 0 LINE",
"215 0 LINE",
"228 168 LINE"
);
},
{
closed = 1;
nodes = (
"382 151 LINE",
"163 151 LINE",
"146 10 LINE",
"144 0 LINE",
"362 0 LINE",
"391 139 LINE"
);
}
);
width = 413;
}
);
leftKerningGroup = B;
rightKerningGroup = L;
},
{
glyphname = m.sc;
lastChange = "2016-12-19 13:36:26 +0000";
layers = (
{
anchors = (
{
name = bottom;
position = "{315, 0}";
},
{
name = top;
position = "{377, 513}";
}
);
layerId = UUID0;
paths = (
{
closed = 1;
nodes = (
"656 513 LINE",
"444 513 LINE",
"416 433 LINE",
"357 285 LINE",
"346 285 LINE",
"331 441 LINE",
"326 513 LINE",
"110 513 LINE",
"-5 0 LINE",
"151 0 LINE",
"178 173 LINE",
"196 247 LINE",
"207 247 LINE",
"242 44 LINE",
"381 44 LINE",
"483 247 LINE",
"493 247 LINE",
"489 155 LINE",
"471 0 LINE",
"635 0 LINE"
);
}
);
width = 692;
}
);
leftKerningGroup = M;
rightKerningGroup = M;
},
{
glyphname = n.sc;
lastChange = "2016-12-19 13:36:26 +0000";
layers = (
{
anchors = (
{
name = bottom;
position = "{277, 0}";
},
{
name = top;
position = "{338, 513}";
}
);
layerId = UUID0;
paths = (
{
closed = 1;
nodes = (
"598 516 LINE",
"428 506 LINE",
"406 273 LINE",
"395 273 LINE",
"286 513 LINE",
"87 513 LINE",
"52 150 LINE",
"24 0 LINE",
"190 0 LINE",
"207 189 LINE",
"214 240 LINE",
"223 240 LINE",
"332 0 LINE",
"531 0 LINE",
"545 171 LINE"
);
}
);
width = 616;
}
);
leftKerningGroup = B;
rightKerningGroup = H;
},
{
glyphname = eng.sc;
lastChange = "2016-12-19 13:36:26 +0000";
layers = (
{
layerId = UUID0;
paths = (
{
closed = 1;
nodes = (
"596 516 LINE",
"424 506 LINE",
"404 300 LINE",
"393 300 LINE",
"291 513 LINE",
"89 513 LINE",
"54 150 LINE",
"26 0 LINE",
"194 0 LINE",
"211 190 LINE",
"215 236 LINE",
"226 236 LINE",
"347 -9 LINE",
"337 -27 OFFCURVE",
"317 -41 OFFCURVE",
"286 -56 CURVE",
"285 -70 LINE",
"334 -146 LINE",
"473 -101 OFFCURVE",
"521 -51 OFFCURVE",
"533 44 CURVE",
"543 172 LINE"
);
}
);
width = 615;
}
);
leftKerningGroup = B;
rightKerningGroup = H;
},
{
glyphname = o.sc;
lastChange = "2016-12-19 13:36:26 +0000";
layers = (
{
anchors = (
{
name = bottom;
position = "{253, 0}";
},
{
name = center;
position = "{284, 257}";
},
{
name = ogonek;
position = "{432, 43}";
},
{
name = top;
position = "{312, 513}";
},
{
name = topleft;
position = "{51, 513}";
},
{
name = topright;
position = "{579, 513}";
}
);
layerId = UUID0;
paths = (
{
closed = 1;
nodes = (
"318 523 LINE",
"125 523 OFFCURVE",
"17 397 OFFCURVE",
"17 222 CURVE SMOOTH",
"17 63 OFFCURVE",
"106 -11 OFFCURVE",
"253 -11 CURVE SMOOTH",
"446 -11 OFFCURVE",
"554 118 OFFCURVE",
"554 292 CURVE SMOOTH",
"554 450 OFFCURVE",
"465 523 OFFCURVE",
"318 523 CURVE SMOOTH"
);
},
{
closed = 1;
nodes = (
"295 376 LINE",
"348 376 OFFCURVE",
"359 358 OFFCURVE",
"359 279 CURVE SMOOTH",
"359 140 OFFCURVE",
"325 126 OFFCURVE",
"277 126 CURVE SMOOTH",
"223 126 OFFCURVE",
"211 143 OFFCURVE",
"211 224 CURVE SMOOTH",
"211 361 OFFCURVE",
"246 376 OFFCURVE",
"295 376 CURVE SMOOTH"
);
}
);
width = 568;
}
);
leftKerningGroup = C;
rightKerningGroup = D;
},
{
glyphname = ohorn.sc;
lastChange = "2016-12-19 13:36:26 +0000";
layers = (
{
anchors = (
{
name = bottom;
position = "{258, 0}";
},
{
name = top;
position = "{290, 513}";
}
);
layerId = UUID0;
paths = (
{
closed = 1;
nodes = (
"481 582 LINE",
"493 572 OFFCURVE",
"499 556 OFFCURVE",
"499 541 CURVE SMOOTH",
"499 518 OFFCURVE",
"488 502 OFFCURVE",
"460 502 CURVE SMOOTH",
"428 502 OFFCURVE",
"374 523 OFFCURVE",
"304 523 CURVE SMOOTH",
"137 523 OFFCURVE",
"17 405 OFFCURVE",
"17 207 CURVE SMOOTH",
"17 70 OFFCURVE",
"105 -11 OFFCURVE",
"253 -11 CURVE SMOOTH",
"445 -11 OFFCURVE",
"554 114 OFFCURVE",
"554 304 CURVE SMOOTH",
"554 349 OFFCURVE",
"545 393 OFFCURVE",
"527 425 CURVE",
"589 435 OFFCURVE",
"641 491 OFFCURVE",
"641 555 CURVE SMOOTH",
"641 598 OFFCURVE",
"615 629 OFFCURVE",
"576 629 CURVE SMOOTH",
"545 629 OFFCURVE",
"510 611 OFFCURVE",
"485 595 CURVE"
);
},
{
closed = 1;
nodes = (
"277 126 LINE",
"229 126 OFFCURVE",
"211 142 OFFCURVE",
"211 206 CURVE SMOOTH",
"211 360 OFFCURVE",
"240 376 OFFCURVE",
"295 376 CURVE SMOOTH",
"342 376 OFFCURVE",
"359 361 OFFCURVE",
"359 297 CURVE SMOOTH",
"359 139 OFFCURVE",
"330 126 OFFCURVE",
"277 126 CURVE SMOOTH"
);
}
);
width = 578;
}
);
leftKerningGroup = C;
rightKerningGroup = D;
},
{
glyphname = oslash.sc;
lastChange = "2016-12-19 13:36:26 +0000";
layers = (
{
anchors = (
{
name = bottom;
position = "{253, 0}";
},
{
name = center;
position = "{284, 257}";
},
{
name = ogonek;
position = "{432, 43}";
},
{
name = top;
position = "{305, 515}";
},
{
name = topleft;
position = "{51, 513}";
},
{
name = topright;
position = "{579, 513}";
}
);
layerId = UUID0;
paths = (
{
closed = 1;
nodes = (
"560 556 LINE",
"479 614 LINE",
"-2 -43 LINE",
"0 -59 LINE",
"86 -118 LINE",
"567 539 LINE"
);
},
{
closed = 1;
nodes = (
"318 523 LINE",
"125 523 OFFCURVE",
"17 397 OFFCURVE",
"17 222 CURVE SMOOTH",
"17 63 OFFCURVE",
"106 -11 OFFCURVE",
"253 -11 CURVE SMOOTH",
"446 -11 OFFCURVE",
"554 118 OFFCURVE",
"554 292 CURVE SMOOTH",
"554 450 OFFCURVE",
"465 523 OFFCURVE",
"318 523 CURVE SMOOTH"
);
},
{
closed = 1;
nodes = (
"295 376 LINE",
"348 376 OFFCURVE",
"359 358 OFFCURVE",
"359 279 CURVE SMOOTH",
"359 140 OFFCURVE",
"325 126 OFFCURVE",
"277 126 CURVE SMOOTH",
"223 126 OFFCURVE",
"211 143 OFFCURVE",
"211 224 CURVE SMOOTH",
"211 361 OFFCURVE",
"246 376 OFFCURVE",
"295 376 CURVE SMOOTH"
);
}
);
width = 568;
}
);
leftKerningGroup = C;
rightKerningGroup = D;
},
{
glyphname = oe.sc;
lastChange = "2016-12-19 13:36:26 +0000";
layers = (
{
anchors = (
{
name = top;
position = "{525, 513}";
}
);
layerId = UUID0;
paths = (
{
closed = 1;
nodes = (
"325 522 LINE",
"130 522 OFFCURVE",
"18 404 OFFCURVE",
"18 209 CURVE SMOOTH",
"18 70 OFFCURVE",
"109 -9 OFFCURVE",
"257 -9 CURVE SMOOTH",
"330 -9 OFFCURVE",
"391 3 OFFCURVE",
"445 0 CURVE",
"711 0 LINE",
"738 135 LINE",
"730 147 LINE",
"589 142 LINE",
"512 142 LINE",
"513 169 LINE",
"515 185 LINE",
"589 185 LINE",
"686 182 LINE",
"714 317 LINE",
"705 330 LINE",
"619 327 LINE",
"538 327 LINE",
"545 371 LINE",
"627 371 LINE",
"761 365 LINE",
"790 500 LINE",
"782 513 LINE",
"508 513 LINE SMOOTH",
"458 513 OFFCURVE",
"394 522 OFFCURVE",
"325 522 CURVE SMOOTH"
);
},
{
closed = 1;
nodes = (
"301 375 LINE",
"333 375 OFFCURVE",
"347 371 OFFCURVE",
"354 361 CURVE SMOOTH",
"359 354 OFFCURVE",
"360 342 OFFCURVE",
"358 320 CURVE SMOOTH",
"345 186 LINE SMOOTH",
"343 162 OFFCURVE",
"339 147 OFFCURVE",
"332 139 CURVE SMOOTH",
"324 130 OFFCURVE",
"307 127 OFFCURVE",
"277 127 CURVE SMOOTH",
"230 127 OFFCURVE",
"212 147 OFFCURVE",
"212 211 CURVE SMOOTH",
"212 354 OFFCURVE",
"241 375 OFFCURVE",
"301 375 CURVE SMOOTH"
);
}
);
width = 765;
}
);
leftKerningGroup = C;
rightKerningGroup = AE;
},
{
glyphname = p.sc;
lastChange = "2016-12-19 13:36:26 +0000";
layers = (
{
layerId = UUID0;
paths = (
{
closed = 1;
nodes = (
"87 513 LINE",
"180 378 LINE",
"293 386 LINE",
"330 382 OFFCURVE",
"338 370 OFFCURVE",
"338 340 CURVE SMOOTH",
"338 310 OFFCURVE",
"330 288 OFFCURVE",
"296 263 CURVE",
"123 274 LINE",
"105 135 LINE",
"260 135 LINE",
"421 135 OFFCURVE",
"536 225 OFFCURVE",
"536 350 CURVE SMOOTH",
"536 455 OFFCURVE",
"454 513 OFFCURVE",
"341 513 CURVE"
);
},
{
closed = 1;
nodes = (
"276 513 LINE",
"87 513 LINE",
"51 149 LINE",
"24 0 LINE",
"210 0 LINE",
"223 168 LINE"
);
}
);
width = 527;
}
);
leftKerningGroup = B;
rightKerningGroup = P;
},
{
glyphname = thorn.sc;
lastChange = "2016-12-19 13:36:26 +0000";
layers = (
{
layerId = UUID0;
paths = (
{
closed = 1;
nodes = (
"278 513 LINE",
"87 513 LINE",
"51 149 LINE",
"24 0 LINE",
"212 0 LINE",
"225 168 LINE"
);
},
{
closed = 1;
nodes = (
"89 445 LINE",
"181 313 LINE",
"291 321 LINE",
"328 317 OFFCURVE",
"335 305 OFFCURVE",
"335 276 CURVE SMOOTH",
"335 246 OFFCURVE",
"328 225 OFFCURVE",
"294 200 CURVE",
"125 211 LINE",
"107 75 LINE",
"259 75 LINE",
"417 75 OFFCURVE",
"530 163 OFFCURVE",
"530 285 CURVE SMOOTH",
"530 388 OFFCURVE",
"449 445 OFFCURVE",
"338 445 CURVE"
);
}
);
width = 534;
}
);
leftKerningGroup = B;
rightKerningGroup = Thorn;
},
{
glyphname = q.sc;
lastChange = "2016-12-19 13:36:26 +0000";
layers = (
{
layerId = UUID0;
paths = (
{
closed = 1;
nodes = (
"318 523 LINE",
"125 523 OFFCURVE",
"17 397 OFFCURVE",
"17 222 CURVE SMOOTH",
"17 63 OFFCURVE",
"106 -11 OFFCURVE",
"253 -11 CURVE SMOOTH",
"446 -11 OFFCURVE",
"554 118 OFFCURVE",
"554 292 CURVE SMOOTH",
"554 450 OFFCURVE",
"465 523 OFFCURVE",
"318 523 CURVE SMOOTH"
);
},
{
closed = 1;
nodes = (
"238 10 LINE",
"311 -60 OFFCURVE",
"391 -120 OFFCURVE",
"480 -172 CURVE",
"493 -165 LINE",
"536 -132 OFFCURVE",
"565 -96 OFFCURVE",
"593 -51 CURVE",
"588 -35 LINE",
"508 -8 OFFCURVE",
"432 24 OFFCURVE",
"360 63 CURVE"
);
},
{
closed = 1;
nodes = (
"295 376 LINE",
"348 376 OFFCURVE",
"359 358 OFFCURVE",
"359 279 CURVE SMOOTH",
"359 140 OFFCURVE",
"325 126 OFFCURVE",
"277 126 CURVE SMOOTH",
"223 126 OFFCURVE",
"211 143 OFFCURVE",
"211 224 CURVE SMOOTH",
"211 361 OFFCURVE",
"246 376 OFFCURVE",
"295 376 CURVE SMOOTH"
);
}
);
width = 573;
}
);
leftKerningGroup = C;
rightKerningGroup = D;
},
{
glyphname = r.sc;
lastChange = "2016-12-19 13:36:26 +0000";
layers = (
{
anchors = (
{
name = bottom;
position = "{263, 0}";
},
{
name = top;
position = "{289, 513}";
}
);
layerId = UUID0;
paths = (
{
closed = 1;
nodes = (
"87 513 LINE",
"180 377 LINE",
"292 386 LINE",
"324 383 OFFCURVE",
"338 372 OFFCURVE",
"338 337 CURVE SMOOTH",
"338 310 OFFCURVE",
"330 288 OFFCURVE",
"297 272 CURVE",
"123 283 LINE",
"106 142 LINE",
"288 142 LINE",
"432 169 OFFCURVE",
"537 254 OFFCURVE",
"537 365 CURVE SMOOTH",
"537 458 OFFCURVE",
"464 513 OFFCURVE",
"351 513 CURVE"
);
},
{
closed = 1;
nodes = (
"276 513 LINE",
"87 513 LINE",
"51 149 LINE",
"24 0 LINE",
"210 0 LINE",
"222 168 LINE"
);
},
{
closed = 1;
nodes = (
"246 230 LINE",
"265 154 OFFCURVE",
"290 80 OFFCURVE",
"315 9 CURVE",
"337 -10 LINE",
"400 -6 OFFCURVE",
"462 6 OFFCURVE",
"522 23 CURVE",
"528 43 LINE",
"486 105 OFFCURVE",
"448 169 OFFCURVE",
"413 232 CURVE"
);
}
);
width = 557;
}
);
leftKerningGroup = B;
rightKerningGroup = R;
},
{
glyphname = s.sc;
lastChange = "2016-12-19 13:36:26 +0000";
layers = (
{
anchors = (
{
name = bottom;
position = "{214, 0}";
},
{
name = top;
position = "{262, 513}";
}
);
layerId = UUID0;
paths = (
{
closed = 1;
nodes = (
"299 523 LINE",
"141 523 OFFCURVE",
"49 434 OFFCURVE",
"49 325 CURVE SMOOTH",
"49 175 OFFCURVE",
"243 183 OFFCURVE",
"243 137 CURVE SMOOTH",
"243 125 OFFCURVE",
"234 119 OFFCURVE",
"217 119 CURVE SMOOTH",
"177 119 OFFCURVE",
"112 148 OFFCURVE",
"63 190 CURVE",
"45 177 LINE",
"1 16 LINE",
"66 -5 OFFCURVE",
"132 -12 OFFCURVE",
"179 -12 CURVE SMOOTH",
"361 -12 OFFCURVE",
"430 92 OFFCURVE",
"430 184 CURVE SMOOTH",
"430 332 OFFCURVE",
"237 324 OFFCURVE",
"237 371 CURVE SMOOTH",
"237 381 OFFCURVE",
"244 386 OFFCURVE",
"258 386 CURVE SMOOTH",
"284 386 OFFCURVE",
"338 368 OFFCURVE",
"384 335 CURVE",
"411 342 LINE",
"454 496 LINE",
"413 511 OFFCURVE",
"357 523 OFFCURVE",
"299 523 CURVE SMOOTH"
);
}
);
width = 469;
}
);
leftKerningGroup = S;
rightKerningGroup = S;
},
{
glyphname = germandbls.sc;
lastChange = "2016-12-19 13:36:26 +0000";
layers = (
{
layerId = UUID0;
paths = (
{
closed = 1;
nodes = (
"352 523 LINE",
"171 523 OFFCURVE",
"73 441 OFFCURVE",
"57 315 CURVE SMOOTH",
"41 150 LINE",
"13 0 LINE",
"199 0 LINE",
"212 168 LINE",
"235 315 LINE",
"240 362 OFFCURVE",
"259 378 OFFCURVE",
"316 378 CURVE SMOOTH",
"336 378 OFFCURVE",
"348 376 OFFCURVE",
"364 373 CURVE",
"269 261 LINE",
"270 244 LINE",
"368 183 OFFCURVE",
"403 169 OFFCURVE",
"403 150 CURVE SMOOTH",
"403 141 OFFCURVE",
"395 135 OFFCURVE",
"381 135 CURVE SMOOTH",
"354 135 OFFCURVE",
"318 154 OFFCURVE",
"281 188 CURVE",
"266 179 LINE",
"220 18 LINE",
"265 0 OFFCURVE",
"321 -11 OFFCURVE",
"376 -11 CURVE SMOOTH",
"493 -11 OFFCURVE",
"606 37 OFFCURVE",
"606 162 CURVE SMOOTH",
"606 212 OFFCURVE",
"576 242 OFFCURVE",
"486 309 CURVE",
"600 443 LINE",
"595 463 LINE",
"508 503 OFFCURVE",
"442 523 OFFCURVE",
"352 523 CURVE SMOOTH"
);
}
);
width = 625;
}
);
leftKerningGroup = uni1E9E;
rightKerningGroup = uni1E9E;
},
{
glyphname = t.sc;
lastChange = "2016-12-19 13:36:26 +0000";
layers = (
{
anchors = (
{
name = bottom;
position = "{198, 0}";
},
{
name = center;
position = "{239, 257}";
},
{
name = top;
position = "{260, 513}";
}
);
layerId = UUID0;
paths = (
{
closed = 1;
nodes = (
"352 495 LINE",
"170 495 LINE",
"134 149 LINE",
"107 0 LINE",
"292 0 LINE",
"305 168 LINE"
);
},
{
closed = 1;
nodes = (
"468 513 LINE",
"56 513 LINE",
"29 378 LINE",
"38 365 LINE",
"153 371 LINE",
"337 371 LINE",
"449 365 LINE",
"476 500 LINE"
);
}
);
width = 457;
}
);
leftKerningGroup = T;
rightKerningGroup = T;
},
{
glyphname = tbar.sc;
lastChange = "2016-12-19 13:36:26 +0000";
layers = (
{
anchors = (
{
name = bottom;
position = "{199, 0}";
},
{
name = center;
position = "{240, 257}";
},
{
name = top;
position = "{261, 513}";
}
);
layerId = UUID0;
paths = (
{
closed = 1;
nodes = (
"389 255 LINE",
"68 255 LINE",
"50 167 LINE",
"60 154 LINE",
"381 154 LINE",
"399 242 LINE"
);
},
{
closed = 1;
nodes = (
"353 495 LINE",
"171 495 LINE",
"135 149 LINE",
"108 0 LINE",
"293 0 LINE",
"306 168 LINE"
);
},
{
closed = 1;
nodes = (
"469 513 LINE",
"57 513 LINE",
"30 378 LINE",
"39 365 LINE",
"154 371 LINE",
"338 371 LINE",
"450 365 LINE",
"477 500 LINE"
);
}
);
width = 458;
}
);
leftKerningGroup = T;
rightKerningGroup = T;
},
{
glyphname = tcedilla.sc;
lastChange = "2016-12-19 13:36:26 +0000";
layers = (
{
anchors = (
{
name = bottom;
position = "{198, 0}";
},
{
name = center;
position = "{239, 257}";
},
{
name = top;
position = "{260, 513}";
}
);
layerId = UUID0;
paths = (
{
closed = 1;
nodes = (
"255 33 LINE",
"171 33 LINE",
"135 -79 LINE",
"183 -106 LINE SMOOTH",
"189 -110 OFFCURVE",
"192 -113 OFFCURVE",
"192 -119 CURVE SMOOTH",
"192 -129 OFFCURVE",
"186 -135 OFFCURVE",
"174 -135 CURVE SMOOTH",
"160 -135 OFFCURVE",
"137 -125 OFFCURVE",
"118 -107 CURVE",
"111 -110 LINE",
"90 -185 LINE",
"115 -200 OFFCURVE",
"142 -209 OFFCURVE",
"178 -209 CURVE SMOOTH",
"252 -209 OFFCURVE",
"299 -169 OFFCURVE",
"299 -117 CURVE SMOOTH",
"299 -97 OFFCURVE",
"290 -78 OFFCURVE",
"262 -62 CURVE SMOOTH",
"230 -43 LINE"
);
},
{
closed = 1;
nodes = (
"352 495 LINE",
"170 495 LINE",
"134 149 LINE",
"107 0 LINE",
"292 0 LINE",
"305 168 LINE"
);
},
{
closed = 1;
nodes = (
"468 513 LINE",
"56 513 LINE",
"29 378 LINE",
"38 365 LINE",
"153 371 LINE",
"337 371 LINE",
"449 365 LINE",
"476 500 LINE"
);
}
);
width = 457;
}
);
leftKerningGroup = T;
rightKerningGroup = T;
},
{
glyphname = u.sc;
lastChange = "2016-12-19 13:36:26 +0000";
layers = (
{
anchors = (
{
name = bottom;
position = "{252, 0}";
},
{
name = ogonek;
position = "{444, 49}";
},
{
name = top;
position = "{314, 513}";
},
{
name = topright;
position = "{577, 513}";
}
);
layerId = UUID0;
paths = (
{
closed = 1;
nodes = (
"558 513 LINE",
"370 513 LINE",
"339 194 LINE SMOOTH",
"335 151 OFFCURVE",
"315 135 OFFCURVE",
"269 135 CURVE SMOOTH",
"229 135 OFFCURVE",
"213 147 OFFCURVE",
"213 178 CURVE SMOOTH",
"213 183 OFFCURVE",
"213 188 OFFCURVE",
"214 194 CURVE SMOOTH",
"261 513 LINE",
"76 513 LINE",
"49 252 LINE",
"37 169 LINE SMOOTH",
"35 158 OFFCURVE",
"34 147 OFFCURVE",
"34 136 CURVE SMOOTH",
"34 41 OFFCURVE",
"115 -11 OFFCURVE",
"250 -11 CURVE SMOOTH",
"406 -11 OFFCURVE",
"494 53 OFFCURVE",
"509 169 CURVE SMOOTH",
"520 253 LINE"
);
}
);
width = 566;
}
);
leftKerningGroup = U;
rightKerningGroup = U;
},
{
glyphname = uhorn.sc;
lastChange = "2016-12-19 13:36:26 +0000";
layers = (
{
anchors = (
{
name = bottom;
position = "{259, 0}";
},
{
name = ogonek;
position = "{478, 10}";
},
{
name = top;
position = "{306, 513}";
}
);
layerId = UUID0;
paths = (
{
closed = 1;
nodes = (
"576 643 LINE",
"545 643 OFFCURVE",
"513 627 OFFCURVE",
"485 609 CURVE",
"480 596 LINE",
"492 587 OFFCURVE",
"499 573 OFFCURVE",
"499 556 CURVE SMOOTH",
"499 526 OFFCURVE",
"488 513 OFFCURVE",
"448 513 CURVE",
"466 430 LINE",
"567 445 OFFCURVE",
"641 507 OFFCURVE",
"641 576 CURVE SMOOTH",
"641 615 OFFCURVE",
"616 643 OFFCURVE",
"576 643 CURVE SMOOTH"
);
},
{
closed = 1;
nodes = (
"558 513 LINE",
"370 513 LINE",
"339 194 LINE SMOOTH",
"335 151 OFFCURVE",
"315 135 OFFCURVE",
"269 135 CURVE SMOOTH",
"229 135 OFFCURVE",
"213 147 OFFCURVE",
"213 178 CURVE SMOOTH",
"213 183 OFFCURVE",
"213 188 OFFCURVE",
"214 194 CURVE SMOOTH",
"261 513 LINE",
"76 513 LINE",
"49 252 LINE",
"37 169 LINE SMOOTH",
"35 158 OFFCURVE",
"34 147 OFFCURVE",
"34 136 CURVE SMOOTH",
"34 41 OFFCURVE",
"115 -11 OFFCURVE",
"250 -11 CURVE SMOOTH",
"406 -11 OFFCURVE",
"494 53 OFFCURVE",
"509 169 CURVE SMOOTH",
"520 253 LINE"
);
}
);
width = 580;
}
);
leftKerningGroup = U;
rightKerningGroup = Uhorn;
},
{
glyphname = v.sc;
lastChange = "2016-12-19 13:36:26 +0000";
layers = (
{
layerId = UUID0;
paths = (
{
closed = 1;
nodes = (
"570 513 LINE",
"389 513 LINE",
"360 407 LINE",
"266 163 LINE",
"255 163 LINE",
"234 418 LINE",
"230 513 LINE",
"43 513 LINE",
"123 0 LINE",
"348 0 LINE"
);
}
);
width = 540;
}
);
leftKerningGroup = V;
rightKerningGroup = V;
},
{
glyphname = w.sc;
lastChange = "2016-12-19 13:36:26 +0000";
layers = (
{
anchors = (
{
name = top;
position = "{408, 513}";
}
);
layerId = UUID0;
paths = (
{
closed = 1;
nodes = (
"812 513 LINE",
"639 513 LINE",
"611 413 LINE",
"534 188 LINE",
"523 188 LINE",
"509 404 LINE",
"510 513 LINE",
"319 513 LINE",
"330 397 LINE",
"253 188 LINE",
"242 188 LINE",
"235 424 LINE",
"238 513 LINE",
"55 513 LINE",
"111 0 LINE",
"312 0 LINE",
"363 150 LINE",
"374 150 LINE",
"396 0 LINE",
"597 0 LINE"
);
}
);
width = 780;
}
);
leftKerningGroup = w.sc;
rightKerningGroup = w.sc;
},
{
glyphname = x.sc;
lastChange = "2016-12-19 13:36:26 +0000";
layers = (
{
layerId = UUID0;
paths = (
{
closed = 1;
nodes = (
"584 513 LINE",
"389 513 LINE",
"356 453 LINE",
"303 378 LINE",
"273 442 LINE",
"252 513 LINE",
"33 513 LINE",
"173 252 LINE",
"-23 0 LINE",
"167 0 LINE",
"202 59 LINE",
"261 132 LINE",
"290 69 LINE",
"311 0 LINE",
"529 0 LINE",
"394 262 LINE"
);
}
);
width = 555;
}
);
leftKerningGroup = X;
rightKerningGroup = K;
},
{
glyphname = y.sc;
lastChange = "2016-12-19 13:36:26 +0000";
layers = (
{
anchors = (
{
name = bottom;
position = "{232, 0}";
},
{
name = top;
position = "{293, 513}";
},
{
name = topleft;
position = "{51, 513}";
}
);
layerId = UUID0;
paths = (
{
closed = 1;
nodes = (
"571 513 LINE",
"382 513 LINE",
"355 459 LINE",
"279 333 LINE",
"269 333 LINE",
"233 466 LINE",
"225 513 LINE",
"31 513 LINE",
"200 42 LINE",
"259 42 LINE"
);
},
{
closed = 1;
nodes = (
"345 226 LINE",
"167 226 LINE",
"159 131 LINE",
"134 0 LINE",
"319 0 LINE",
"327 131 LINE"
);
}
);
width = 525;
}
);
leftKerningGroup = Y;
rightKerningGroup = Y;
},
{
glyphname = z.sc;
lastChange = "2016-12-19 13:36:26 +0000";
layers = (
{
anchors = (
{
name = bottom;
position = "{219, 0}";
},
{
name = top;
position = "{281, 513}";
}
);
layerId = UUID0;
paths = (
{
closed = 1;
nodes = (
"500 513 LINE",
"432 513 LINE",
"205 513 LINE",
"71 515 LINE",
"41 374 LINE",
"46 367 LINE",
"154 376 LINE",
"268 376 LINE",
"17 126 LINE",
"1 -5 LINE",
"91 0 LINE",
"276 0 LINE",
"436 -5 LINE",
"467 137 LINE",
"463 144 LINE",
"354 136 LINE",
"237 136 LINE",
"484 381 LINE"
);
}
);
width = 499;
}
);
leftKerningGroup = Z;
rightKerningGroup = Z;
},
{
glyphname = Gamma;
lastChange = "2016-12-19 13:36:04 +0000";
layers = (
{
layerId = UUID0;
paths = (
{
closed = 1;
nodes = (
"314 647 LINE",
"110 647 LINE",
"64 190 LINE",
"31 0 LINE",
"232 0 LINE",
"250 210 LINE"
);
},
{
closed = 1;
nodes = (
"519 647 LINE",
"249 647 LINE",
"232 504 LINE",
"231 493 LINE",
"354 493 LINE",
"498 487 LINE",
"528 633 LINE"
);
}
);
width = 479;
}
);
leftKerningGroup = B;
rightKerningGroup = Gamma;
unicode = 0393;
},
{
glyphname = Delta;
lastChange = "2016-12-19 13:36:26 +0000";
layers = (
{
layerId = UUID0;
paths = (
{
closed = 1;
nodes = (
"-11 0 LINE",
"529 0 LINE",
"546 128 LINE",
"465 647 LINE",
"222 647 LINE",
"6 128 LINE"
);
},
{
closed = 1;
nodes = (
"195 154 LINE",
"311 468 LINE",
"323 468 LINE",
"353 154 LINE"
);
}
);
width = 578;
}
);
leftKerningGroup = A;
rightKerningGroup = A;
unicode = 0394;
},
{
glyphname = Theta;
lastChange = "2016-12-19 13:36:04 +0000";
layers = (
{
layerId = UUID0;
paths = (
{
closed = 1;
nodes = (
"273 249 LINE",
"422 254 LINE",
"442 379 LINE",
"431 391 LINE",
"283 386 LINE",
"262 261 LINE"
);
},
{
closed = 1;
nodes = (
"408 659 LINE",
"173 659 OFFCURVE",
"23 506 OFFCURVE",
"23 264 CURVE SMOOTH",
"23 92 OFFCURVE",
"122 -12 OFFCURVE",
"297 -12 CURVE SMOOTH",
"533 -12 OFFCURVE",
"683 144 OFFCURVE",
"683 386 CURVE SMOOTH",
"683 556 OFFCURVE",
"583 659 OFFCURVE",
"408 659 CURVE SMOOTH"
);
},
{
closed = 1;
nodes = (
"371 499 LINE",
"446 499 OFFCURVE",
"477 465 OFFCURVE",
"477 364 CURVE SMOOTH",
"477 211 OFFCURVE",
"453 136 OFFCURVE",
"333 136 CURVE SMOOTH",
"257 136 OFFCURVE",
"227 170 OFFCURVE",
"227 270 CURVE SMOOTH",
"227 459 OFFCURVE",
"283 499 OFFCURVE",
"371 499 CURVE SMOOTH"
);
}
);
width = 685;
}
);
leftKerningGroup = C;
rightKerningGroup = D;
unicode = 0398;
},
{
glyphname = Lambda;
lastChange = "2016-12-19 13:36:04 +0000";
layers = (
{
layerId = UUID0;
paths = (
{
closed = 1;
nodes = (
"-27 0 LINE",
"169 0 LINE",
"205 119 LINE",
"339 468 LINE",
"351 468 LINE",
"382 107 LINE",
"387 0 LINE",
"588 0 LINE",
"490 647 LINE",
"248 647 LINE"
);
}
);
width = 627;
}
);
unicode = 039B;
},
{
glyphname = Xi;
lastChange = "2016-12-19 13:36:04 +0000";
layers = (
{
layerId = UUID0;
paths = (
{
closed = 1;
nodes = (
"19 0 LINE",
"472 0 LINE",
"509 161 LINE",
"498 176 LINE",
"266 169 LINE",
"43 176 LINE",
"29 161 LINE"
);
},
{
closed = 1;
nodes = (
"97 237 LINE",
"288 240 LINE",
"446 237 LINE",
"482 397 LINE",
"473 412 LINE",
"311 408 LINE",
"122 412 LINE",
"86 252 LINE"
);
},
{
closed = 1;
nodes = (
"74 471 LINE",
"319 478 LINE",
"531 471 LINE",
"567 632 LINE",
"557 647 LINE",
"100 647 LINE",
"64 487 LINE"
);
}
);
width = 550;
}
);
leftKerningGroup = Xi;
rightKerningGroup = AE;
unicode = 039E;
},
{
glyphname = Pi;
lastChange = "2016-12-19 13:36:04 +0000";
layers = (
{
layerId = UUID0;
paths = (
{
closed = 1;
nodes = (
"397 0 LINE",
"599 0 LINE",
"617 210 LINE",
"681 647 LINE",
"476 647 LINE",
"430 190 LINE"
);
},
{
closed = 1;
nodes = (
"31 0 LINE",
"232 0 LINE",
"250 210 LINE",
"314 647 LINE",
"110 647 LINE",
"64 190 LINE"
);
},
{
closed = 1;
nodes = (
"263 482 LINE",
"369 489 LINE",
"480 485 LINE",
"500 647 LINE",
"284 647 LINE"
);
}
);
width = 694;
}
);
leftKerningGroup = B;
rightKerningGroup = H;
unicode = 03A0;
},
{
color = 0;
glyphname = Sigma;
lastChange = "2016-12-19 13:36:04 +0000";
layers = (
{
background = {
paths = (
{
closed = 1;
nodes = (
"541 649 LINE",
"414 647 LINE",
"183 647 LINE",
"89 649 LINE",
"69 497 LINE",
"193 334 LINE",
"22 138 LINE",
"4 -3 LINE",
"111 0 LINE",
"304 0 LINE",
"474 -2 LINE",
"507 150 LINE",
"497 166 LINE",
"370 156 LINE",
"250 156 LINE",
"406 336 LINE",
"410 367 LINE",
"317 491 LINE",
"413 491 LINE",
"520 484 LINE",
"552 635 LINE"
);
}
);
};
layerId = UUID0;
paths = (
{
closed = 1;
nodes = (
"521 488 LINE",
"552 635 LINE",
"541 649 LINE",
"414 647 LINE",
"183 647 LINE",
"95 649 LINE",
"75 504 LINE",
"181 327 LINE",
"22 134 LINE",
"4 -3 LINE",
"105 0 LINE",
"298 0 LINE",
"454 -2 LINE",
"487 150 LINE",
"477 166 LINE",
"350 156 LINE",
"247 156 LINE",
"393 330 LINE",
"395 354 LINE",
"315 495 LINE",
"414 495 LINE"
);
}
);
width = 543;
}
);
leftKerningGroup = X;
rightKerningGroup = AE;
unicode = 03A3;
},
{
glyphname = Phi;
lastChange = "2016-12-19 13:36:04 +0000";
layers = (
{
layerId = UUID0;
paths = (
{
closed = 1;
nodes = (
"362 30 LINE",
"643 30 OFFCURVE",
"792 127 OFFCURVE",
"792 374 CURVE SMOOTH",
"792 538 OFFCURVE",
"680 619 OFFCURVE",
"457 619 CURVE SMOOTH",
"175 619 OFFCURVE",
"28 523 OFFCURVE",
"28 275 CURVE SMOOTH",
"28 111 OFFCURVE",
"141 30 OFFCURVE",
"362 30 CURVE SMOOTH"
);
},
{
closed = 1;
nodes = (
"399 172 LINE",
"273 172 OFFCURVE",
"222 201 OFFCURVE",
"222 298 CURVE SMOOTH",
"222 428 OFFCURVE",
"268 475 OFFCURVE",
"422 475 CURVE SMOOTH",
"550 475 OFFCURVE",
"598 442 OFFCURVE",
"598 349 CURVE SMOOTH",
"598 211 OFFCURVE",
"549 172 OFFCURVE",
"399 172 CURVE SMOOTH"
);
},
{
closed = 1;
nodes = (
"275 -31 LINE",
"455 -31 LINE",
"479 209 LINE",
"545 672 LINE",
"362 672 LINE",
"312 190 LINE"
);
}
);
width = 798;
}
);
leftKerningGroup = C;
rightKerningGroup = D;
unicode = 03A6;
},
{
color = 0;
glyphname = Psi;
lastChange = "2016-12-19 13:36:04 +0000";
layers = (
{
background = {
paths = (
{
closed = 1;
nodes = (
"567 647 LINE",
"372 647 LINE",
"326 190 LINE",
"293 0 LINE",
"485 0 LINE",
"502 209 LINE"
);
},
{
closed = 1;
nodes = (
"858 647 LINE",
"664 647 LINE",
"641 389 LINE SMOOTH",
"633 299 OFFCURVE",
"563 257 OFFCURVE",
"421 257 CURVE SMOOTH",
"279 257 OFFCURVE",
"224 299 OFFCURVE",
"238 389 CURVE SMOOTH",
"278 647 LINE",
"82 647 LINE",
"61 459 LINE",
"50 360 LINE SMOOTH",
"31 196 OFFCURVE",
"151 102 OFFCURVE",
"394 102 CURVE SMOOTH",
"641 102 OFFCURVE",
"794 196 OFFCURVE",
"816 360 CURVE SMOOTH",
"829 457 LINE"
);
}
);
};
layerId = UUID0;
paths = (
{
closed = 1;
nodes = (
"796 370 LINE",
"809 467 LINE",
"836 647 LINE",
"653 647 LINE",
"624 399 LINE SMOOTH",
"613 303 OFFCURVE",
"550 263 OFFCURVE",
"421 263 CURVE SMOOTH",
"293 263 OFFCURVE",
"241 303 OFFCURVE",
"253 399 CURVE SMOOTH",
"285 647 LINE",
"97 647 LINE",
"79 469 LINE",
"70 370 LINE SMOOTH",
"51 210 OFFCURVE",
"164 112 OFFCURVE",
"394 112 CURVE",
"629 112 OFFCURVE",
"774 210 OFFCURVE",
"796 370 CURVE"
);
},
{
closed = 1;
nodes = (
"564 647 LINE",
"372 647 LINE",
"326 190 LINE",
"293 0 LINE",
"485 0 LINE",
"502 209 LINE"
);
}
);
width = 838;
}
);
leftKerningGroup = Psi;
rightKerningGroup = Psi;
unicode = 03A8;
},
{
color = 0;
glyphname = Omega;
lastChange = "2016-12-19 13:36:26 +0000";
layers = (
{
anchors = (
{
name = bottom;
position = "{307, 0}";
},
{
name = top;
position = "{387, 647}";
},
{
name = topleft;
position = "{33, 647}";
}
);
background = {
paths = (
{
closed = 1;
nodes = (
"11 -6 LINE",
"110 0 LINE",
"247 0 LINE",
"286 -3 LINE",
"296 4 LINE",
"316 191 LINE",
"273 223 OFFCURVE",
"255 262 OFFCURVE",
"255 325 CURVE SMOOTH",
"255 454 OFFCURVE",
"286 500 OFFCURVE",
"373 500 CURVE SMOOTH",
"439 500 OFFCURVE",
"464 471 OFFCURVE",
"464 393 CURVE SMOOTH",
"464 284 OFFCURVE",
"440 235 OFFCURVE",
"365 191 CURVE",
"340 4 LINE",
"346 -3 LINE",
"387 0 LINE",
"527 0 LINE",
"614 -4 LINE",
"650 146 LINE",
"642 158 LINE",
"541 148 LINE",
"497 148 LINE",
"499 157 LINE",
"620 219 OFFCURVE",
"677 305 OFFCURVE",
"677 423 CURVE SMOOTH",
"677 570 OFFCURVE",
"575 659 OFFCURVE",
"406 659 CURVE SMOOTH",
"199 659 OFFCURVE",
"54 530 OFFCURVE",
"54 346 CURVE SMOOTH",
"54 257 OFFCURVE",
"94 193 OFFCURVE",
"173 157 CURVE",
"171 148 LINE",
"124 148 LINE",
"38 156 LINE",
"2 6 LINE"
);
}
);
};
layerId = UUID0;
paths = (
{
closed = 1;
nodes = (
"11 -6 LINE",
"110 0 LINE",
"247 0 LINE",
"286 -3 LINE",
"296 4 LINE",
"316 191 LINE",
"273 223 OFFCURVE",
"259 256 OFFCURVE",
"259 319 CURVE SMOOTH",
"259 418 OFFCURVE",
"287 499 OFFCURVE",
"374 499 CURVE SMOOTH",
"440 499 OFFCURVE",
"464 471 OFFCURVE",
"464 393 CURVE SMOOTH",
"464 284 OFFCURVE",
"440 235 OFFCURVE",
"365 191 CURVE",
"340 4 LINE",
"346 -3 LINE",
"387 0 LINE",
"527 0 LINE",
"614 -4 LINE",
"650 146 LINE",
"642 158 LINE",
"541 148 LINE",
"497 148 LINE",
"499 157 LINE",
"618 201 OFFCURVE",
"673 311 OFFCURVE",
"673 413 CURVE SMOOTH",
"673 560 OFFCURVE",
"575 659 OFFCURVE",
"406 659 CURVE SMOOTH",
"199 659 OFFCURVE",
"58 524 OFFCURVE",
"58 340 CURVE SMOOTH",
"58 262 OFFCURVE",
"94 193 OFFCURVE",
"173 157 CURVE",
"171 148 LINE",
"124 148 LINE",
"38 156 LINE",
"2 6 LINE"
);
}
);
width = 692;
}
);
leftKerningGroup = uni03A9;
rightKerningGroup = uni03A9;
unicode = 03A9;
},
{
glyphname = alpha;
lastChange = "2016-12-19 13:36:04 +0000";
layers = (
{
anchors = (
{
name = bottom;
position = "{214, 0}";
},
{
name = top;
position = "{285, 472}";
}
);
layerId = UUID0;
paths = (
{
closed = 1;
nodes = (
"164 -11 LINE",
"194 25 OFFCURVE",
"217 64 OFFCURVE",
"238 105 CURVE",
"257 105 LINE",
"296 348 LINE",
"245 215 OFFCURVE",
"210 147 OFFCURVE",
"187 147 CURVE SMOOTH",
"174 147 OFFCURVE",
"166 169 OFFCURVE",
"166 226 CURVE SMOOTH",
"166 302 OFFCURVE",
"183 347 OFFCURVE",
"216 347 CURVE",
"334 308 LINE",
"354 395 LINE",
"231 472 LINE",
"224 472 LINE",
"88 414 OFFCURVE",
"3 294 OFFCURVE",
"3 157 CURVE SMOOTH",
"3 76 OFFCURVE",
"30 16 OFFCURVE",
"141 -11 CURVE"
);
},
{
closed = 1;
nodes = (
"212 244 LINE"
);
},
{
closed = 1;
nodes = (
"238 -4 LINE",
"416 7 LINE",
"421 116 LINE",
"467 476 LINE",
"300 466 LINE"
);
}
);
width = 482;
}
);
leftKerningGroup = alpha;
rightKerningGroup = alpha;
unicode = 03B1;
},
{
glyphname = beta;
lastChange = "2016-12-19 13:36:04 +0000";
layers = (
{
layerId = UUID0;
paths = (
{
closed = 1;
nodes = (
"-8 -196 LINE",
"170 -185 LINE",
"174 -76 LINE",
"245 509 LINE SMOOTH",
"249 544 OFFCURVE",
"265 561 OFFCURVE",
"296 561 CURVE SMOOTH",
"323 561 OFFCURVE",
"335 549 OFFCURVE",
"335 520 CURVE SMOOTH",
"335 469 OFFCURVE",
"314 444 OFFCURVE",
"260 430 CURVE",
"244 307 LINE",
"250 295 LINE",
"301 295 OFFCURVE",
"322 274 OFFCURVE",
"322 224 CURVE SMOOTH",
"322 160 OFFCURVE",
"290 118 OFFCURVE",
"242 118 CURVE SMOOTH",
"195 118 OFFCURVE",
"124 156 OFFCURVE",
"74 208 CURVE",
"53 40 LINE",
"112 6 OFFCURVE",
"173 -11 OFFCURVE",
"233 -11 CURVE SMOOTH",
"381 -11 OFFCURVE",
"493 95 OFFCURVE",
"493 235 CURVE SMOOTH",
"493 323 OFFCURVE",
"441 384 OFFCURVE",
"346 408 CURVE",
"352 370 LINE",
"447 399 OFFCURVE",
"507 470 OFFCURVE",
"507 552 CURVE SMOOTH",
"507 646 OFFCURVE",
"441 704 OFFCURVE",
"335 704 CURVE SMOOTH",
"193 704 OFFCURVE",
"96 604 OFFCURVE",
"74 435 CURVE SMOOTH"
);
}
);
width = 507;
}
);
leftKerningGroup = b;
rightKerningGroup = beta;
unicode = 03B2;
},
{
glyphname = gamma;
lastChange = "2016-12-19 13:36:04 +0000";
layers = (
{
layerId = UUID0;
paths = (
{
closed = 1;
nodes = (
"296 459 LINE",
"288 442 LINE",
"297 424 OFFCURVE",
"301 405 OFFCURVE",
"301 386 CURVE SMOOTH",
"301 358 OFFCURVE",
"292 328 OFFCURVE",
"276 291 CURVE SMOOTH",
"229 183 LINE",
"215 183 LINE",
"205 385 LINE",
"205 476 LINE",
"27 466 LINE",
"114 -120 LINE",
"217 -120 LINE",
"426 247 LINE SMOOTH",
"458 303 OFFCURVE",
"473 353 OFFCURVE",
"473 401 CURVE SMOOTH",
"473 427 OFFCURVE",
"468 453 OFFCURVE",
"459 479 CURVE"
);
},
{
closed = 1;
nodes = (
"279 65 LINE",
"113 65 LINE",
"79 -196 LINE",
"257 -185 LINE",
"261 -76 LINE"
);
}
);
width = 462;
}
);
leftKerningGroup = gamma;
rightKerningGroup = gamma;
unicode = 03B3;
},
{
color = 0;
glyphname = delta;
lastChange = "2016-12-19 13:36:04 +0000";
layers = (
{
background = {
paths = (
{
closed = 1;
nodes = (
"333 -10 OFFCURVE",
"449 106 OFFCURVE",
"449 249 CURVE SMOOTH",
"449 433 OFFCURVE",
"257 484 OFFCURVE",
"257 561 CURVE SMOOTH",
"257 579 OFFCURVE",
"267 588 OFFCURVE",
"289 588 CURVE SMOOTH",
"319 588 OFFCURVE",
"351 571 OFFCURVE",
"403 528 CURVE",
"423 535 LINE",
"467 686 LINE",
"423 700 OFFCURVE",
"368 709 OFFCURVE",
"321 709 CURVE SMOOTH",
"185 709 OFFCURVE",
"102 649 OFFCURVE",
"102 549 CURVE SMOOTH",
"102 402 OFFCURVE",
"281 404 OFFCURVE",
"281 212 CURVE SMOOTH",
"281 150 OFFCURVE",
"262 121 OFFCURVE",
"220 121 CURVE SMOOTH",
"186 121 OFFCURVE",
"177 140 OFFCURVE",
"177 215 CURVE SMOOTH",
"177 307 OFFCURVE",
"191 328 OFFCURVE",
"263 350 CURVE",
"184 459 LINE",
"163 416 LINE",
"62 385 OFFCURVE",
"7 305 OFFCURVE",
"7 188 CURVE SMOOTH",
"7 64 OFFCURVE",
"75 -10 OFFCURVE",
"190 -10 CURVE SMOOTH"
);
}
);
};
layerId = UUID0;
paths = (
{
closed = 1;
nodes = (
"464 676 LINE",
"424 687 OFFCURVE",
"373 700 OFFCURVE",
"321 709 CURVE",
"185 709 OFFCURVE",
"102 649 OFFCURVE",
"102 549 CURVE SMOOTH",
"102 402 OFFCURVE",
"281 404 OFFCURVE",
"281 212 CURVE SMOOTH",
"281 150 OFFCURVE",
"262 121 OFFCURVE",
"220 121 CURVE SMOOTH",
"186 121 OFFCURVE",
"177 140 OFFCURVE",
"177 215 CURVE SMOOTH",
"177 307 OFFCURVE",
"191 328 OFFCURVE",
"263 350 CURVE",
"184 459 LINE",
"163 416 LINE",
"62 385 OFFCURVE",
"7 305 OFFCURVE",
"7 188 CURVE SMOOTH",
"7 64 OFFCURVE",
"75 -10 OFFCURVE",
"190 -10 CURVE SMOOTH",
"333 -10 OFFCURVE",
"449 106 OFFCURVE",
"449 249 CURVE SMOOTH",
"449 433 OFFCURVE",
"257 484 OFFCURVE",
"257 561 CURVE SMOOTH",
"257 579 OFFCURVE",
"267 588 OFFCURVE",
"289 588 CURVE SMOOTH",
"319 588 OFFCURVE",
"351 571 OFFCURVE",
"403 528 CURVE",
"423 535 LINE"
);
}
);
width = 457;
}
);
leftKerningGroup = a;
rightKerningGroup = delta;
unicode = 03B4;
},
{
color = 0;
glyphname = epsilon;
lastChange = "2016-12-19 13:36:04 +0000";
layers = (
{
anchors = (
{
name = top;
position = "{235, 472}";
}
);
background = {
paths = (
{
closed = 1;
nodes = (
"273 0 OFFCURVE",
"338 29 OFFCURVE",
"388 74 CURVE",
"349 154 LINE",
"329 154 LINE",
"289 130 OFFCURVE",
"257 119 OFFCURVE",
"225 119 CURVE SMOOTH",
"197 119 OFFCURVE",
"186 127 OFFCURVE",
"186 145 CURVE SMOOTH",
"186 165 OFFCURVE",
"200 179 OFFCURVE",
"222 179 CURVE SMOOTH",
"332 179 LINE",
"353 282 LINE",
"349 292 LINE",
"252 292 LINE",
"229 296 OFFCURVE",
"217 307 OFFCURVE",
"217 324 CURVE SMOOTH",
"217 342 OFFCURVE",
"231 353 OFFCURVE",
"260 353 CURVE SMOOTH",
"287 353 OFFCURVE",
"315 343 OFFCURVE",
"347 322 CURVE",
"374 322 LINE",
"417 454 LINE",
"377 465 OFFCURVE",
"336 475 OFFCURVE",
"284 484 CURVE",
"134 484 OFFCURVE",
"38 423 OFFCURVE",
"38 328 CURVE SMOOTH",
"38 258 OFFCURVE",
"90 223 OFFCURVE",
"209 212 CURVE",
"221 265 LINE",
"83 265 OFFCURVE",
"0 206 OFFCURVE",
"0 109 CURVE SMOOTH",
"0 25 OFFCURVE",
"61 -11 OFFCURVE",
"200 -11 CURVE"
);
}
);
};
layerId = UUID0;
paths = (
{
closed = 1;
nodes = (
"200 -11 LINE",
"273 0 OFFCURVE",
"338 29 OFFCURVE",
"388 74 CURVE",
"347 162 LINE",
"327 162 LINE",
"292 137 OFFCURVE",
"253 119 OFFCURVE",
"225 119 CURVE SMOOTH",
"197 119 OFFCURVE",
"186 127 OFFCURVE",
"186 145 CURVE SMOOTH",
"186 165 OFFCURVE",
"200 179 OFFCURVE",
"222 179 CURVE SMOOTH",
"302 179 LINE",
"323 282 LINE",
"319 292 LINE",
"247 292 LINE",
"224 296 OFFCURVE",
"212 307 OFFCURVE",
"212 324 CURVE SMOOTH",
"212 342 OFFCURVE",
"226 353 OFFCURVE",
"255 353 CURVE SMOOTH",
"282 353 OFFCURVE",
"315 343 OFFCURVE",
"347 322 CURVE",
"374 322 LINE",
"417 454 LINE",
"377 465 OFFCURVE",
"336 475 OFFCURVE",
"284 484 CURVE",
"134 484 OFFCURVE",
"38 431 OFFCURVE",
"38 336 CURVE SMOOTH",
"38 275 OFFCURVE",
"90 228 OFFCURVE",
"209 217 CURVE",
"221 265 LINE",
"83 265 OFFCURVE",
"0 206 OFFCURVE",
"0 109 CURVE SMOOTH",
"0 25 OFFCURVE",
"61 -11 OFFCURVE",
"200 -11 CURVE"
);
}
);
width = 411;
}
);
leftKerningGroup = epsilon;
rightKerningGroup = epsilon;
unicode = 03B5;
},
{
color = 0;
glyphname = zeta;
lastChange = "2016-12-19 13:36:04 +0000";
layers = (
{
background = {
paths = (
{
closed = 1;
nodes = (
"187 276 OFFCURVE",
"256 381 OFFCURVE",
"449 575 CURVE",
"462 701 LINE",
"402 700 LINE",
"224 700 LINE",
"111 701 LINE",
"83 568 LINE",
"86 563 LINE",
"179 572 LINE",
"247 572 LINE",
"75 416 OFFCURVE",
"6 293 OFFCURVE",
"6 174 CURVE SMOOTH",
"6 82 OFFCURVE",
"49 30 OFFCURVE",
"127 30 CURVE SMOOTH",
"159 30 OFFCURVE",
"199 37 OFFCURVE",
"215 37 CURVE SMOOTH",
"218 37 OFFCURVE",
"220 36 OFFCURVE",
"220 33 CURVE SMOOTH",
"220 25 OFFCURVE",
"168 -40 OFFCURVE",
"128 -82 CURVE",
"128 -93 LINE",
"232 -159 LINE",
"342 -31 OFFCURVE",
"379 37 OFFCURVE",
"379 112 CURVE SMOOTH",
"379 162 OFFCURVE",
"359 190 OFFCURVE",
"322 190 CURVE SMOOTH",
"304 190 OFFCURVE",
"233 182 OFFCURVE",
"211 182 CURVE SMOOTH",
"195 182 OFFCURVE",
"187 191 OFFCURVE",
"187 208 CURVE SMOOTH"
);
}
);
};
layerId = UUID0;
paths = (
{
closed = 1;
nodes = (
"187 178 LINE",
"187 246 OFFCURVE",
"256 381 OFFCURVE",
"449 575 CURVE",
"462 701 LINE",
"402 700 LINE",
"224 700 LINE",
"111 701 LINE",
"83 568 LINE",
"86 563 LINE",
"179 572 LINE",
"257 572 LINE",
"85 416 OFFCURVE",
"6 273 OFFCURVE",
"6 144 CURVE SMOOTH",
"6 52 OFFCURVE",
"49 0 OFFCURVE",
"127 0 CURVE SMOOTH",
"159 0 OFFCURVE",
"199 7 OFFCURVE",
"215 7 CURVE SMOOTH",
"218 7 OFFCURVE",
"220 6 OFFCURVE",
"220 3 CURVE SMOOTH",
"220 -5 OFFCURVE",
"168 -70 OFFCURVE",
"128 -112 CURVE",
"128 -123 LINE",
"232 -189 LINE",
"342 -61 OFFCURVE",
"379 7 OFFCURVE",
"379 82 CURVE SMOOTH",
"379 132 OFFCURVE",
"359 160 OFFCURVE",
"322 160 CURVE SMOOTH",
"304 160 OFFCURVE",
"233 152 OFFCURVE",
"211 152 CURVE SMOOTH",
"195 152 OFFCURVE",
"187 161 OFFCURVE",
"187 178 CURVE SMOOTH"
);
}
);
width = 400;
}
);
leftKerningGroup = zeta;
rightKerningGroup = zeta;
unicode = 03B6;
},
{
glyphname = eta;
lastChange = "2016-12-19 13:36:04 +0000";
layers = (
{
anchors = (
{
name = bottom;
position = "{101, 0}";
},
{
name = top;
position = "{288, 472}";
}
);
layerId = UUID0;
paths = (
{
closed = 1;
nodes = (
"354 473 LINE",
"314 435 OFFCURVE",
"278 393 OFFCURVE",
"241 346 CURVE",
"221 346 LINE",
"186 156 LINE",
"241 252 OFFCURVE",
"283 291 OFFCURVE",
"304 291 CURVE SMOOTH",
"315 291 OFFCURVE",
"321 285 OFFCURVE",
"321 269 CURVE",
"320 259 LINE",
"246 -189 LINE",
"429 -178 LINE",
"433 -66 LINE",
"501 349 LINE",
"502 363 LINE",
"503 418 OFFCURVE",
"440 460 OFFCURVE",
"367 474 CURVE"
);
},
{
closed = 1;
nodes = (
"243 476 LINE",
"65 465 LINE",
"61 352 LINE",
"14 -4 LINE",
"192 7 LINE",
"196 116 LINE"
);
}
);
width = 518;
}
);
leftKerningGroup = m;
rightKerningGroup = a;
unicode = 03B7;
},
{
glyphname = theta;
lastChange = "2016-12-19 13:36:04 +0000";
layers = (
{
layerId = UUID0;
paths = (
{
closed = 1;
nodes = (
"201 -7 LINE",
"392 -7 OFFCURVE",
"487 164 OFFCURVE",
"487 468 CURVE SMOOTH",
"487 632 OFFCURVE",
"430 707 OFFCURVE",
"321 707 CURVE SMOOTH",
"131 707 OFFCURVE",
"34 535 OFFCURVE",
"34 230 CURVE SMOOTH",
"34 66 OFFCURVE",
"92 -7 OFFCURVE",
"201 -7 CURVE SMOOTH"
);
},
{
closed = 1;
nodes = (
"235 124 LINE",
"209 124 OFFCURVE",
"198 147 OFFCURVE",
"198 213 CURVE SMOOTH",
"198 512 OFFCURVE",
"243 571 OFFCURVE",
"288 571 CURVE SMOOTH",
"313 571 OFFCURVE",
"323 548 OFFCURVE",
"323 483 CURVE SMOOTH",
"323 184 OFFCURVE",
"275 124 OFFCURVE",
"235 124 CURVE SMOOTH"
);
},
{
closed = 1;
nodes = (
"122 275 LINE",
"375 284 LINE",
"388 413 LINE",
"137 404 LINE"
);
}
);
width = 492;
}
);
leftKerningGroup = theta;
rightKerningGroup = theta;
unicode = 03B8;
},
{
glyphname = kappa;
lastChange = "2016-12-19 13:36:04 +0000";
layers = (
{
layerId = UUID0;
paths = (
{
closed = 1;
nodes = (
"300 -12 LINE",
"358 -6 OFFCURVE",
"406 0 OFFCURVE",
"465 12 CURVE",
"467 32 LINE",
"423 124 OFFCURVE",
"382 217 OFFCURVE",
"348 309 CURVE",
"332 192 LINE",
"521 472 LINE",
"331 472 LINE",
"306 416 LINE",
"204 257 LINE",
"200 242 LINE",
"281 -2 LINE"
);
},
{
closed = 1;
nodes = (
"14 -4 LINE",
"192 7 LINE",
"197 116 LINE",
"243 476 LINE",
"65 465 LINE",
"61 352 LINE"
);
}
);
width = 497;
}
);
leftKerningGroup = m;
rightKerningGroup = x;
unicode = 03BA;
},
{
glyphname = lambda;
lastChange = "2016-12-19 13:36:04 +0000";
layers = (
{
layerId = UUID0;
paths = (
{
closed = 1;
nodes = (
"356 -12 LINE",
"386 -7 OFFCURVE",
"422 5 OFFCURVE",
"440 16 CURVE",
"468 121 LINE",
"458 131 LINE",
"427 124 OFFCURVE",
"416 129 OFFCURVE",
"412 154 CURVE SMOOTH",
"352 529 LINE SMOOTH",
"329 672 OFFCURVE",
"258 719 OFFCURVE",
"103 700 CURVE",
"62 558 LINE",
"68 542 LINE",
"163 552 OFFCURVE",
"186 530 OFFCURVE",
"199 442 CURVE SMOOTH",
"250 95 LINE SMOOTH",
"262 13 OFFCURVE",
"293 -8 OFFCURVE",
"356 -12 CURVE"
);
},
{
closed = 1;
nodes = (
"136 -9 LINE",
"168 87 LINE",
"222 216 LINE",
"273 216 LINE",
"234 558 LINE",
"-33 7 LINE"
);
}
);
width = 479;
}
);
leftKerningGroup = lambda;
rightKerningGroup = lambda;
unicode = 03BB;
},
{
glyphname = mu;
lastChange = "2016-12-19 13:36:26 +0000";
layers = (
{
layerId = UUID0;
paths = (
{
closed = 1;
nodes = (
"118 119 LINE",
"124 60 OFFCURVE",
"157 11 OFFCURVE",
"200 -4 CURVE",
"213 -3 LINE",
"236 29 OFFCURVE",
"256 63 OFFCURVE",
"284 116 CURVE",
"321 116 LINE",
"345 315 LINE",
"288 221 OFFCURVE",
"251 177 OFFCURVE",
"227 177 CURVE SMOOTH",
"214 177 OFFCURVE",
"207 186 OFFCURVE",
"209 201 CURVE"
);
},
{
closed = 1;
nodes = (
"510 476 LINE",
"332 465 LINE",
"328 352 LINE",
"281 -4 LINE",
"459 7 LINE",
"463 116 LINE"
);
},
{
closed = 1;
nodes = (
"245 476 LINE",
"67 465 LINE",
"63 352 LINE",
"-9 -196 LINE",
"169 -185 LINE",
"173 89 LINE",
"209 201 LINE"
);
}
);
width = 524;
}
);
leftKerningGroup = p;
rightKerningGroup = u;
unicode = 03BC;
},
{
color = 0;
glyphname = xi;
lastChange = "2016-12-19 13:36:04 +0000";
layers = (
{
background = {
paths = (
{
closed = 1;
nodes = (
"232 -159 LINE",
"341 -32 OFFCURVE",
"379 37 OFFCURVE",
"379 109 CURVE SMOOTH",
"379 161 OFFCURVE",
"360 190 OFFCURVE",
"325 190 CURVE SMOOTH",
"304 190 OFFCURVE",
"220 179 OFFCURVE",
"204 179 CURVE SMOOTH",
"189 179 OFFCURVE",
"179 191 OFFCURVE",
"179 208 CURVE SMOOTH",
"179 250 OFFCURVE",
"234 282 OFFCURVE",
"348 306 CURVE",
"252 386 LINE",
"90 355 OFFCURVE",
"7 275 OFFCURVE",
"7 159 CURVE SMOOTH",
"7 79 OFFCURVE",
"49 27 OFFCURVE",
"112 27 CURVE SMOOTH",
"140 27 OFFCURVE",
"207 37 OFFCURVE",
"215 37 CURVE SMOOTH",
"218 37 OFFCURVE",
"220 36 OFFCURVE",
"220 34 CURVE SMOOTH",
"220 26 OFFCURVE",
"172 -32 OFFCURVE",
"124 -82 CURVE",
"124 -93 LINE"
);
},
{
closed = 1;
nodes = (
"354 300 LINE",
"380 425 LINE",
"375 437 LINE",
"310 437 LINE SMOOTH",
"261 437 OFFCURVE",
"237 457 OFFCURVE",
"237 497 CURVE SMOOTH",
"237 532 OFFCURVE",
"255 546 OFFCURVE",
"301 546 CURVE SMOOTH",
"335 546 OFFCURVE",
"359 541 OFFCURVE",
"399 526 CURVE",
"416 535 LINE",
"460 668 LINE",
"455 678 LINE",
"418 692 OFFCURVE",
"377 702 OFFCURVE",
"334 706 CURVE",
"177 706 OFFCURVE",
"57 615 OFFCURVE",
"57 495 CURVE SMOOTH",
"57 381 OFFCURVE",
"162 300 OFFCURVE",
"310 300 CURVE SMOOTH"
);
}
);
};
layerId = UUID0;
paths = (
{
closed = 1;
nodes = (
"232 -189 LINE",
"341 -62 OFFCURVE",
"379 7 OFFCURVE",
"379 79 CURVE SMOOTH",
"379 131 OFFCURVE",
"360 160 OFFCURVE",
"325 160 CURVE SMOOTH",
"304 160 OFFCURVE",
"220 149 OFFCURVE",
"204 149 CURVE SMOOTH",
"189 149 OFFCURVE",
"179 161 OFFCURVE",
"179 178 CURVE SMOOTH",
"179 220 OFFCURVE",
"237 277 OFFCURVE",
"351 301 CURVE",
"262 379 LINE",
"100 348 OFFCURVE",
"7 245 OFFCURVE",
"7 129 CURVE SMOOTH",
"7 49 OFFCURVE",
"49 -3 OFFCURVE",
"112 -3 CURVE SMOOTH",
"140 -3 OFFCURVE",
"207 7 OFFCURVE",
"215 7 CURVE SMOOTH",
"218 7 OFFCURVE",
"220 6 OFFCURVE",
"220 4 CURVE SMOOTH",
"220 -4 OFFCURVE",
"172 -62 OFFCURVE",
"124 -112 CURVE",
"124 -123 LINE"
);
},
{
closed = 1;
nodes = (
"357 298 LINE",
"380 415 LINE",
"375 427 LINE",
"307 427 LINE SMOOTH",
"258 427 OFFCURVE",
"234 440 OFFCURVE",
"234 480 CURVE SMOOTH",
"234 515 OFFCURVE",
"256 546 OFFCURVE",
"301 546 CURVE SMOOTH",
"335 546 OFFCURVE",
"359 541 OFFCURVE",
"399 526 CURVE",
"416 535 LINE",
"460 668 LINE",
"455 678 LINE",
"418 692 OFFCURVE",
"377 702 OFFCURVE",
"334 706 CURVE",
"167 706 OFFCURVE",
"67 595 OFFCURVE",
"67 485 CURVE SMOOTH",
"67 371 OFFCURVE",
"175 298 OFFCURVE",
"323 298 CURVE SMOOTH"
);
}
);
width = 408;
}
);
leftKerningGroup = xi;
rightKerningGroup = xi;
unicode = 03BE;
},
{
glyphname = pi;
lastChange = "2016-12-19 13:36:04 +0000";
layers = (
{
layerId = UUID0;
paths = (
{
closed = 1;
nodes = (
"305 -4 LINE",
"483 7 LINE",
"488 116 LINE",
"527 422 LINE",
"362 422 LINE"
);
},
{
closed = 1;
nodes = (
"57 -4 LINE",
"235 7 LINE",
"240 116 LINE",
"279 422 LINE",
"114 422 LINE"
);
},
{
closed = 1;
nodes = (
"26 350 LINE",
"606 350 LINE",
"619 461 LINE",
"607 472 LINE",
"30 472 LINE",
"17 361 LINE"
);
}
);
width = 593;
}
);
leftKerningGroup = pi;
rightKerningGroup = pi;
unicode = 03C0;
},
{
glyphname = rho;
lastChange = "2016-12-19 13:36:04 +0000";
layers = (
{
layerId = UUID0;
paths = (
{
closed = 1;
nodes = (
"-28 -196 LINE",
"150 -185 LINE",
"153 -76 LINE",
"201 285 LINE SMOOTH",
"207 333 OFFCURVE",
"219 348 OFFCURVE",
"253 348 CURVE SMOOTH",
"282 348 OFFCURVE",
"288 337 OFFCURVE",
"288 273 CURVE SMOOTH",
"288 173 OFFCURVE",
"273 124 OFFCURVE",
"241 119 CURVE",
"39 181 LINE",
"17 32 LINE",
"203 -12 LINE",
"336 -4 OFFCURVE",
"459 143 OFFCURVE",
"459 300 CURVE SMOOTH",
"459 416 OFFCURVE",
"391 481 OFFCURVE",
"282 481 CURVE SMOOTH",
"144 481 OFFCURVE",
"49 378 OFFCURVE",
"27 213 CURVE SMOOTH"
);
}
);
width = 463;
}
);
leftKerningGroup = rho;
rightKerningGroup = b;
unicode = 03C1;
},
{
color = 0;
glyphname = sigmafinal;
lastChange = "2016-12-19 13:36:26 +0000";
layers = (
{
background = {
paths = (
{
closed = 1;
nodes = (
"193 -159 LINE",
"304 -30 OFFCURVE",
"340 38 OFFCURVE",
"340 112 CURVE SMOOTH",
"340 162 OFFCURVE",
"320 190 OFFCURVE",
"283 190 CURVE SMOOTH",
"269 190 OFFCURVE",
"216 182 OFFCURVE",
"203 182 CURVE SMOOTH",
"186 182 OFFCURVE",
"181 192 OFFCURVE",
"181 229 CURVE SMOOTH",
"181 311 OFFCURVE",
"198 345 OFFCURVE",
"240 345 CURVE SMOOTH",
"259 345 OFFCURVE",
"268 338 OFFCURVE",
"293 306 CURVE",
"332 307 LINE",
"383 437 LINE",
"379 455 LINE",
"290 481 LINE",
"121 481 OFFCURVE",
"9 366 OFFCURVE",
"9 193 CURVE SMOOTH",
"9 96 OFFCURVE",
"49 30 OFFCURVE",
"108 30 CURVE SMOOTH",
"123 30 OFFCURVE",
"168 37 OFFCURVE",
"176 37 CURVE SMOOTH",
"179 37 OFFCURVE",
"181 36 OFFCURVE",
"181 33 CURVE SMOOTH",
"181 25 OFFCURVE",
"129 -40 OFFCURVE",
"89 -82 CURVE",
"89 -93 LINE"
);
}
);
};
layerId = UUID0;
paths = (
{
closed = 1;
nodes = (
"193 -189 LINE",
"304 -60 OFFCURVE",
"340 8 OFFCURVE",
"340 82 CURVE SMOOTH",
"340 132 OFFCURVE",
"320 160 OFFCURVE",
"283 160 CURVE SMOOTH",
"269 160 OFFCURVE",
"216 152 OFFCURVE",
"203 152 CURVE SMOOTH",
"186 152 OFFCURVE",
"181 162 OFFCURVE",
"181 199 CURVE SMOOTH",
"181 271 OFFCURVE",
"206 345 OFFCURVE",
"248 345 CURVE SMOOTH",
"267 345 OFFCURVE",
"276 338 OFFCURVE",
"301 306 CURVE",
"340 307 LINE",
"391 437 LINE",
"387 455 LINE",
"295 481 LINE",
"126 481 OFFCURVE",
"9 336 OFFCURVE",
"9 163 CURVE SMOOTH",
"9 66 OFFCURVE",
"49 0 OFFCURVE",
"108 0 CURVE SMOOTH",
"123 0 OFFCURVE",
"168 7 OFFCURVE",
"176 7 CURVE SMOOTH",
"179 7 OFFCURVE",
"181 6 OFFCURVE",
"181 3 CURVE SMOOTH",
"181 -5 OFFCURVE",
"129 -70 OFFCURVE",
"89 -112 CURVE",
"89 -123 LINE"
);
}
);
width = 379;
}
);
leftKerningGroup = a;
rightKerningGroup = uni03C2;
unicode = 03C2;
},
{
glyphname = sigma;
lastChange = "2016-12-19 13:36:04 +0000";
layers = (
{
layerId = UUID0;
paths = (
{
closed = 1;
nodes = (
"186 -12 LINE",
"324 -12 OFFCURVE",
"439 101 OFFCURVE",
"439 235 CURVE SMOOTH",
"439 276 OFFCURVE",
"432 306 OFFCURVE",
"415 335 CURVE",
"437 386 LINE",
"265 432 LINE",
"273 388 OFFCURVE",
"277 333 OFFCURVE",
"277 280 CURVE SMOOTH",
"277 162 OFFCURVE",
"261 122 OFFCURVE",
"214 122 CURVE SMOOTH",
"185 122 OFFCURVE",
"180 132 OFFCURVE",
"180 187 CURVE SMOOTH",
"180 318 OFFCURVE",
"193 344 OFFCURVE",
"258 344 CURVE SMOOTH",
"494 344 LINE",
"518 463 LINE",
"515 472 LINE",
"283 472 LINE SMOOTH",
"109 472 OFFCURVE",
"10 369 OFFCURVE",
"10 189 CURVE SMOOTH",
"10 64 OFFCURVE",
"78 -12 OFFCURVE",
"186 -12 CURVE SMOOTH"
);
}
);
width = 495;
}
);
leftKerningGroup = a;
rightKerningGroup = sigma;
unicode = 03C3;
},
{
glyphname = tau;
lastChange = "2016-12-19 13:36:04 +0000";
layers = (
{
layerId = UUID0;
paths = (
{
closed = 1;
nodes = (
"224 -10 LINE",
"287 10 OFFCURVE",
"335 55 OFFCURVE",
"375 130 CURVE",
"324 193 LINE",
"311 192 LINE",
"282 152 OFFCURVE",
"279 149 OFFCURVE",
"271 149 CURVE SMOOTH",
"265 149 OFFCURVE",
"262 152 OFFCURVE",
"262 158 CURVE",
"263 166 LINE",
"306 449 LINE",
"138 449 LINE",
"92 137 LINE",
"89 107 LINE",
"86 36 OFFCURVE",
"139 -10 OFFCURVE",
"224 -10 CURVE"
);
},
{
closed = 1;
nodes = (
"26 350 LINE",
"407 350 LINE",
"420 461 LINE",
"408 472 LINE",
"30 472 LINE",
"17 361 LINE"
);
}
);
width = 404;
}
);
leftKerningGroup = pi;
rightKerningGroup = pi;
unicode = 03C4;
},
{
glyphname = upsilon;
lastChange = "2016-12-19 13:36:04 +0000";
layers = (
{
anchors = (
{
name = top;
position = "{271, 472}";
}
);
layerId = UUID0;
paths = (
{
closed = 1;
nodes = (
"201 -11 LINE",
"327 -11 OFFCURVE",
"432 74 OFFCURVE",
"447 187 CURVE SMOOTH",
"485 476 LINE",
"306 465 LINE",
"302 352 LINE",
"281 194 LINE SMOOTH",
"273 135 OFFCURVE",
"265 125 OFFCURVE",
"229 125 CURVE SMOOTH",
"196 125 OFFCURVE",
"186 141 OFFCURVE",
"194 196 CURVE SMOOTH",
"234 476 LINE",
"54 465 LINE",
"50 352 LINE",
"26 168 LINE SMOOTH",
"12 61 OFFCURVE",
"83 -11 OFFCURVE",
"201 -11 CURVE SMOOTH"
);
}
);
width = 485;
}
);
leftKerningGroup = upsilon;
rightKerningGroup = upsilon;
unicode = 03C5;
},
{
glyphname = phi;
lastChange = "2016-12-19 13:36:04 +0000";
layers = (
{
layerId = UUID0;
paths = (
{
closed = 1;
nodes = (
"174 -196 LINE",
"352 -185 LINE",
"356 -76 LINE",
"409 326 LINE SMOOTH",
"412 348 OFFCURVE",
"420 359 OFFCURVE",
"434 359 CURVE SMOOTH",
"454 359 OFFCURVE",
"461 341 OFFCURVE",
"461 288 CURVE SMOOTH",
"461 157 OFFCURVE",
"417 108 OFFCURVE",
"294 108 CURVE SMOOTH",
"207 108 OFFCURVE",
"175 136 OFFCURVE",
"175 212 CURVE SMOOTH",
"175 278 OFFCURVE",
"198 334 OFFCURVE",
"252 401 CURVE",
"253 421 LINE",
"193 484 LINE",
"86 452 OFFCURVE",
"10 333 OFFCURVE",
"10 197 CURVE SMOOTH",
"10 56 OFFCURVE",
"90 -8 OFFCURVE",
"269 -8 CURVE SMOOTH",
"509 -8 OFFCURVE",
"626 93 OFFCURVE",
"626 295 CURVE SMOOTH",
"626 417 OFFCURVE",
"569 481 OFFCURVE",
"462 481 CURVE SMOOTH",
"343 481 OFFCURVE",
"254 400 OFFCURVE",
"238 279 CURVE SMOOTH"
);
}
);
width = 634;
}
);
leftKerningGroup = a;
rightKerningGroup = b;
unicode = 03C6;
},
{
glyphname = chi;
lastChange = "2016-12-19 13:36:04 +0000";
layers = (
{
layerId = UUID0;
paths = (
{
closed = 1;
nodes = (
"347 -197 LINE",
"378 -192 OFFCURVE",
"406 -183 OFFCURVE",
"435 -169 CURVE",
"468 -63 LINE",
"458 -53 LINE",
"437 -60 OFFCURVE",
"426 -55 OFFCURVE",
"419 -35 CURVE SMOOTH",
"361 140 LINE",
"538 472 LINE",
"357 472 LINE",
"335 407 LINE",
"223 159 LINE",
"201 111 LINE",
"251 -92 LINE SMOOTH",
"272 -177 OFFCURVE",
"290 -193 OFFCURVE",
"347 -197 CURVE"
);
},
{
closed = 1;
nodes = (
"-50 -185 LINE",
"131 -185 LINE",
"153 -120 LINE",
"266 128 LINE",
"289 176 LINE",
"238 370 LINE SMOOTH",
"213 464 OFFCURVE",
"170 488 OFFCURVE",
"52 473 CURVE",
"13 348 LINE",
"19 333 LINE",
"55 341 OFFCURVE",
"64 334 OFFCURVE",
"80 287 CURVE SMOOTH",
"127 147 LINE"
);
}
);
width = 504;
}
);
leftKerningGroup = chi;
rightKerningGroup = chi;
unicode = 03C7;
},
{
glyphname = psi;
lastChange = "2016-12-19 13:36:04 +0000";
layers = (
{
layerId = UUID0;
paths = (
{
closed = 1;
nodes = (
"369 -11 LINE",
"498 -11 OFFCURVE",
"610 75 OFFCURVE",
"625 187 CURVE SMOOTH",
"663 476 LINE",
"484 465 LINE",
"480 352 LINE",
"459 194 LINE SMOOTH",
"452 139 OFFCURVE",
"438 125 OFFCURVE",
"396 125 CURVE SMOOTH",
"237 125 LINE SMOOTH",
"199 125 OFFCURVE",
"186 145 OFFCURVE",
"193 196 CURVE SMOOTH",
"233 476 LINE",
"53 465 LINE",
"49 352 LINE",
"25 168 LINE SMOOTH",
"11 63 OFFCURVE",
"87 -11 OFFCURVE",
"209 -11 CURVE SMOOTH"
);
},
{
closed = 1;
nodes = (
"193 -196 LINE",
"371 -185 LINE",
"375 -76 LINE",
"458 557 LINE",
"280 546 LINE",
"276 433 LINE"
);
}
);
width = 662;
}
);
leftKerningGroup = upsilon;
rightKerningGroup = upsilon;
unicode = 03C8;
},
{
glyphname = omega;
lastChange = "2016-12-19 13:36:04 +0000";
layers = (
{
anchors = (
{
name = bottom;
position = "{286, 0}";
},
{
name = top;
position = "{343, 441}";
}
);
layerId = UUID0;
paths = (
{
closed = 1;
nodes = (
"151 -7 LINE",
"240 -7 OFFCURVE",
"286 29 OFFCURVE",
"315 122 CURVE",
"271 122 LINE",
"282 33 OFFCURVE",
"326 -7 OFFCURVE",
"412 -7 CURVE SMOOTH",
"547 -7 OFFCURVE",
"624 90 OFFCURVE",
"624 258 CURVE SMOOTH",
"624 381 OFFCURVE",
"584 446 OFFCURVE",
"491 478 CURVE",
"418 415 LINE",
"418 395 LINE",
"439 356 OFFCURVE",
"451 303 OFFCURVE",
"451 242 CURVE SMOOTH",
"451 168 OFFCURVE",
"436 129 OFFCURVE",
"406 129 CURVE SMOOTH",
"392 129 OFFCURVE",
"387 136 OFFCURVE",
"389 152 CURVE SMOOTH",
"410 319 LINE",
"399 332 LINE",
"247 326 LINE",
"225 155 LINE SMOOTH",
"223 136 OFFCURVE",
"215 129 OFFCURVE",
"198 129 CURVE SMOOTH",
"182 129 OFFCURVE",
"176 141 OFFCURVE",
"176 176 CURVE SMOOTH",
"176 257 OFFCURVE",
"207 347 OFFCURVE",
"253 395 CURVE",
"254 415 LINE",
"193 478 LINE",
"83 448 OFFCURVE",
"10 324 OFFCURVE",
"10 168 CURVE SMOOTH",
"10 47 OFFCURVE",
"54 -7 OFFCURVE",
"151 -7 CURVE"
);
}
);
width = 639;
}
);
leftKerningGroup = omega;
rightKerningGroup = omega;
unicode = 03C9;
},
{
glyphname = gamma.sc;
lastChange = "2016-12-19 13:36:26 +0000";
layers = (
{
layerId = UUID0;
paths = (
{
closed = 1;
nodes = (
"276 513 LINE",
"88 513 LINE",
"52 150 LINE",
"25 0 LINE",
"210 0 LINE",
"224 168 LINE"
);
},
{
closed = 1;
nodes = (
"443 513 LINE",
"216 513 LINE",
"201 382 LINE",
"199 372 LINE",
"302 372 LINE",
"424 366 LINE",
"451 501 LINE"
);
}
);
width = 425;
}
);
leftKerningGroup = gamma.sc;
rightKerningGroup = gamma.sc;
},
{
glyphname = delta.sc;
lastChange = "2016-12-19 13:36:26 +0000";
layers = (
{
layerId = UUID0;
paths = (
{
closed = 1;
nodes = (
"3 0 LINE",
"484 0 LINE",
"498 117 LINE",
"423 513 LINE",
"200 513 LINE",
"17 117 LINE"
);
},
{
closed = 1;
nodes = (
"191 141 LINE",
"283 351 LINE",
"293 351 LINE",
"321 141 LINE"
);
}
);
width = 541;
}
);
leftKerningGroup = delta.sc;
rightKerningGroup = delta.sc;
},
{
glyphname = theta.sc;
lastChange = "2016-12-19 13:36:26 +0000";
layers = (
{
layerId = UUID0;
paths = (
{
closed = 1;
nodes = (
"222 194 LINE",
"352 198 LINE",
"369 301 LINE",
"360 311 LINE",
"230 306 LINE",
"214 204 LINE"
);
},
{
closed = 1;
nodes = (
"337 521 LINE",
"140 521 OFFCURVE",
"16 399 OFFCURVE",
"16 210 CURVE SMOOTH",
"16 74 OFFCURVE",
"100 -9 OFFCURVE",
"247 -9 CURVE SMOOTH",
"443 -9 OFFCURVE",
"567 113 OFFCURVE",
"567 304 CURVE SMOOTH",
"567 439 OFFCURVE",
"483 521 OFFCURVE",
"337 521 CURVE SMOOTH"
);
},
{
closed = 1;
nodes = (
"305 390 LINE",
"372 390 OFFCURVE",
"398 363 OFFCURVE",
"398 282 CURVE SMOOTH",
"398 161 OFFCURVE",
"373 111 OFFCURVE",
"277 111 CURVE SMOOTH",
"210 111 OFFCURVE",
"183 137 OFFCURVE",
"183 218 CURVE SMOOTH",
"183 339 OFFCURVE",
"200 390 OFFCURVE",
"305 390 CURVE SMOOTH"
);
}
);
width = 580;
}
);
leftKerningGroup = theta.sc;
rightKerningGroup = theta.sc;
},
{
glyphname = lambda.sc;
lastChange = "2016-12-19 13:36:26 +0000";
layers = (
{
layerId = UUID0;
paths = (
{
closed = 1;
nodes = (
"425 513 LINE",
"195 513 LINE",
"-22 0 LINE",
"164 0 LINE",
"193 107 LINE",
"281 347 LINE",
"292 347 LINE",
"305 96 LINE",
"309 0 LINE",
"500 0 LINE"
);
}
);
width = 544;
}
);
leftKerningGroup = delta.sc;
rightKerningGroup = delta.sc;
},
{
glyphname = xi.sc;
lastChange = "2016-12-19 13:36:26 +0000";
layers = (
{
layerId = UUID0;
paths = (
{
closed = 1;
nodes = (
"17 0 LINE",
"433 0 LINE",
"461 133 LINE",
"452 145 LINE",
"239 139 LINE",
"34 145 LINE",
"22 133 LINE"
);
},
{
closed = 1;
nodes = (
"85 184 LINE",
"259 186 LINE",
"407 184 LINE",
"434 317 LINE",
"425 329 LINE",
"276 326 LINE",
"103 329 LINE",
"75 196 LINE"
);
},
{
closed = 1;
nodes = (
"62 368 LINE",
"283 373 LINE",
"480 368 LINE",
"509 501 LINE",
"500 513 LINE",
"82 513 LINE",
"53 381 LINE"
);
}
);
width = 509;
}
);
leftKerningGroup = xi.sc;
rightKerningGroup = xi.sc;
},
{
glyphname = pi.sc;
lastChange = "2016-12-19 13:36:26 +0000";
layers = (
{
layerId = UUID0;
paths = (
{
closed = 1;
nodes = (
"347 0 LINE",
"533 0 LINE",
"546 168 LINE",
"598 513 LINE",
"410 513 LINE",
"375 150 LINE"
);
},
{
closed = 1;
nodes = (
"25 0 LINE",
"210 0 LINE",
"224 168 LINE",
"276 513 LINE",
"88 513 LINE",
"52 150 LINE"
);
},
{
closed = 1;
nodes = (
"230 362 LINE",
"320 368 LINE",
"414 364 LINE",
"432 513 LINE",
"249 513 LINE"
);
}
);
width = 625;
}
);
leftKerningGroup = gamma.sc;
rightKerningGroup = pi.sc;
},
{
glyphname = sigma.sc;
lastChange = "2016-12-19 13:36:26 +0000";
layers = (
{
layerId = UUID0;
paths = (
{
closed = 1;
nodes = (
"477 515 LINE",
"360 513 LINE",
"155 513 LINE",
"72 515 LINE",
"54 375 LINE",
"166 265 LINE",
"20 127 LINE",
"4 -3 LINE",
"100 0 LINE",
"270 0 LINE",
"424 -2 LINE",
"453 138 LINE",
"444 153 LINE",
"330 143 LINE",
"229 143 LINE",
"362 267 LINE",
"366 295 LINE",
"282 370 LINE",
"361 370 LINE",
"457 364 LINE",
"486 503 LINE"
);
}
);
width = 493;
}
);
leftKerningGroup = sigma.sc;
rightKerningGroup = xi.sc;
},
{
glyphname = phi.sc;
lastChange = "2016-12-19 13:36:26 +0000";
layers = (
{
layerId = UUID0;
paths = (
{
closed = 1;
nodes = (
"318 21 LINE",
"564 21 OFFCURVE",
"695 93 OFFCURVE",
"695 294 CURVE SMOOTH",
"695 429 OFFCURVE",
"595 494 OFFCURVE",
"397 494 CURVE SMOOTH",
"148 494 OFFCURVE",
"21 421 OFFCURVE",
"21 220 CURVE SMOOTH",
"21 85 OFFCURVE",
"121 21 OFFCURVE",
"318 21 CURVE SMOOTH"
);
},
{
closed = 1;
nodes = (
"351 148 LINE",
"239 148 OFFCURVE",
"195 165 OFFCURVE",
"195 237 CURVE SMOOTH",
"195 336 OFFCURVE",
"233 365 OFFCURVE",
"365 365 CURVE SMOOTH",
"479 365 OFFCURVE",
"521 343 OFFCURVE",
"521 271 CURVE SMOOTH",
"521 169 OFFCURVE",
"478 148 OFFCURVE",
"351 148 CURVE SMOOTH"
);
},
{
closed = 1;
nodes = (
"241 -27 LINE",
"403 -27 LINE",
"421 167 LINE",
"474 534 LINE",
"310 534 LINE",
"270 150 LINE"
);
}
);
width = 710;
}
);
leftKerningGroup = theta.sc;
rightKerningGroup = theta.sc;
},
{
glyphname = psi.sc;
lastChange = "2016-12-19 13:36:26 +0000";
layers = (
{
layerId = UUID0;
paths = (
{
closed = 1;
nodes = (
"493 513 LINE",
"314 513 LINE",
"278 150 LINE",
"251 0 LINE",
"427 0 LINE",
"441 167 LINE"
);
},
{
closed = 1;
nodes = (
"744 513 LINE",
"565 513 LINE",
"548 312 LINE SMOOTH",
"543 248 OFFCURVE",
"486 219 OFFCURVE",
"367 219 CURVE SMOOTH",
"248 219 OFFCURVE",
"200 248 OFFCURVE",
"211 312 CURVE SMOOTH",
"244 513 LINE",
"64 513 LINE",
"49 364 LINE",
"39 285 LINE SMOOTH",
"22 153 OFFCURVE",
"129 76 OFFCURVE",
"341 76 CURVE SMOOTH",
"558 76 OFFCURVE",
"692 153 OFFCURVE",
"710 285 CURVE SMOOTH",
"721 364 LINE"
);
}
);
width = 738;
}
);
leftKerningGroup = psi.sc;
rightKerningGroup = psi.sc;
},
{
glyphname = omega.sc;
lastChange = "2016-12-19 13:36:26 +0000";
layers = (
{
anchors = (
{
name = bottom;
position = "{260, 0}";
},
{
name = top;
position = "{323, 513}";
},
{
name = topleft;
position = "{23, 513}";
}
);
layerId = UUID0;
paths = (
{
closed = 1;
nodes = (
"10 -5 LINE",
"97 0 LINE",
"214 0 LINE",
"248 -3 LINE",
"257 4 LINE",
"275 176 LINE",
"244 195 OFFCURVE",
"231 220 OFFCURVE",
"231 262 CURVE SMOOTH",
"231 355 OFFCURVE",
"261 378 OFFCURVE",
"313 378 CURVE SMOOTH",
"359 378 OFFCURVE",
"378 358 OFFCURVE",
"378 306 CURVE SMOOTH",
"378 220 OFFCURVE",
"355 199 OFFCURVE",
"308 176 CURVE",
"285 4 LINE",
"291 -3 LINE",
"325 0 LINE",
"447 0 LINE",
"522 -4 LINE",
"555 134 LINE",
"547 145 LINE",
"459 136 LINE",
"428 136 LINE",
"429 144 LINE",
"525 184 OFFCURVE",
"575 250 OFFCURVE",
"575 341 CURVE SMOOTH",
"575 452 OFFCURVE",
"487 524 OFFCURVE",
"344 524 CURVE SMOOTH",
"170 524 OFFCURVE",
"45 425 OFFCURVE",
"45 283 CURVE SMOOTH",
"45 215 OFFCURVE",
"79 165 OFFCURVE",
"145 144 CURVE",
"144 136 LINE",
"110 136 LINE",
"35 143 LINE",
"2 5 LINE"
);
}
);
width = 599;
}
);
leftKerningGroup = omega.sc;
rightKerningGroup = omega.sc;
},
{
glyphname = zero;
lastChange = "2016-12-19 13:36:04 +0000";
layers = (
{
layerId = UUID0;
paths = (
{
closed = 1;
nodes = (
"296 524 LINE",
"129 524 OFFCURVE",
"28 392 OFFCURVE",
"28 214 CURVE SMOOTH",
"28 65 OFFCURVE",
"99 -12 OFFCURVE",
"226 -12 CURVE SMOOTH",
"391 -12 OFFCURVE",
"493 117 OFFCURVE",
"493 299 CURVE SMOOTH",
"493 451 OFFCURVE",
"421 524 OFFCURVE",
"296 524 CURVE SMOOTH"
);
},
{
closed = 1;
nodes = (
"269 342 LINE",
"322 342 OFFCURVE",
"339 321 OFFCURVE",
"339 263 CURVE SMOOTH",
"339 195 OFFCURVE",
"315 159 OFFCURVE",
"250 159 CURVE SMOOTH",
"194 159 OFFCURVE",
"182 185 OFFCURVE",
"182 240 CURVE SMOOTH",
"182 307 OFFCURVE",
"200 342 OFFCURVE",
"269 342 CURVE SMOOTH"
);
}
);
width = 516;
}
);
unicode = 0030;
},
{
glyphname = one;
lastChange = "2016-12-19 13:36:04 +0000";
layers = (
{
layerId = UUID0;
paths = (
{
closed = 1;
nodes = (
"310 522 LINE",
"31 446 LINE",
"12 288 LINE",
"23 279 LINE",
"119 299 LINE",
"106 190 LINE",
"74 0 LINE",
"272 0 LINE",
"290 210 LINE",
"336 502 LINE"
);
}
);
width = 379;
}
);
unicode = 0031;
},
{
glyphname = two;
lastChange = "2016-12-19 13:36:04 +0000";
layers = (
{
layerId = UUID0;
paths = (
{
closed = 1;
nodes = (
"274 522 LINE",
"201 522 OFFCURVE",
"129 499 OFFCURVE",
"53 459 CURVE",
"67 307 LINE",
"88 307 LINE",
"133 337 OFFCURVE",
"185 357 OFFCURVE",
"221 357 CURVE SMOOTH",
"243 357 OFFCURVE",
"253 349 OFFCURVE",
"253 336 CURVE SMOOTH",
"253 312 OFFCURVE",
"216 278 OFFCURVE",
"157 232 CURVE SMOOTH",
"17 122 LINE",
"2 4 LINE",
"10 -3 LINE",
"47 0 LINE",
"277 0 LINE",
"420 -8 LINE",
"461 146 LINE",
"452 158 LINE",
"354 148 LINE",
"277 148 LINE",
"274 153 LINE",
"324 199 LINE SMOOTH",
"420 287 OFFCURVE",
"455 337 OFFCURVE",
"455 391 CURVE SMOOTH",
"455 477 OFFCURVE",
"375 522 OFFCURVE",
"274 522 CURVE SMOOTH"
);
}
);
width = 490;
}
);
unicode = 0032;
},
{
glyphname = three;
lastChange = "2016-12-19 13:36:04 +0000";
layers = (
{
layerId = UUID0;
paths = (
{
closed = 1;
nodes = (
"244 524 LINE",
"176 524 OFFCURVE",
"109 504 OFFCURVE",
"43 469 CURVE",
"55 334 LINE",
"75 334 LINE",
"119 353 OFFCURVE",
"156 366 OFFCURVE",
"190 366 CURVE SMOOTH",
"218 366 OFFCURVE",
"231 357 OFFCURVE",
"231 337 CURVE SMOOTH",
"231 308 OFFCURVE",
"196 284 OFFCURVE",
"168 283 CURVE SMOOTH",
"108 280 LINE",
"87 146 LINE",
"93 134 LINE",
"177 134 LINE",
"208 134 OFFCURVE",
"219 124 OFFCURVE",
"219 104 CURVE SMOOTH",
"219 72 OFFCURVE",
"191 54 OFFCURVE",
"129 54 CURVE SMOOTH",
"91 54 OFFCURVE",
"53 61 OFFCURVE",
"10 74 CURVE",
"-5 62 LINE",
"-12 -82 LINE",
"23 -89 OFFCURVE",
"76 -93 OFFCURVE",
"114 -93 CURVE SMOOTH",
"292 -93 OFFCURVE",
"408 -9 OFFCURVE",
"408 111 CURVE SMOOTH",
"408 169 OFFCURVE",
"381 200 OFFCURVE",
"329 229 CURVE",
"329 235 LINE",
"400 269 OFFCURVE",
"437 339 OFFCURVE",
"437 391 CURVE SMOOTH",
"437 469 OFFCURVE",
"356 524 OFFCURVE",
"244 524 CURVE SMOOTH"
);
}
);
width = 453;
}
);
unicode = 0033;
},
{
glyphname = four;
lastChange = "2016-12-19 13:36:04 +0000";
layers = (
{
layerId = UUID0;
paths = (
{
closed = 1;
nodes = (
"465 514 LINE",
"285 514 LINE",
"6 167 LINE",
"-9 44 LINE",
"1 28 LINE",
"114 32 LINE",
"340 32 LINE",
"473 28 LINE",
"498 164 LINE",
"489 181 LINE",
"176 181 LINE",
"271 300 LINE",
"282 300 LINE",
"263 144 LINE",
"225 -83 LINE",
"233 -95 LINE",
"387 -86 LINE",
"399 -73 LINE",
"410 106 LINE"
);
}
);
width = 529;
}
);
unicode = 0034;
},
{
glyphname = five;
lastChange = "2016-12-19 13:36:04 +0000";
layers = (
{
layerId = UUID0;
paths = (
{
closed = 1;
nodes = (
"447 522 LINE",
"330 514 LINE",
"169 514 LINE",
"106 518 LINE",
"85 498 LINE",
"46 184 LINE",
"56 170 LINE",
"163 152 LINE SMOOTH",
"201 146 OFFCURVE",
"218 133 OFFCURVE",
"218 109 CURVE SMOOTH",
"218 73 OFFCURVE",
"184 53 OFFCURVE",
"126 53 CURVE SMOOTH",
"83 53 OFFCURVE",
"43 59 OFFCURVE",
"-1 72 CURVE",
"-14 59 LINE",
"-21 -81 LINE",
"17 -89 OFFCURVE",
"67 -95 OFFCURVE",
"106 -95 CURVE SMOOTH",
"282 -95 OFFCURVE",
"407 3 OFFCURVE",
"407 144 CURVE SMOOTH",
"407 222 OFFCURVE",
"362 268 OFFCURVE",
"268 289 CURVE SMOOTH",
"209 302 LINE",
"217 363 LINE",
"296 363 LINE",
"405 348 LINE",
"420 362 LINE",
"457 510 LINE"
);
}
);
width = 448;
}
);
unicode = 0035;
},
{
glyphname = six;
lastChange = "2016-12-19 13:36:04 +0000";
layers = (
{
layerId = UUID0;
paths = (
{
closed = 1;
nodes = (
"358 598 LINE",
"349 598 LINE",
"141 504 OFFCURVE",
"15 361 OFFCURVE",
"15 198 CURVE SMOOTH",
"15 68 OFFCURVE",
"95 -12 OFFCURVE",
"232 -12 CURVE SMOOTH",
"394 -12 OFFCURVE",
"475 99 OFFCURVE",
"475 202 CURVE SMOOTH",
"475 290 OFFCURVE",
"417 376 OFFCURVE",
"311 376 CURVE SMOOTH",
"291 376 OFFCURVE",
"274 373 OFFCURVE",
"253 366 CURVE",
"224 406 LINE",
"178 226 LINE",
"204 236 OFFCURVE",
"228 241 OFFCURVE",
"247 241 CURVE SMOOTH",
"282 241 OFFCURVE",
"296 223 OFFCURVE",
"296 185 CURVE SMOOTH",
"296 142 OFFCURVE",
"278 113 OFFCURVE",
"239 113 CURVE SMOOTH",
"203 113 OFFCURVE",
"191 137 OFFCURVE",
"191 197 CURVE SMOOTH",
"191 347 OFFCURVE",
"267 435 OFFCURVE",
"469 493 CURVE",
"471 512 LINE"
);
}
);
width = 500;
}
);
unicode = 0036;
},
{
glyphname = seven;
lastChange = "2016-12-19 13:36:04 +0000";
layers = (
{
layerId = UUID0;
paths = (
{
closed = 1;
nodes = (
"55 519 LINE",
"23 356 LINE",
"30 341 LINE",
"143 353 LINE",
"252 353 LINE",
"25 -24 LINE",
"34 -54 LINE",
"184 -97 LINE",
"277 89 LINE",
"443 374 LINE",
"461 516 LINE",
"403 514 LINE",
"193 514 LINE"
);
}
);
width = 451;
}
);
unicode = 0037;
},
{
glyphname = eight;
lastChange = "2016-12-19 13:36:04 +0000";
layers = (
{
layerId = UUID0;
paths = (
{
closed = 1;
nodes = (
"297 598 LINE",
"158 598 OFFCURVE",
"68 524 OFFCURVE",
"68 415 CURVE SMOOTH",
"68 348 OFFCURVE",
"100 309 OFFCURVE",
"142 283 CURVE",
"141 275 LINE",
"63 246 OFFCURVE",
"24 205 OFFCURVE",
"24 135 CURVE SMOOTH",
"24 47 OFFCURVE",
"105 -12 OFFCURVE",
"243 -12 CURVE SMOOTH",
"383 -12 OFFCURVE",
"475 63 OFFCURVE",
"475 173 CURVE SMOOTH",
"475 239 OFFCURVE",
"442 276 OFFCURVE",
"394 305 CURVE",
"395 313 LINE",
"457 349 OFFCURVE",
"490 394 OFFCURVE",
"490 453 CURVE SMOOTH",
"490 541 OFFCURVE",
"419 598 OFFCURVE",
"297 598 CURVE SMOOTH"
);
},
{
closed = 1;
nodes = (
"243 225 LINE",
"283 209 OFFCURVE",
"315 192 OFFCURVE",
"315 162 CURVE SMOOTH",
"315 140 OFFCURVE",
"294 116 OFFCURVE",
"247 116 CURVE SMOOTH",
"206 116 OFFCURVE",
"187 133 OFFCURVE",
"187 165 CURVE SMOOTH",
"187 192 OFFCURVE",
"202 210 OFFCURVE",
"243 225 CURVE"
);
},
{
closed = 1;
nodes = (
"283 466 LINE",
"317 466 OFFCURVE",
"335 451 OFFCURVE",
"335 425 CURVE SMOOTH",
"335 403 OFFCURVE",
"321 382 OFFCURVE",
"293 360 CURVE",
"251 377 OFFCURVE",
"228 394 OFFCURVE",
"228 423 CURVE SMOOTH",
"228 447 OFFCURVE",
"246 466 OFFCURVE",
"283 466 CURVE SMOOTH"
);
}
);
width = 516;
}
);
unicode = 0038;
},
{
glyphname = zero.lf;
lastChange = "2016-12-19 13:36:26 +0000";
layers = (
{
layerId = UUID0;
paths = (
{
closed = 1;
nodes = (
"303 597 LINE",
"130 597 OFFCURVE",
"26 440 OFFCURVE",
"26 239 CURVE SMOOTH",
"26 70 OFFCURVE",
"99 -12 OFFCURVE",
"224 -12 CURVE SMOOTH",
"395 -12 OFFCURVE",
"499 142 OFFCURVE",
"499 347 CURVE SMOOTH",
"499 518 OFFCURVE",
"426 597 OFFCURVE",
"303 597 CURVE SMOOTH"
);
},
{
closed = 1;
nodes = (
"275 415 LINE",
"328 415 OFFCURVE",
"344 386 OFFCURVE",
"344 312 CURVE SMOOTH",
"344 217 OFFCURVE",
"318 159 OFFCURVE",
"247 159 CURVE SMOOTH",
"192 159 OFFCURVE",
"181 194 OFFCURVE",
"181 264 CURVE SMOOTH",
"181 356 OFFCURVE",
"200 415 OFFCURVE",
"275 415 CURVE SMOOTH"
);
}
);
width = 516;
}
);
},
{
glyphname = one.lf;
lastChange = "2016-12-19 13:36:26 +0000";
layers = (
{
layerId = UUID0;
paths = (
{
closed = 1;
nodes = (
"333 595 LINE",
"35 519 LINE",
"16 361 LINE",
"27 352 LINE",
"142 372 LINE",
"120 190 LINE",
"88 0 LINE",
"286 0 LINE",
"304 210 LINE",
"359 575 LINE"
);
}
);
width = 394;
}
);
},
{
glyphname = two.lf;
lastChange = "2016-12-19 13:36:26 +0000";
layers = (
{
layerId = UUID0;
paths = (
{
closed = 1;
nodes = (
"288 597 LINE",
"213 597 OFFCURVE",
"132 567 OFFCURVE",
"61 521 CURVE",
"75 369 LINE",
"96 369 LINE",
"146 407 OFFCURVE",
"201 431 OFFCURVE",
"234 431 CURVE SMOOTH",
"259 431 OFFCURVE",
"269 418 OFFCURVE",
"269 401 CURVE SMOOTH",
"269 365 OFFCURVE",
"223 324 OFFCURVE",
"176 277 CURVE SMOOTH",
"17 123 LINE",
"3 4 LINE",
"11 -3 LINE",
"48 0 LINE",
"285 0 LINE",
"430 -8 LINE",
"471 150 LINE",
"463 163 LINE",
"363 153 LINE",
"275 153 LINE",
"272 158 LINE",
"336 226 LINE SMOOTH",
"438 334 OFFCURVE",
"471 387 OFFCURVE",
"471 446 CURVE SMOOTH",
"471 537 OFFCURVE",
"393 597 OFFCURVE",
"288 597 CURVE SMOOTH"
);
}
);
width = 506;
}
);
},
{
glyphname = three.lf;
lastChange = "2016-12-19 13:36:26 +0000";
layers = (
{
layerId = UUID0;
paths = (
{
closed = 1;
nodes = (
"257 598 LINE",
"189 598 OFFCURVE",
"122 578 OFFCURVE",
"56 544 CURVE",
"69 409 LINE",
"89 409 LINE",
"132 428 OFFCURVE",
"169 440 OFFCURVE",
"203 440 CURVE SMOOTH",
"231 440 OFFCURVE",
"244 432 OFFCURVE",
"244 413 CURVE SMOOTH",
"244 385 OFFCURVE",
"209 362 OFFCURVE",
"181 361 CURVE SMOOTH",
"122 358 LINE",
"101 224 LINE",
"107 212 LINE",
"191 212 LINE",
"221 212 OFFCURVE",
"232 203 OFFCURVE",
"232 184 CURVE SMOOTH",
"232 154 OFFCURVE",
"205 137 OFFCURVE",
"143 137 CURVE SMOOTH",
"105 137 OFFCURVE",
"67 144 OFFCURVE",
"24 157 CURVE",
"9 145 LINE",
"2 1 LINE",
"37 -6 OFFCURVE",
"90 -10 OFFCURVE",
"128 -10 CURVE SMOOTH",
"306 -10 OFFCURVE",
"421 73 OFFCURVE",
"421 191 CURVE SMOOTH",
"421 248 OFFCURVE",
"394 278 OFFCURVE",
"342 307 CURVE",
"342 313 LINE",
"413 347 OFFCURVE",
"450 416 OFFCURVE",
"450 467 CURVE SMOOTH",
"450 544 OFFCURVE",
"369 598 OFFCURVE",
"257 598 CURVE SMOOTH"
);
}
);
width = 453;
}
);
},
{
glyphname = four.lf;
lastChange = "2016-12-19 13:36:26 +0000";
layers = (
{
layerId = UUID0;
paths = (
{
closed = 1;
nodes = (
"468 586 LINE",
"288 586 LINE",
"10 245 LINE",
"-5 122 LINE",
"5 107 LINE",
"118 111 LINE",
"343 111 LINE",
"476 107 LINE",
"501 242 LINE",
"492 259 LINE",
"180 259 LINE",
"274 372 LINE",
"285 372 LINE",
"266 223 LINE",
"229 -1 LINE",
"237 -13 LINE",
"391 -4 LINE",
"403 9 LINE",
"413 184 LINE"
);
}
);
width = 519;
}
);
},
{
glyphname = five.lf;
lastChange = "2016-12-19 13:36:26 +0000";
layers = (
{
layerId = UUID0;
paths = (
{
closed = 1;
nodes = (
"458 594 LINE",
"341 586 LINE",
"180 586 LINE",
"117 590 LINE",
"96 570 LINE",
"58 260 LINE",
"68 246 LINE",
"175 228 LINE SMOOTH",
"213 223 OFFCURVE",
"230 211 OFFCURVE",
"230 188 CURVE SMOOTH",
"230 154 OFFCURVE",
"196 135 OFFCURVE",
"138 135 CURVE SMOOTH",
"95 135 OFFCURVE",
"55 141 OFFCURVE",
"11 154 CURVE",
"-2 141 LINE",
"-8 1 LINE",
"30 -7 OFFCURVE",
"80 -12 OFFCURVE",
"118 -12 CURVE SMOOTH",
"294 -12 OFFCURVE",
"419 84 OFFCURVE",
"419 222 CURVE SMOOTH",
"419 299 OFFCURVE",
"374 345 OFFCURVE",
"280 365 CURVE SMOOTH",
"221 378 LINE",
"229 435 LINE",
"307 435 LINE",
"416 420 LINE",
"431 434 LINE",
"468 582 LINE"
);
}
);
width = 455;
}
);
},
{
glyphname = seven.lf;
lastChange = "2016-12-19 13:36:26 +0000";
layers = (
{
layerId = UUID0;
paths = (
{
closed = 1;
nodes = (
"58 591 LINE",
"26 428 LINE",
"33 413 LINE",
"145 425 LINE",
"250 425 LINE",
"28 58 LINE",
"37 28 LINE",
"187 -15 LINE",
"279 170 LINE",
"441 446 LINE",
"459 588 LINE",
"401 586 LINE",
"195 586 LINE"
);
}
);
width = 435;
}
);
},
{
glyphname = zero.tf;
lastChange = "2016-12-19 13:36:26 +0000";
layers = (
{
layerId = UUID0;
paths = (
{
closed = 1;
nodes = (
"287 597 LINE",
"119 597 OFFCURVE",
"18 439 OFFCURVE",
"18 236 CURVE SMOOTH",
"18 69 OFFCURVE",
"88 -12 OFFCURVE",
"208 -12 CURVE SMOOTH",
"373 -12 OFFCURVE",
"475 143 OFFCURVE",
"475 350 CURVE SMOOTH",
"475 519 OFFCURVE",
"405 597 OFFCURVE",
"287 597 CURVE SMOOTH"
);
},
{
closed = 1;
nodes = (
"258 415 LINE",
"306 415 OFFCURVE",
"320 387 OFFCURVE",
"320 315 CURVE SMOOTH",
"320 218 OFFCURVE",
"297 159 OFFCURVE",
"232 159 CURVE SMOOTH",
"182 159 OFFCURVE",
"173 193 OFFCURVE",
"173 260 CURVE SMOOTH",
"173 354 OFFCURVE",
"188 415 OFFCURVE",
"258 415 CURVE SMOOTH"
);
}
);
width = 481;
}
);
},
{
glyphname = one.tf;
lastChange = "2016-12-19 13:36:26 +0000";
layers = (
{
layerId = UUID0;
paths = (
{
closed = 1;
nodes = (
"375 595 LINE",
"55 519 LINE",
"36 361 LINE",
"47 352 LINE",
"184 372 LINE",
"162 190 LINE",
"130 0 LINE",
"328 0 LINE",
"346 210 LINE",
"401 575 LINE"
);
}
);
width = 475;
}
);
},
{
glyphname = two.tf;
lastChange = "2016-12-19 13:36:26 +0000";
layers = (
{
layerId = UUID0;
paths = (
{
closed = 1;
nodes = (
"273 597 LINE",
"201 597 OFFCURVE",
"122 567 OFFCURVE",
"53 521 CURVE",
"66 369 LINE",
"87 369 LINE",
"135 407 OFFCURVE",
"187 431 OFFCURVE",
"217 431 CURVE SMOOTH",
"239 431 OFFCURVE",
"248 418 OFFCURVE",
"248 401 CURVE SMOOTH",
"248 365 OFFCURVE",
"204 324 OFFCURVE",
"162 277 CURVE SMOOTH",
"10 123 LINE",
"-5 4 LINE",
"3 -3 LINE",
"39 0 LINE",
"265 0 LINE",
"405 -8 LINE",
"448 150 LINE",
"440 163 LINE",
"343 153 LINE",
"268 153 LINE",
"265 158 LINE",
"322 226 LINE SMOOTH",
"420 334 OFFCURVE",
"451 387 OFFCURVE",
"451 446 CURVE SMOOTH",
"451 537 OFFCURVE",
"375 597 OFFCURVE",
"273 597 CURVE SMOOTH"
);
}
);
width = 476;
}
);
},
{
glyphname = three.tf;
lastChange = "2016-12-19 13:36:26 +0000";
layers = (
{
layerId = UUID0;
paths = (
{
closed = 1;
nodes = (
"267 598 LINE",
"199 598 OFFCURVE",
"132 578 OFFCURVE",
"66 544 CURVE",
"79 409 LINE",
"99 409 LINE",
"142 428 OFFCURVE",
"179 440 OFFCURVE",
"213 440 CURVE SMOOTH",
"241 440 OFFCURVE",
"254 432 OFFCURVE",
"254 413 CURVE SMOOTH",
"254 385 OFFCURVE",
"219 362 OFFCURVE",
"191 361 CURVE SMOOTH",
"132 358 LINE",
"111 224 LINE",
"117 212 LINE",
"201 212 LINE",
"231 212 OFFCURVE",
"242 203 OFFCURVE",
"242 184 CURVE SMOOTH",
"242 154 OFFCURVE",
"215 137 OFFCURVE",
"153 137 CURVE SMOOTH",
"115 137 OFFCURVE",
"77 144 OFFCURVE",
"34 157 CURVE",
"19 145 LINE",
"12 1 LINE",
"47 -6 OFFCURVE",
"100 -10 OFFCURVE",
"138 -10 CURVE SMOOTH",
"316 -10 OFFCURVE",
"431 73 OFFCURVE",
"431 191 CURVE SMOOTH",
"431 248 OFFCURVE",
"404 278 OFFCURVE",
"352 307 CURVE",
"352 313 LINE",
"423 347 OFFCURVE",
"460 416 OFFCURVE",
"460 467 CURVE SMOOTH",
"460 544 OFFCURVE",
"379 598 OFFCURVE",
"267 598 CURVE SMOOTH"
);
}
);
width = 475;
}
);
},
{
glyphname = four.tf;
lastChange = "2016-12-19 13:36:26 +0000";
layers = (
{
layerId = UUID0;
paths = (
{
closed = 1;
nodes = (
"436 586 LINE",
"271 586 LINE",
"5 242 LINE",
"-11 128 LINE",
"-1 114 LINE",
"103 118 LINE",
"318 118 LINE",
"443 114 LINE",
"467 239 LINE",
"458 255 LINE",
"162 255 LINE",
"256 387 LINE",
"266 387 LINE",
"247 221 LINE",
"210 -1 LINE",
"218 -12 LINE",
"360 -4 LINE",
"371 8 LINE",
"382 186 LINE"
);
}
);
width = 475;
}
);
},
{
glyphname = five.tf;
lastChange = "2016-12-19 13:36:26 +0000";
layers = (
{
layerId = UUID0;
paths = (
{
closed = 1;
nodes = (
"473 594 LINE",
"355 586 LINE",
"191 586 LINE",
"127 590 LINE",
"106 570 LINE",
"68 260 LINE",
"78 246 LINE",
"186 228 LINE SMOOTH",
"227 223 OFFCURVE",
"245 211 OFFCURVE",
"245 188 CURVE SMOOTH",
"245 154 OFFCURVE",
"209 135 OFFCURVE",
"148 135 CURVE SMOOTH",
"104 135 OFFCURVE",
"64 141 OFFCURVE",
"19 154 CURVE",
"6 141 LINE",
"1 1 LINE",
"39 -7 OFFCURVE",
"90 -12 OFFCURVE",
"128 -12 CURVE SMOOTH",
"307 -12 OFFCURVE",
"434 84 OFFCURVE",
"434 222 CURVE SMOOTH",
"434 299 OFFCURVE",
"387 345 OFFCURVE",
"291 365 CURVE SMOOTH",
"230 378 LINE",
"239 435 LINE",
"321 435 LINE",
"431 420 LINE",
"446 434 LINE",
"483 582 LINE"
);
}
);
width = 476;
}
);
},
{
glyphname = six.tf;
lastChange = "2016-12-19 13:36:26 +0000";
layers = (
{
layerId = UUID0;
paths = (
{
closed = 1;
nodes = (
"342 598 LINE",
"333 598 LINE",
"133 504 OFFCURVE",
"10 359 OFFCURVE",
"10 196 CURVE SMOOTH",
"10 68 OFFCURVE",
"87 -12 OFFCURVE",
"220 -12 CURVE SMOOTH",
"377 -12 OFFCURVE",
"456 99 OFFCURVE",
"456 203 CURVE SMOOTH",
"456 290 OFFCURVE",
"401 376 OFFCURVE",
"299 376 CURVE SMOOTH",
"280 376 OFFCURVE",
"264 372 OFFCURVE",
"246 365 CURVE",
"217 404 LINE",
"171 226 LINE",
"195 237 OFFCURVE",
"217 242 OFFCURVE",
"234 242 CURVE SMOOTH",
"267 242 OFFCURVE",
"279 224 OFFCURVE",
"279 185 CURVE SMOOTH",
"279 142 OFFCURVE",
"262 112 OFFCURVE",
"227 112 CURVE SMOOTH",
"194 112 OFFCURVE",
"184 136 OFFCURVE",
"184 195 CURVE SMOOTH",
"184 346 OFFCURVE",
"257 436 OFFCURVE",
"451 494 CURVE",
"453 513 LINE"
);
}
);
width = 475;
}
);
},
{
glyphname = seven.tf;
lastChange = "2016-12-19 13:36:26 +0000";
layers = (
{
layerId = UUID0;
paths = (
{
closed = 1;
nodes = (
"76 591 LINE",
"44 428 LINE",
"51 413 LINE",
"164 425 LINE",
"274 425 LINE",
"47 58 LINE",
"56 28 LINE",
"206 -15 LINE",
"298 170 LINE",
"465 446 LINE",
"483 588 LINE",
"424 586 LINE",
"214 586 LINE"
);
}
);
width = 475;
}
);
},
{
glyphname = eight.tf;
lastChange = "2016-12-19 13:36:26 +0000";
layers = (
{
layerId = UUID0;
paths = (
{
closed = 1;
nodes = (
"211 477 LINE"
);
},
{
closed = 1;
nodes = (
"277 598 LINE",
"141 598 OFFCURVE",
"53 524 OFFCURVE",
"53 414 CURVE SMOOTH",
"53 348 OFFCURVE",
"83 309 OFFCURVE",
"122 283 CURVE",
"121 275 LINE",
"46 246 OFFCURVE",
"10 205 OFFCURVE",
"10 134 CURVE SMOOTH",
"10 47 OFFCURVE",
"88 -12 OFFCURVE",
"222 -12 CURVE SMOOTH",
"358 -12 OFFCURVE",
"448 63 OFFCURVE",
"448 174 CURVE SMOOTH",
"448 239 OFFCURVE",
"418 276 OFFCURVE",
"373 305 CURVE",
"374 313 LINE",
"434 349 OFFCURVE",
"464 394 OFFCURVE",
"464 454 CURVE SMOOTH",
"464 541 OFFCURVE",
"396 598 OFFCURVE",
"277 598 CURVE SMOOTH"
);
},
{
closed = 1;
nodes = (
"222 225 LINE",
"259 209 OFFCURVE",
"288 192 OFFCURVE",
"288 162 CURVE SMOOTH",
"288 140 OFFCURVE",
"270 116 OFFCURVE",
"227 116 CURVE SMOOTH",
"190 116 OFFCURVE",
"173 133 OFFCURVE",
"173 165 CURVE SMOOTH",
"173 192 OFFCURVE",
"184 210 OFFCURVE",
"222 225 CURVE"
);
},
{
closed = 1;
nodes = (
"262 466 LINE",
"293 466 OFFCURVE",
"309 451 OFFCURVE",
"309 425 CURVE SMOOTH",
"309 403 OFFCURVE",
"298 382 OFFCURVE",
"273 360 CURVE",
"234 377 OFFCURVE",
"213 394 OFFCURVE",
"213 423 CURVE SMOOTH",
"213 447 OFFCURVE",
"229 466 OFFCURVE",
"262 466 CURVE SMOOTH"
);
}
);
width = 476;
}
);
},
{
glyphname = nine.tf;
lastChange = "2016-12-19 13:36:26 +0000";
layers = (
{
layerId = UUID0;
paths = (
{
closed = 1;
nodes = (
"148 -12 LINE",
"157 -12 LINE",
"357 82 OFFCURVE",
"480 227 OFFCURVE",
"480 390 CURVE SMOOTH",
"480 518 OFFCURVE",
"403 598 OFFCURVE",
"270 598 CURVE SMOOTH",
"113 598 OFFCURVE",
"34 487 OFFCURVE",
"34 383 CURVE SMOOTH",
"34 296 OFFCURVE",
"89 210 OFFCURVE",
"191 210 CURVE SMOOTH",
"210 210 OFFCURVE",
"226 214 OFFCURVE",
"244 221 CURVE",
"273 182 LINE",
"319 360 LINE",
"295 349 OFFCURVE",
"273 344 OFFCURVE",
"256 344 CURVE SMOOTH",
"223 344 OFFCURVE",
"211 362 OFFCURVE",
"211 401 CURVE SMOOTH",
"211 444 OFFCURVE",
"228 474 OFFCURVE",
"263 474 CURVE SMOOTH",
"296 474 OFFCURVE",
"306 450 OFFCURVE",
"306 391 CURVE SMOOTH",
"306 240 OFFCURVE",
"233 150 OFFCURVE",
"39 92 CURVE",
"37 73 LINE"
);
}
);
width = 475;
}
);
},
{
glyphname = zero.tosf;
lastChange = "2016-12-19 13:36:26 +0000";
layers = (
{
layerId = UUID0;
paths = (
{
closed = 1;
nodes = (
"276 523 LINE",
"115 523 OFFCURVE",
"18 391 OFFCURVE",
"18 211 CURVE SMOOTH",
"18 64 OFFCURVE",
"85 -12 OFFCURVE",
"206 -12 CURVE SMOOTH",
"364 -12 OFFCURVE",
"463 118 OFFCURVE",
"463 301 CURVE SMOOTH",
"463 451 OFFCURVE",
"394 523 OFFCURVE",
"276 523 CURVE SMOOTH"
);
},
{
closed = 1;
nodes = (
"248 345 LINE",
"297 345 OFFCURVE",
"312 323 OFFCURVE",
"312 265 CURVE SMOOTH",
"312 194 OFFCURVE",
"291 156 OFFCURVE",
"230 156 CURVE SMOOTH",
"179 156 OFFCURVE",
"168 182 OFFCURVE",
"168 237 CURVE SMOOTH",
"168 308 OFFCURVE",
"183 345 OFFCURVE",
"248 345 CURVE SMOOTH"
);
}
);
width = 479;
}
);
},
{
glyphname = one.tosf;
lastChange = "2016-12-19 13:36:26 +0000";
layers = (
{
layerId = UUID0;
paths = (
{
closed = 1;
nodes = (
"360 522 LINE",
"54 446 LINE",
"35 288 LINE",
"47 279 LINE",
"169 299 LINE",
"156 190 LINE",
"124 0 LINE",
"322 0 LINE",
"340 210 LINE",
"386 502 LINE"
);
}
);
width = 475;
}
);
},
{
glyphname = two.tosf;
lastChange = "2016-12-19 13:36:26 +0000";
layers = (
{
layerId = UUID0;
paths = (
{
closed = 1;
nodes = (
"267 522 LINE",
"197 522 OFFCURVE",
"127 499 OFFCURVE",
"52 459 CURVE",
"66 307 LINE",
"87 307 LINE",
"130 337 OFFCURVE",
"180 357 OFFCURVE",
"213 357 CURVE SMOOTH",
"233 357 OFFCURVE",
"241 349 OFFCURVE",
"241 336 CURVE SMOOTH",
"241 312 OFFCURVE",
"206 278 OFFCURVE",
"151 232 CURVE SMOOTH",
"17 122 LINE",
"2 4 LINE",
"10 -3 LINE",
"45 0 LINE",
"266 0 LINE",
"406 -8 LINE",
"447 146 LINE",
"438 158 LINE",
"344 148 LINE",
"277 148 LINE",
"274 153 LINE",
"318 199 LINE SMOOTH",
"411 287 OFFCURVE",
"444 337 OFFCURVE",
"444 392 CURVE SMOOTH",
"444 477 OFFCURVE",
"366 522 OFFCURVE",
"267 522 CURVE SMOOTH"
);
}
);
width = 475;
}
);
},
{
glyphname = three.tosf;
lastChange = "2016-12-19 13:36:26 +0000";
layers = (
{
layerId = UUID0;
paths = (
{
closed = 1;
nodes = (
"254 524 LINE",
"185 524 OFFCURVE",
"117 504 OFFCURVE",
"50 469 CURVE",
"63 334 LINE",
"83 334 LINE",
"128 353 OFFCURVE",
"165 366 OFFCURVE",
"200 366 CURVE SMOOTH",
"229 366 OFFCURVE",
"243 357 OFFCURVE",
"243 337 CURVE SMOOTH",
"243 308 OFFCURVE",
"206 284 OFFCURVE",
"177 283 CURVE SMOOTH",
"116 280 LINE",
"96 146 LINE",
"102 134 LINE",
"186 134 LINE",
"220 134 OFFCURVE",
"232 124 OFFCURVE",
"232 104 CURVE SMOOTH",
"232 72 OFFCURVE",
"202 54 OFFCURVE",
"138 54 CURVE SMOOTH",
"99 54 OFFCURVE",
"61 61 OFFCURVE",
"17 74 CURVE",
"2 62 LINE",
"-5 -82 LINE",
"31 -89 OFFCURVE",
"85 -93 OFFCURVE",
"123 -93 CURVE SMOOTH",
"303 -93 OFFCURVE",
"421 -9 OFFCURVE",
"421 111 CURVE SMOOTH",
"421 169 OFFCURVE",
"393 200 OFFCURVE",
"339 229 CURVE",
"339 235 LINE",
"411 269 OFFCURVE",
"449 339 OFFCURVE",
"449 391 CURVE SMOOTH",
"449 469 OFFCURVE",
"367 524 OFFCURVE",
"254 524 CURVE SMOOTH"
);
}
);
width = 475;
}
);
},
{
glyphname = four.tosf;
lastChange = "2016-12-19 13:36:26 +0000";
layers = (
{
layerId = UUID0;
paths = (
{
closed = 1;
nodes = (
"429 513 LINE",
"262 513 LINE",
"-9 164 LINE",
"-23 50 LINE",
"-14 35 LINE",
"91 39 LINE",
"310 39 LINE",
"435 35 LINE",
"459 161 LINE",
"451 177 LINE",
"148 177 LINE",
"247 314 LINE",
"258 314 LINE",
"238 142 LINE",
"201 -83 LINE",
"209 -94 LINE",
"351 -86 LINE",
"362 -74 LINE",
"373 107 LINE"
);
}
);
width = 475;
}
);
},
{
glyphname = five.tosf;
lastChange = "2016-12-19 13:36:26 +0000";
layers = (
{
layerId = UUID0;
paths = (
{
closed = 1;
nodes = (
"461 522 LINE",
"343 514 LINE",
"181 514 LINE",
"117 518 LINE",
"96 498 LINE",
"57 184 LINE",
"67 170 LINE",
"175 152 LINE SMOOTH",
"214 146 OFFCURVE",
"232 133 OFFCURVE",
"232 109 CURVE SMOOTH",
"232 73 OFFCURVE",
"197 53 OFFCURVE",
"137 53 CURVE SMOOTH",
"94 53 OFFCURVE",
"54 59 OFFCURVE",
"9 72 CURVE",
"-4 59 LINE",
"-11 -81 LINE",
"28 -89 OFFCURVE",
"78 -95 OFFCURVE",
"117 -95 CURVE SMOOTH",
"295 -95 OFFCURVE",
"421 3 OFFCURVE",
"421 144 CURVE SMOOTH",
"421 222 OFFCURVE",
"375 268 OFFCURVE",
"280 289 CURVE SMOOTH",
"220 302 LINE",
"228 363 LINE",
"310 363 LINE",
"419 348 LINE",
"434 362 LINE",
"471 510 LINE"
);
}
);
width = 475;
}
);
},
